<svg width="65" height="28" viewBox="0 0 65 28" fill="none" xmlns="http://www.w3.org/2000/svg">
<path d="M12.1388 3.50579C12.8942 2.56417 13.405 1.29805 13.272 0C12.1707 0.0531986 10.8195 0.728821 10.0428 1.67044C9.34058 2.47906 8.72347 3.79838 8.88307 5.03791C10.1173 5.14963 11.3568 4.42081 12.1388 3.50579Z" fill="#F2F2F5"/>
<path d="M13.2557 5.28198C11.4576 5.17559 9.92548 6.3034 9.06898 6.3034C8.20717 6.3034 6.89316 5.33518 5.47276 5.36178C3.62144 5.38838 1.90313 6.43639 0.961513 8.10151C-0.969597 11.4317 0.450806 16.3739 2.32872 19.0924C3.24373 20.433 4.33963 21.9119 5.79195 21.8587C7.15915 21.8055 7.69646 20.9703 9.36158 20.9703C11.0267 20.9703 11.5108 21.8587 12.9578 21.8321C14.4633 21.8055 15.3996 20.4862 16.3146 19.1455C17.3627 17.6134 17.7882 16.1398 17.8202 16.0547C17.7936 16.0281 14.9208 14.9269 14.8942 11.6233C14.8676 8.85693 17.1499 7.54293 17.2563 7.45781C15.9635 5.5533 13.9526 5.33518 13.2557 5.28198Z" fill="#F2F2F5"/>
<path d="M28.9153 1.53809C32.8254 1.53809 35.5492 4.23526 35.5492 8.15599C35.5492 12.0927 32.7722 14.8058 28.8195 14.8058H24.4892V21.6897H21.3611V1.53809H28.9153ZM24.4892 12.1831H28.0801C30.8038 12.1831 32.3519 10.7148 32.3519 8.17727C32.3519 5.63438 30.8038 4.18206 28.0907 4.18206H24.4892V12.1831Z" fill="#F2F2F5"/>
<path d="M36.3694 17.5179C36.3694 14.9484 38.3377 13.3684 41.8329 13.1716L45.8547 12.9322V11.7991C45.8547 10.1659 44.7535 9.18702 42.9075 9.18702C41.1626 9.18702 40.072 10.0222 39.806 11.3362H36.9546C37.1195 8.68164 39.3857 6.72925 43.0139 6.72925C46.5729 6.72925 48.8498 8.61248 48.8498 11.5597V21.6834H45.9611V19.2682H45.8919C45.0408 20.9014 43.1841 21.9334 41.253 21.9334C38.3803 21.9441 36.3694 20.1566 36.3694 17.5179ZM45.8547 16.188V15.0282L42.2372 15.2517C40.4338 15.3793 39.4177 16.172 39.4177 17.4328C39.4177 18.7202 40.4816 19.5554 42.0989 19.5554C44.2055 19.5554 45.8547 18.1031 45.8547 16.188Z" fill="#F2F2F5"/>
<path d="M51.5837 27.0999V24.658C51.8071 24.7112 52.3072 24.7112 52.5625 24.7112C53.9616 24.7112 54.7117 24.1261 55.1746 22.6152C55.1746 22.5886 55.4406 21.7215 55.4406 21.7055L50.1313 6.99609H53.3977L57.111 18.9498H57.1642L60.8775 6.99609H64.0641L58.5633 22.4556C57.3078 26.0199 55.8555 27.1637 52.8072 27.1637C52.5625 27.169 51.8071 27.1424 51.5837 27.0999Z" fill="#F2F2F5"/>
</svg>
