<svg width="66" height="26" viewBox="0 0 66 26" fill="none" xmlns="http://www.w3.org/2000/svg">
<path d="M30.5248 12.4547V20.0051H28.1287V1.35986H34.481C36.091 1.35986 37.4638 1.89651 38.587 2.9698C39.7352 4.04308 40.3092 5.35349 40.3092 6.90103C40.3092 8.486 39.7352 9.79641 38.587 10.8572C37.4763 11.918 36.1034 12.4422 34.481 12.4422H30.5248V12.4547ZM30.5248 3.6562V10.1583H34.531C35.4794 10.1583 36.2782 9.83385 36.9022 9.19737C37.5387 8.56088 37.8631 7.78711 37.8631 6.91351C37.8631 6.05238 37.5387 5.29109 36.9022 4.65461C36.2782 3.99316 35.4919 3.66868 34.531 3.66868H30.5248V3.6562Z" fill="#F2F2F5"/>
<path d="M46.5756 6.82642C48.3478 6.82642 49.7456 7.30066 50.769 8.24915C51.7923 9.19763 52.304 10.4956 52.304 12.1429V20.0054H50.0202V18.2332H49.9203C48.9344 19.6934 47.6115 20.4172 45.9641 20.4172C44.5539 20.4172 43.3807 20.0054 42.4323 19.1692C41.4838 18.3331 41.0095 17.2972 41.0095 16.0492C41.0095 14.7263 41.5087 13.678 42.5071 12.9042C43.5055 12.118 44.8409 11.7311 46.5008 11.7311C47.9235 11.7311 49.0966 11.9932 50.0077 12.5173V11.9682C50.0077 11.1321 49.6832 10.4332 49.0217 9.8466C48.3603 9.26004 47.5865 8.97299 46.7004 8.97299C45.3651 8.97299 44.3043 9.5346 43.5305 10.6703L41.4214 9.3474C42.582 7.66258 44.3043 6.82642 46.5756 6.82642ZM43.4806 16.0867C43.4806 16.7107 43.7427 17.2348 44.2793 17.6467C44.8035 18.0585 45.4275 18.2707 46.1388 18.2707C47.1497 18.2707 48.0483 17.8963 48.8345 17.1475C49.6208 16.3987 50.0202 15.525 50.0202 14.5142C49.2713 13.9276 48.2355 13.6281 46.9001 13.6281C45.9267 13.6281 45.1155 13.8652 44.4665 14.327C43.8051 14.8137 43.4806 15.4002 43.4806 16.0867Z" fill="#F2F2F5"/>
<path d="M65.3343 7.23804L57.347 25.6087H54.8759L57.8462 19.1815L52.5796 7.23804H55.1879L58.9819 16.3984H59.0318L62.7259 7.23804H65.3343Z" fill="#F2F2F5"/>
<path d="M20.9978 10.9325C20.9978 10.1512 20.9279 9.40367 20.7981 8.68481H10.7542V12.8032L16.5387 12.8045C16.3041 14.1748 15.549 15.3429 14.3921 16.1217V18.7937H17.8354C19.8459 16.9329 20.9978 14.1823 20.9978 10.9325Z" fill="#4285F4"/>
<path d="M14.3912 16.1215C13.4327 16.768 12.1984 17.1461 10.7545 17.1461C7.96517 17.1461 5.59894 15.2666 4.75154 12.7332H1.19971V15.4888C2.9594 18.9807 6.57613 21.3769 10.7545 21.3769C13.6424 21.3769 16.0685 20.4271 17.8344 18.7922L14.3912 16.1215Z" fill="#34A853"/>
<path d="M4.41827 10.689C4.41827 9.97767 4.53683 9.29002 4.75274 8.64355V5.88794H1.2009C0.473312 7.33189 0.0639648 8.96179 0.0639648 10.689C0.0639648 12.4163 0.47456 14.0462 1.2009 15.4901L4.75274 12.7345C4.53683 12.0881 4.41827 11.4004 4.41827 10.689Z" fill="#FABB05"/>
<path d="M10.7545 4.23075C12.3307 4.23075 13.7422 4.77364 14.8567 5.83445L17.9081 2.78556C16.0548 1.05956 13.6386 0 10.7545 0C6.57738 0 2.9594 2.39618 1.19971 5.88811L4.75154 8.64372C5.59894 6.11026 7.96517 4.23075 10.7545 4.23075Z" fill="#E94235"/>
</svg>
