<svg width="305" height="52" viewBox="0 0 305 52" fill="none" xmlns="http://www.w3.org/2000/svg">
<g clip-path="url(#clip0_512_268)">
<path d="M41.9761 41.6819H0V42.2589H41.9761V41.6819Z" fill="white"/>
<path d="M163 41.6819H121.024V42.2589H163V41.6819Z" fill="white"/>
<path d="M154.851 32.5942H152.255V33.3876H154.851V32.5942Z" fill="white"/>
<path d="M151.678 30.7913C151.678 31.1519 151.678 31.5125 151.822 31.8732C151.967 32.0895 152.183 32.1616 152.399 32.1616H152.688C153.121 32.2338 153.265 32.378 153.265 32.7386C153.265 32.8829 153.193 33.0271 153.121 33.1714C152.976 33.2435 152.832 33.3156 152.688 33.3156H147.928C147.639 33.3878 147.423 33.1714 147.351 32.8829C147.351 32.8108 147.351 32.7386 147.351 32.7386C147.351 32.378 147.567 32.2338 147.928 32.1616H148.072C148.288 32.1616 148.505 32.0174 148.649 31.8732C148.721 31.5125 148.793 31.1519 148.793 30.7913V11.5342C148.865 11.2457 148.793 10.9572 148.577 10.813C148.288 10.6687 148 10.5966 147.639 10.5966C147.279 10.5245 147.062 10.3802 147.062 10.0196C147.062 9.87536 147.062 9.73112 147.207 9.65899C147.423 9.51474 147.567 9.44262 147.783 9.3705L150.38 8.28864L150.741 8.14439C150.885 8.07227 150.957 8.07227 151.101 8.07227C151.245 8.07227 151.462 8.14439 151.534 8.28864C151.606 8.57713 151.678 8.79351 151.678 9.082V30.7913Z" fill="white"/>
<path d="M157.087 33.604C157.519 33.6761 157.88 33.6761 158.313 33.6761C159.539 33.7483 160.765 33.3876 161.703 32.5943C162.568 31.873 163.001 30.719 163.001 29.5651C163.001 28.6996 162.712 27.8341 162.207 27.185C161.486 26.3195 160.549 25.5982 159.539 25.0213L158.313 24.3C157.087 23.5067 156.438 22.8575 156.438 22.2084C156.438 21.7757 156.582 21.4151 156.942 21.1987C157.303 20.9102 157.736 20.7659 158.168 20.7659C158.673 20.7659 159.178 20.9102 159.683 21.1987C160.188 21.4872 160.621 21.9199 160.909 22.4248L161.27 22.9297C161.342 23.146 161.63 23.2903 161.847 23.3624C161.991 23.3624 162.135 23.2903 162.28 23.2182C162.424 23.0739 162.424 22.9297 162.424 22.7854C162.424 22.7133 162.424 22.569 162.424 22.4969L162.352 22.0642L161.991 20.189C161.991 19.9726 161.847 19.7562 161.775 19.5398C161.703 19.3956 161.558 19.3956 161.342 19.3956C161.198 19.3956 161.053 19.4677 160.909 19.5398L160.693 19.6841C160.549 19.8283 160.404 19.9005 160.26 19.9005C160.188 19.9005 160.188 19.9005 160.116 19.9005L159.899 19.6841C159.178 19.3956 158.385 19.1792 157.591 19.1792C156.51 19.1071 155.428 19.4677 154.562 20.189C153.769 20.8381 153.336 21.7757 153.336 22.7854C153.336 23.9394 153.913 25.0213 154.851 25.7425L155.211 26.031C155.356 26.1031 155.5 26.2474 155.644 26.3195L156.221 26.6801L157.087 27.2571C157.736 27.6898 158.241 27.9783 158.601 28.2668C158.89 28.4832 159.25 28.6996 159.467 28.9881C159.611 29.1323 159.755 29.3487 159.899 29.5651C159.972 29.7814 159.972 29.9978 159.972 30.2863C159.972 30.7912 159.755 31.296 159.395 31.5845C158.962 31.9452 158.457 32.1615 157.952 32.0894C157.303 32.0894 156.726 31.9452 156.149 31.5845C155.572 31.296 155.139 30.8633 154.779 30.3584L154.274 29.6372C154.13 29.4208 153.913 29.2766 153.625 29.2766C153.48 29.2766 153.264 29.3487 153.12 29.4208C152.976 29.5651 152.903 29.7093 152.903 29.8536C152.903 29.9257 152.903 29.9978 152.903 30.0699C152.903 30.1421 152.903 30.2863 152.976 30.3584L153.408 32.8106C153.408 32.9549 153.48 33.0991 153.48 33.1713H154.851" fill="white"/>
<path d="M10.8879 10.6685C12.4025 10.6685 13.9171 10.8848 15.3596 11.4618C16.6578 11.9667 17.8118 12.7601 18.7494 13.7698C19.687 14.8516 20.4083 16.0777 20.841 17.4481C21.3459 19.0348 21.5623 20.6937 21.5623 22.3525C21.5623 24.0114 21.3459 25.6702 20.841 27.1848C20.4083 28.5552 19.6149 29.7813 18.6773 30.8631C17.7397 31.8729 16.5857 32.6662 15.2875 33.1711C13.845 33.7481 12.3304 34.0366 10.8158 33.9645C9.3012 33.9645 7.7866 33.7481 6.34412 33.1711C5.04589 32.6662 3.96403 31.8729 3.02642 30.8631C2.08881 29.7813 1.36757 28.5552 0.862699 27.257C0.357832 25.7424 0.0693366 24.0835 0.141461 22.4968C0.141461 20.8379 0.357832 19.1791 0.862699 17.5924C1.29544 16.222 2.01668 14.9959 3.02642 13.914C3.96403 12.9043 5.11801 12.1109 6.41624 11.6061C7.7866 10.957 9.3012 10.6685 10.8879 10.6685ZM10.8158 12.6158C8.79633 12.5437 6.84898 13.4813 5.76713 15.2123C4.54102 16.9432 3.96403 19.3954 3.96403 22.4968C3.96403 23.8671 4.10828 25.1654 4.39677 26.4636C4.68527 27.5454 5.11801 28.5552 5.695 29.4928C6.77686 31.1516 8.65208 32.0893 10.5994 32.0171C13.3401 32.0171 15.3596 30.6468 16.5136 27.8339C16.8742 26.9685 17.0906 26.1751 17.2348 25.2375C17.4512 24.2999 17.5233 23.2901 17.5233 22.3525C17.5233 21.1264 17.3791 19.8282 17.0906 18.6021C16.9463 17.5202 16.5857 16.5105 16.0808 15.5729C14.999 13.6255 12.9795 12.5437 10.8158 12.6158Z" fill="white"/>
<path d="M59.7165 31.8008C60.4377 31.1517 61.0868 30.4305 61.6638 29.6371L61.8081 29.4929V31.0075C61.8081 31.3681 61.8081 31.7287 61.6638 32.0893C61.5196 32.3057 61.3032 32.3778 61.0868 32.3778H61.0147C60.6541 32.4499 60.4377 32.5942 60.4377 32.9548C60.3656 33.2433 60.582 33.4597 60.7983 33.5318C60.8705 33.5318 60.9426 33.5318 61.0147 33.5318H65.6306C65.7749 33.5318 65.9191 33.4597 66.0634 33.3875C66.2076 33.2433 66.2076 33.099 66.2076 32.9548C66.2076 32.5942 65.9913 32.4499 65.6306 32.3778H65.3421C65.1258 32.3778 64.9094 32.2336 64.7652 32.0893C64.693 31.7287 64.6209 31.3681 64.6209 31.0075V25.3818C64.5488 24.4442 64.7652 23.5787 65.1979 22.7853C65.4864 22.2083 66.1355 21.8477 66.7846 21.7756C67.0731 21.7756 67.3616 21.8477 67.6501 21.992L68.155 22.3526C68.2271 22.4247 68.3714 22.4968 68.4435 22.4247C68.5156 22.4247 68.732 22.2805 68.9483 22.0641L69.5975 21.3429C69.7417 21.1986 69.886 20.9101 69.886 20.6937C69.886 20.4052 69.6696 20.1167 69.2368 19.8283C68.8041 19.5398 68.2271 19.3955 67.7222 19.3955C66.2798 19.3955 65.1979 20.1889 64.5488 21.7035V20.4774C64.5488 20.1889 64.5488 19.9004 64.4767 19.684C64.3324 19.5398 64.1882 19.4676 64.0439 19.4676C63.9718 19.4676 63.8275 19.4676 63.7554 19.5398L63.3227 19.7561L60.7262 20.838C60.5098 20.9101 60.2935 20.9822 60.1492 21.1265C60.0771 21.1986 60.005 21.3429 60.005 21.4871C60.005 21.8477 60.2214 21.992 60.6541 22.0641C61.0147 22.0641 61.3032 22.1362 61.5917 22.2805C61.736 22.569 61.8081 22.9296 61.8081 23.2902V25.6703C61.2311 27.257 60.9426 28.1946 59.5722 29.7092C59.5001 29.8535 59.1395 30.142 58.9952 30.2862C58.851 30.4305 58.851 30.4305 58.7067 30.5026C58.2019 31.0075 57.6249 31.4402 56.9037 31.7287C56.3267 32.0172 55.6054 32.1614 54.9563 32.1614C53.7302 32.2336 52.5762 31.6566 51.9271 30.719C51.1337 29.4929 50.701 28.0504 50.8452 26.6079C50.7731 25.1654 51.1337 23.7229 51.7829 22.4968C52.2877 21.5592 53.2975 20.9822 54.3793 20.9822C55.0284 20.9822 55.6054 21.1986 56.0382 21.6313C56.4709 22.0641 56.6873 22.6411 56.6873 23.2181C56.6873 23.5787 56.6152 23.9393 56.3988 24.2278C56.1103 24.5884 55.7497 24.8769 55.3169 25.0933L52.7926 26.6079C52.5762 26.7521 52.3598 26.8964 52.1435 27.1128C51.9992 27.257 51.9992 27.4013 51.9992 27.6176C51.9992 27.834 52.0714 28.0504 52.2156 28.1946C52.3598 28.3389 52.5762 28.411 52.7926 28.411C52.8647 28.411 53.009 28.411 53.0811 28.3389C53.2253 28.2667 53.3696 28.1946 53.5138 28.1225L58.3461 25.2375C59.3559 24.6606 59.8607 24.0114 59.8607 23.4344C59.8607 22.9296 59.7165 22.4247 59.428 21.992C59.1395 21.4871 58.7067 20.9822 58.2019 20.6216C57.12 19.8283 55.7497 19.3955 54.3793 19.3955C53.4417 19.3955 52.5041 19.5398 51.6386 19.9004C50.8452 20.1889 50.124 20.6937 49.4749 21.3429C48.8258 21.992 48.393 22.7853 48.1045 23.6508C47.7439 24.5884 47.5997 25.5982 47.5997 26.6079C47.5997 27.6176 47.7439 28.6274 48.1045 29.565C48.393 30.4305 48.8979 31.1517 49.547 31.8008C50.1961 32.4499 50.9174 32.9548 51.7107 33.2433C52.6483 33.6039 53.586 33.7482 54.5957 33.7482C56.1824 33.8203 57.7691 33.2433 59.0674 32.2336" fill="white"/>
<path d="M82.4387 22.1362L82.5108 22.569C82.5108 22.6411 82.583 22.7854 82.5108 22.8575C82.5108 23.0017 82.4387 23.146 82.3666 23.2902C82.2223 23.3623 82.0781 23.4345 81.9338 23.4345C81.6453 23.4345 81.429 23.2902 81.3568 23.0017L80.9962 22.569C80.6356 22.0641 80.275 21.7035 79.7701 21.3429C79.3374 21.0544 78.8325 20.9101 78.2555 20.9101C77.8228 20.9101 77.3179 21.0544 77.0294 21.3429C76.7409 21.6314 76.5245 21.992 76.5245 22.3526C76.5245 23.0017 77.1015 23.723 78.3998 24.4442L79.6259 25.1654C80.6356 25.6703 81.5732 26.3916 82.2945 27.3292C82.7993 27.9783 83.0878 28.8438 83.0878 29.7092C83.1599 30.8632 82.6551 31.9451 81.7896 32.7385C80.852 33.4597 79.6259 33.8924 78.3998 33.8203C77.967 33.8203 77.6064 33.8203 77.1737 33.7482C76.813 33.6761 76.4524 33.6039 76.0918 33.5318L75.7312 33.3876C75.6591 33.3876 75.5869 33.3876 75.5148 33.3876C75.2984 33.3876 75.1542 33.5318 75.0099 33.6039C74.8657 33.6761 74.7936 33.8203 74.6493 33.8924C74.5772 33.9646 74.433 33.9646 74.3608 33.9646C74.0002 33.9646 73.7838 33.6761 73.7117 33.1712L73.279 30.719C73.279 30.5747 73.279 30.5026 73.2068 30.4305C73.2068 30.3584 73.2068 30.2862 73.2068 30.2141C73.2068 30.0699 73.279 29.8535 73.4232 29.7814C73.5675 29.6371 73.7117 29.565 73.856 29.565C74.1445 29.565 74.3608 29.7092 74.5051 29.9256L74.9378 30.6469C75.2984 31.1517 75.8033 31.5845 76.3803 31.873C76.9573 32.1615 77.5343 32.3778 78.1834 32.3778C78.6883 32.3778 79.2653 32.2336 79.6259 31.873C79.9865 31.5123 80.2029 31.0796 80.2029 30.5747C80.2029 30.3584 80.2029 30.142 80.1307 29.8535C80.0586 29.6371 79.9144 29.4208 79.698 29.2765C79.4095 28.988 79.121 28.7716 78.8325 28.5553C78.4719 28.2668 77.967 27.9783 77.3179 27.5455L76.4524 26.9685L75.8754 26.6079C75.7312 26.4637 75.5869 26.3916 75.4427 26.2473C75.2984 26.1752 75.1542 26.0309 75.0099 25.9588C74.0723 25.3097 73.4953 24.2278 73.4953 23.0017C73.4953 21.992 73.9281 21.0544 74.7214 20.4053C75.5869 19.684 76.6688 19.3234 77.7507 19.3955C78.544 19.3955 79.3374 19.5398 80.0586 19.8283L80.275 19.9004C80.3471 19.9004 80.3471 19.9004 80.4192 19.9004C80.5635 19.9004 80.7799 19.8283 80.852 19.684L81.0684 19.5398C81.2126 19.4677 81.3568 19.3955 81.5011 19.3955C81.6453 19.3955 81.7896 19.4677 81.9338 19.5398C82.006 19.7562 82.0781 19.9725 82.0781 20.1889L82.4387 22.1362Z" fill="white"/>
<path d="M45.0737 22.1364C45.1458 21.9921 45.1458 21.7758 45.1458 21.6315C45.1458 21.4873 45.0737 21.2709 44.9295 21.1988C44.7131 21.0545 44.4967 20.9824 44.2082 20.9824C43.7034 20.9103 43.487 20.6939 43.487 20.4054C43.487 20.1891 43.5591 20.0448 43.7034 19.9006C43.9919 19.6842 44.2082 19.6842 44.4246 19.6842H47.8144C48.1029 19.6842 48.3193 19.6842 48.6078 19.8284C48.752 19.9006 48.8242 20.1169 48.8242 20.2612C48.8242 20.5497 48.6078 20.766 48.2472 20.8382L47.7423 20.9103C47.5259 20.9824 47.3817 21.0545 47.2374 21.1988C47.0211 21.4873 46.8768 21.7037 46.8047 21.9921L42.6215 32.1616L42.4773 32.6665C42.2609 33.2435 41.9003 33.6041 41.4675 33.6041C41.2511 33.6041 41.0348 33.532 40.8905 33.3877C40.6742 33.1714 40.5299 32.8829 40.4578 32.5944L40.3135 32.1616L36.1303 21.9921C35.9861 21.7758 35.914 21.5594 35.8419 21.4152C35.7697 21.2709 35.6976 21.1988 35.6255 21.0545C35.337 21.1267 35.2649 21.0545 35.1206 20.9824C34.9764 20.9103 34.76 20.9103 34.6157 20.8382C34.183 20.766 34.0388 20.5497 34.0388 20.2612C34.0388 20.0448 34.1109 19.9006 34.2551 19.7563C34.5436 19.6842 34.8321 19.6121 35.1206 19.6121H39.8087C40.0972 19.6121 40.3135 19.6121 40.602 19.7563C40.7463 19.8284 40.8184 20.0448 40.8184 20.1891C40.8184 20.5497 40.602 20.6939 40.0972 20.766L39.6644 20.8382C39.1596 20.9824 38.9432 21.1988 38.9432 21.5594C39.0153 21.9921 39.0874 22.4249 39.2317 22.8576L39.5923 23.7231L39.8808 24.5165L42.0445 29.9979L45.0737 22.1364Z" fill="white"/>
<path d="M74.2155 16.7991C74.2155 18.458 73.6385 20.0447 72.4845 21.2708C71.9796 21.7757 71.619 22.0642 71.3305 22.0642C71.1141 22.0642 70.8978 21.9199 70.8256 21.7036C70.8256 21.6314 70.8256 21.6314 70.8256 21.5593C70.8256 21.4872 70.8256 21.4151 70.8978 21.3429C70.8978 21.2708 71.042 21.1266 71.2584 20.8381C72.1239 19.8283 72.5566 19.035 72.5566 18.3859C72.6287 18.0974 72.4124 17.881 72.196 17.8089H71.7633C71.3305 17.7368 70.9699 17.5925 70.6814 17.304C70.3929 17.0155 70.2487 16.5828 70.2487 16.15C70.2487 15.6452 70.3929 15.1403 70.7535 14.7797C71.1141 14.4191 71.5469 14.2027 72.0518 14.2748C72.6287 14.2748 73.2779 14.4912 73.6385 14.996C73.9991 15.5009 74.2155 16.15 74.2155 16.7991Z" fill="white"/>
<path d="M25.9619 31.0076C25.9619 31.3682 25.9619 31.7288 26.1062 32.0894C26.2504 32.3058 26.4668 32.3779 26.6832 32.3779H26.8274C27.2601 32.45 27.4044 32.5943 27.4044 32.9549C27.4044 33.0992 27.3323 33.2434 27.2601 33.3877C27.1159 33.4598 26.9716 33.5319 26.8274 33.5319H22.2836C21.9951 33.604 21.7787 33.3876 21.7066 33.0992C21.7066 33.027 21.7066 32.9549 21.7066 32.9549C21.7066 32.5943 21.923 32.45 22.2836 32.3779H22.4278C22.6442 32.3779 22.8606 32.2337 23.0048 32.0894C23.077 31.7288 23.1491 31.3682 23.1491 31.0076V10.5244C23.1491 10.1638 23.1491 11.0292 23.0048 10.885C22.7163 10.7407 22.4278 10.6686 22.0672 10.6686C21.7066 10.5965 21.4902 10.4523 21.4902 10.0916C21.4902 9.94738 21.4902 9.80314 21.6345 9.73101C21.8509 9.58676 21.9951 9.51464 22.2115 9.44252L24.8079 8.36066L25.1686 8.21641C25.3128 8.14429 25.3849 8.14429 25.5292 8.14429C25.6734 8.14429 25.8898 8.21641 25.9619 8.36066C25.9619 8.64915 26.034 8.86553 25.9619 9.15402V31.0076Z" fill="white"/>
<path d="M32.8916 31.0077C32.8916 31.3683 32.8916 31.7289 33.0359 32.0896C33.1801 32.3059 33.3965 32.3781 33.6129 32.3781H33.7571C34.1899 32.4502 34.3341 32.5944 34.3341 32.9551C34.3341 33.0993 34.262 33.2435 34.1899 33.3878C34.0456 33.4599 33.9014 33.532 33.7571 33.532H29.2133C28.9248 33.6042 28.7085 33.3878 28.6363 33.1714C28.6363 33.0993 28.6363 33.0272 28.6363 32.9551C28.6363 32.5944 28.8527 32.4502 29.2133 32.3781H29.3576C29.5739 32.3781 29.7903 32.2338 29.9346 32.0896C30.0067 31.7289 30.0788 31.3683 30.0788 31.0077V23.0741C30.0788 22.7856 30.0067 22.4971 29.8624 22.2807C29.6461 22.1365 29.3576 22.0643 29.0691 22.0643C28.5642 22.0643 28.3478 21.848 28.3478 21.4874C28.3478 21.3431 28.3478 21.1989 28.4921 21.1267C28.6363 20.9825 28.8527 20.9104 29.0691 20.8382L31.8098 19.7564L32.2425 19.6121C32.3147 19.6121 32.3868 19.54 32.4589 19.6121C32.6753 19.6121 32.8195 19.6843 32.9638 19.8285C33.0359 20.117 33.108 20.4776 33.0359 20.7661V31.0077H32.8916Z" fill="white"/>
<path d="M33.1789 16.1501C33.1789 16.6549 32.9625 17.1598 32.6019 17.5204C32.2413 17.881 31.8085 18.0974 31.3037 18.0974C30.2939 18.0974 29.3563 17.304 29.3563 16.2943V16.2222C29.3563 15.7173 29.5727 15.2125 29.9333 14.924C30.2939 14.5633 30.7988 14.347 31.3037 14.4191C31.8085 14.4191 32.3134 14.6355 32.674 14.9961C33.0346 15.2125 33.251 15.6452 33.1789 16.1501Z" fill="white"/>
<path d="M116.55 33.3154C115.9 33.5318 115.179 33.676 114.53 33.676C113.953 33.676 113.304 33.6039 112.727 33.3875C112.222 33.2433 111.717 32.9548 111.284 32.5942C110.924 32.2335 110.563 31.8729 110.347 31.3681C110.131 30.8632 109.986 30.3583 109.986 29.7813C109.986 28.988 110.203 28.1946 110.635 27.4734C111.14 26.7521 111.789 26.1751 112.583 25.7424C113.16 25.3818 113.809 25.0933 114.53 24.8769C115.107 24.6605 115.684 24.5884 116.333 24.5884C116.91 24.5884 117.199 24.8048 117.199 25.2375C117.199 25.5981 116.982 25.8145 116.55 25.8866C115.612 26.0309 114.746 26.5358 114.025 27.1849C113.448 27.834 113.088 28.6274 113.16 29.4928C113.088 30.142 113.304 30.8632 113.737 31.3681C114.169 31.8729 114.746 32.0893 115.396 32.0893C115.9 32.0893 116.333 31.9451 116.766 31.6566C117.127 31.3681 117.487 31.0074 117.631 30.5747C117.776 30.2862 117.848 29.9256 117.848 29.565C117.92 29.0601 117.92 28.6274 117.92 28.1225V23.5787C117.92 21.8477 117.054 20.9822 115.396 20.9822C115.107 20.9822 114.891 20.9822 114.602 21.0543C114.386 21.0543 114.097 21.1265 113.881 21.1986C113.592 21.2707 113.376 21.415 113.088 21.4871C112.727 21.6313 112.438 21.8477 112.15 21.992C111.934 22.1362 111.717 22.2083 111.429 22.2083C111.212 22.2083 111.068 22.1362 110.996 21.992C110.852 21.8477 110.78 21.6313 110.78 21.4871C110.78 21.1265 111.14 20.6937 111.861 20.261C113.16 19.5397 114.602 19.1791 116.045 19.2512C117.704 19.2512 118.93 19.6119 119.651 20.261C120.011 20.6216 120.3 21.0543 120.516 21.4871C120.733 22.1362 120.805 22.7853 120.733 23.4344V30.6468C120.733 31.0074 120.733 31.3681 120.877 31.7287C121.021 31.9451 121.238 32.0172 121.454 32.0172H121.526C121.887 32.0893 122.103 32.2335 122.103 32.5942C122.103 32.7384 122.031 32.8827 121.959 33.0269C121.815 33.099 121.67 33.1712 121.526 33.1712H118.641C118.497 33.1712 118.353 33.1712 118.208 33.099C118.136 33.0269 118.064 32.8827 118.064 32.6663V32.0893C117.704 32.7384 117.127 33.099 116.55 33.3154Z" fill="white"/>
<path d="M132.351 22.1365C132.423 21.9923 132.423 21.7759 132.423 21.6316C132.423 21.4874 132.351 21.271 132.206 21.1989C131.99 21.0546 131.774 20.9825 131.485 20.9825C131.052 20.9104 130.764 20.694 130.764 20.4055C130.764 20.1892 130.836 20.0449 130.98 19.9007C131.269 19.6843 131.485 19.6122 131.774 19.6843H135.163C135.452 19.6843 135.668 19.6843 135.957 19.8285C136.101 19.9007 136.173 20.117 136.173 20.2613C136.173 20.5498 135.957 20.7661 135.596 20.8383L135.091 20.9104C134.875 20.9825 134.731 21.0546 134.586 21.1989C134.37 21.4874 134.226 21.7038 134.154 21.9923L129.971 32.1617L129.826 32.6666C129.61 33.2436 129.249 33.6042 128.817 33.6042C128.6 33.6042 128.384 33.5321 128.24 33.3878C128.023 33.1715 127.879 32.883 127.735 32.5945L127.59 32.1617L123.335 22.0644C123.191 21.848 123.119 21.6316 123.047 21.4874C122.975 21.3431 122.902 21.271 122.83 21.1268C122.758 21.0546 122.614 20.9825 122.47 20.9104C122.325 20.8383 122.109 20.8383 121.965 20.7661C121.532 20.694 121.388 20.4776 121.388 20.1892C121.388 19.9728 121.46 19.8285 121.604 19.6843C121.893 19.6122 122.181 19.54 122.47 19.54H127.158C127.446 19.54 127.663 19.54 127.951 19.6843C128.095 19.7564 128.167 19.9728 128.167 20.117C128.167 20.4776 127.951 20.6219 127.446 20.694L126.941 20.9104C126.509 20.9825 126.292 21.1989 126.292 21.5595C126.364 21.9923 126.436 22.425 126.581 22.8577L126.941 23.7232L127.23 24.5166L129.394 29.998L132.351 22.1365Z" fill="white"/>
<path d="M140.787 27.834C140.643 27.9061 140.498 27.9782 140.354 28.0503C140.282 28.0503 140.138 28.1225 140.066 28.1225C139.633 28.1225 139.272 27.834 139.272 27.4012C139.272 27.4012 139.272 27.4012 139.272 27.3291C139.272 27.1849 139.344 26.9685 139.417 26.8242C139.633 26.6079 139.849 26.4636 140.066 26.3194L142.59 24.8048C143.023 24.5884 143.383 24.2999 143.672 23.9393C143.888 23.6508 143.96 23.2902 143.96 22.9295C143.96 22.3526 143.744 21.7756 143.311 21.3428C142.878 20.9101 142.301 20.6216 141.652 20.6937C140.57 20.6937 139.561 21.2707 139.056 22.2083C138.335 23.5065 138.046 24.8769 138.118 26.3194C138.046 27.7618 138.407 29.2043 139.2 30.4304C139.921 31.4402 141.075 31.945 142.229 31.945C142.878 31.945 143.528 31.8008 144.177 31.5123C144.826 31.2238 145.403 30.791 145.908 30.2862C146.052 30.1419 146.196 29.9977 146.413 29.9256C146.557 29.8534 146.701 29.8534 146.845 29.8534C146.99 29.8534 147.206 29.9256 147.35 30.0698C147.494 30.2141 147.567 30.3583 147.567 30.5026C147.567 31.0074 147.206 31.5123 146.34 32.1614C145.042 33.099 143.528 33.6039 141.941 33.6039C140.931 33.6039 139.994 33.4596 139.056 33.099C138.263 32.7384 137.469 32.3057 136.892 31.6565C136.243 31.0074 135.81 30.2141 135.45 29.4207C135.089 28.4831 134.945 27.4734 134.945 26.4636C134.945 25.4539 135.089 24.4441 135.45 23.5065C135.738 22.641 136.243 21.8477 136.82 21.1986C137.397 20.5495 138.118 20.0446 138.912 19.684C139.777 19.3233 140.715 19.107 141.652 19.1791C143.023 19.1791 144.393 19.5397 145.475 20.4052C145.98 20.7658 146.34 21.1986 146.701 21.7756C146.99 22.2083 147.134 22.7132 147.134 23.218C147.134 23.795 146.629 24.4441 145.619 25.0211L140.787 27.834Z" fill="white"/>
<path d="M97.2216 30.5747C97.2216 31.5123 97.5101 32.0172 98.1592 32.0172L98.3755 32.0893C98.8083 32.1615 99.0247 32.3057 99.0247 32.6663C99.0247 33.0991 98.7362 33.3154 98.1592 33.3154H92.7499C92.1729 33.3154 91.8844 33.0991 91.8844 32.6663C91.8844 32.3057 92.1008 32.0893 92.5335 32.0893L92.822 32.0172C93.399 31.9451 93.7596 31.5123 93.7596 30.5747V14.4911C93.8317 13.9862 93.6875 13.4814 93.4711 13.0486C93.0384 12.7601 92.6056 12.688 92.1008 12.7601H90.9468C90.3698 12.7601 89.7928 12.9044 89.3601 13.265C88.7831 13.6977 88.2782 14.2026 87.9897 14.8517C87.9176 15.0681 87.7733 15.2123 87.6291 15.3566C87.4848 15.3566 87.3406 15.3566 87.1963 15.3566C86.98 15.3566 86.8357 15.2845 86.6915 15.1402C86.5472 14.996 86.4751 14.8517 86.4751 14.7075C86.4751 14.6353 86.4751 14.4911 86.5472 14.419C86.5472 14.3469 86.6193 14.2026 86.6915 14.0584L87.7012 11.6783L87.8455 11.3898C87.9897 11.1013 88.2782 10.957 88.5667 10.957H102.631C102.847 10.957 103.064 10.957 103.208 11.1013C103.352 11.2455 103.496 11.4619 103.568 11.6783L104.506 13.9862L104.578 14.3469C104.578 14.4911 104.65 14.5632 104.65 14.7075C104.65 14.9238 104.578 15.0681 104.434 15.2123C104.29 15.2845 104.073 15.3566 103.929 15.3566C103.785 15.3566 103.641 15.2845 103.496 15.2123C103.352 15.0681 103.208 14.9238 103.064 14.7796C102.631 14.2026 102.414 13.842 102.198 13.6256C102.054 13.4814 101.91 13.3371 101.693 13.1929C101.116 12.8323 100.467 12.688 99.818 12.688H98.5919C98.1592 12.6159 97.7985 12.7601 97.4379 13.0486C97.2216 13.4814 97.1494 13.9862 97.1494 14.4911L97.2216 30.5747Z" fill="white"/>
<path d="M108.116 19.54C108.621 19.54 109.198 19.6843 109.631 19.9007C110.064 20.1892 110.28 20.4776 110.28 20.7661C110.28 20.9825 110.136 21.271 109.992 21.4153L109.415 22.1365C109.198 22.3529 109.054 22.4971 108.91 22.4971C108.766 22.4971 108.693 22.4971 108.621 22.425L108.116 22.0644C107.9 21.9201 107.612 21.848 107.323 21.848C106.674 21.848 106.097 22.2086 105.808 22.7856C105.376 23.579 105.159 24.4445 105.231 25.3821V30.8635C105.231 31.2241 105.231 31.5847 105.376 31.8732C105.52 32.0896 105.664 32.1617 105.953 32.1617H106.241C106.602 32.2338 106.818 32.3781 106.818 32.7387C106.818 32.883 106.746 33.0272 106.674 33.1715C106.53 33.2436 106.385 33.3157 106.241 33.3157H101.625C101.337 33.3878 101.12 33.1715 101.048 32.883C101.048 32.8108 101.048 32.8108 101.048 32.7387C101.048 32.3781 101.265 32.2338 101.625 32.1617H101.769C101.986 32.1617 102.202 32.0175 102.346 31.8732C102.491 31.5126 102.491 31.2241 102.491 30.8635V23.3626C102.563 23.002 102.491 22.6414 102.346 22.3529C102.058 22.2086 101.769 22.0644 101.409 22.1365C100.976 22.0644 100.76 21.9201 100.76 21.5595C100.76 21.4153 100.832 21.3431 100.904 21.1989C101.048 21.0546 101.265 20.9825 101.481 20.9104L104.005 19.8285L104.222 19.6843C104.294 19.6843 104.438 19.6122 104.51 19.6122C104.654 19.6122 104.799 19.6843 104.871 19.8285C104.943 20.117 105.015 20.3334 104.943 20.6219V21.848C105.664 20.2613 106.746 19.54 108.116 19.54Z" fill="white"/>
<path d="M153.05 32.1617C153.05 32.1617 154.132 32.306 153.915 31.2962C153.771 30.5029 154.564 31.8732 154.564 31.8732V32.883L153.05 32.1617Z" fill="white"/>
<path d="M47.1715 43.2685L48.1813 39.8787H48.8304L49.8401 43.2685L50.7777 39.8787H51.3547L50.1286 44.134H49.5516L48.5419 40.7441L47.5322 44.134H46.9552L45.7291 39.8787H46.3782L47.1715 43.2685Z" fill="white"/>
<path d="M52.725 39.8787H53.302V41.6818H55.4657V39.8787H56.0427V44.134H55.4657V42.1866H53.302V44.134H52.725V39.8787Z" fill="white"/>
<path d="M59.5 44.1341H58.923V42.331L57.3363 39.9509H58.0575L59.2836 41.8983L60.5098 39.9509H61.1589L59.5721 42.331L59.5 44.1341Z" fill="white"/>
<path d="M64.4035 39.8787H65.846C66.1345 39.8787 66.423 39.9508 66.6393 40.0229C66.9278 40.095 67.1442 40.2393 67.3606 40.3835C67.577 40.5278 67.7933 40.8163 67.8654 41.0326C68.0097 41.3211 68.0818 41.6818 68.0818 41.9703C68.0818 42.3309 68.0097 42.6194 67.8654 42.9079C67.7212 43.1964 67.577 43.4127 67.3606 43.557C67.1442 43.7012 66.8557 43.8455 66.6393 43.9176C66.3508 43.9897 66.1345 44.0618 65.846 44.0618H64.4035V39.8787ZM64.9805 43.6291H65.7017C65.9181 43.6291 66.2066 43.6291 66.423 43.557C66.6393 43.4849 66.8557 43.4127 67 43.2685C67.1442 43.1242 67.2885 42.98 67.3606 42.7636C67.4327 42.5472 67.5048 42.3309 67.5048 42.1145C67.5048 41.8981 67.4327 41.6096 67.3606 41.3933C67.2885 41.1769 67.1442 41.0326 67 40.8884C66.8557 40.7441 66.6393 40.672 66.423 40.5999C66.2066 40.5278 65.9902 40.5278 65.7017 40.5278H64.9805V43.6291Z" fill="white"/>
<path d="M74.0019 41.9704C74.0019 42.2589 73.9298 42.6195 73.8576 42.8359C73.7855 43.1244 73.5691 43.3408 73.4249 43.5571C73.2085 43.7735 72.9921 43.9178 72.7036 43.9899C72.1267 44.2063 71.4775 44.2063 70.9006 43.9899C70.6121 43.9178 70.3957 43.7014 70.1793 43.5571C69.9629 43.3408 69.8187 43.1244 69.7466 42.8359C69.5302 42.2589 69.5302 41.6098 69.7466 41.0328C69.8187 40.7443 70.0351 40.5279 70.1793 40.3116C70.3957 40.0952 70.6121 39.951 70.9006 39.8788C71.4775 39.6625 72.1267 39.6625 72.7036 39.8788C72.9921 39.951 73.2085 40.1673 73.4249 40.3116C73.6413 40.5279 73.7855 40.7443 73.8576 41.0328C73.9298 41.3934 74.0019 41.6819 74.0019 41.9704ZM73.3528 41.9704C73.3528 41.7541 73.3528 41.5377 73.2085 41.3213C73.1364 41.1049 72.9921 40.9607 72.92 40.8164C72.7758 40.6722 72.6315 40.5279 72.4152 40.4558C71.9824 40.3116 71.4775 40.3116 71.1169 40.4558C70.9006 40.5279 70.6842 40.6001 70.6121 40.8164C70.4678 40.9607 70.3957 41.1771 70.3236 41.3213C70.2514 41.5377 70.1793 41.7541 70.1793 41.9704C70.1793 42.1868 70.2514 42.4032 70.3236 42.6195C70.3957 42.8359 70.5399 42.9802 70.6121 43.1244C70.7563 43.2687 70.9006 43.4129 71.1169 43.485C71.3333 43.5572 71.5497 43.6293 71.766 43.6293C71.9824 43.6293 72.1988 43.5572 72.4152 43.485C72.6315 43.4129 72.7758 43.2687 72.92 43.1244C73.0643 42.9802 73.1364 42.7638 73.2085 42.6195C73.3528 42.4753 73.3528 42.1868 73.3528 41.9704Z" fill="white"/>
<path d="M82.0775 41.9704C82.0775 42.2589 82.0054 42.6195 81.9333 42.8359C81.8611 43.1244 81.6448 43.3408 81.5005 43.5571C81.2841 43.7735 81.0678 43.9178 80.7793 43.9899C80.2023 44.2063 79.5532 44.2063 78.9762 43.9899C78.6877 43.9178 78.4713 43.7014 78.2549 43.5571C78.0386 43.3408 77.8943 43.1244 77.8222 42.8359C77.6058 42.2589 77.6058 41.6098 77.8222 41.0328C77.8943 40.7443 78.1107 40.5279 78.2549 40.3116C78.4713 40.0952 78.6877 39.951 78.9762 39.8788C79.5532 39.6625 80.2023 39.6625 80.7793 39.8788C81.0678 39.951 81.2841 40.1673 81.5005 40.3116C81.7169 40.5279 81.8611 40.7443 81.9333 41.0328C82.0054 41.3934 82.0775 41.6819 82.0775 41.9704ZM81.4284 41.9704C81.4284 41.7541 81.4284 41.5377 81.2841 41.3213C81.212 41.1049 81.0678 40.9607 80.9956 40.8164C80.8514 40.6722 80.7071 40.5279 80.4908 40.4558C80.058 40.3116 79.5532 40.3116 79.1925 40.4558C78.9762 40.5279 78.8319 40.6722 78.6877 40.8164C78.5434 40.9607 78.4713 41.1771 78.3992 41.3213C78.3271 41.5377 78.2549 41.7541 78.2549 41.9704C78.2549 42.1868 78.3271 42.4032 78.3992 42.6195C78.4713 42.8359 78.6156 42.9802 78.6877 43.1244C78.8319 43.2687 78.9762 43.4129 79.1925 43.485C79.4089 43.5572 79.6253 43.6293 79.8417 43.6293C80.058 43.6293 80.2744 43.5572 80.4908 43.485C80.7071 43.4129 80.8514 43.2687 80.9956 43.1244C81.1399 42.9802 81.212 42.7638 81.2841 42.6195C81.4284 42.4753 81.4284 42.1868 81.4284 41.9704Z" fill="white"/>
<path d="M84.2403 44.134H83.6633V39.8787H85.0336C85.25 39.8787 85.4664 39.8787 85.6106 39.9508C85.7549 39.9508 85.9712 40.0229 86.1155 40.1672C86.2597 40.2393 86.404 40.3835 86.4761 40.5278C86.5482 40.672 86.6203 40.8884 86.6203 41.1048C86.6203 41.3933 86.4761 41.6818 86.2597 41.8981C86.0434 42.1145 85.827 42.2587 85.5385 42.2587L86.7646 44.2061H86.0434L84.9615 42.3309H84.3124L84.2403 44.134ZM84.2403 41.7539H84.8894C85.0336 41.7539 85.1779 41.7539 85.25 41.7539C85.3942 41.7539 85.4664 41.6818 85.5385 41.6096C85.6106 41.5375 85.6827 41.4654 85.7549 41.3933C85.827 41.3211 85.827 41.1769 85.827 41.1048C85.827 40.9605 85.827 40.8884 85.7549 40.8163C85.6827 40.7441 85.6106 40.672 85.5385 40.5999C85.4664 40.5278 85.3221 40.5278 85.25 40.4557C85.1057 40.4557 85.0336 40.4557 84.8894 40.4557H84.1681L84.2403 41.7539Z" fill="white"/>
<path d="M88.061 39.8787H89.5035C89.7919 39.8787 90.0804 39.9508 90.2968 40.0229C90.5853 40.095 90.8017 40.2393 91.0181 40.3835C91.2344 40.5278 91.4508 40.8163 91.5229 41.0326C91.6672 41.3211 91.7393 41.6818 91.7393 41.9703C91.7393 42.3309 91.6672 42.6194 91.5229 42.9079C91.3787 43.1964 91.2344 43.4127 91.0181 43.557C90.8017 43.7012 90.5132 43.8455 90.2968 43.9176C90.0083 43.9897 89.7919 44.0618 89.5035 44.0618H88.061V39.8787ZM88.638 43.6291H89.3592C89.5756 43.6291 89.8641 43.6291 90.0804 43.557C90.2968 43.4849 90.5132 43.4127 90.6574 43.2685C90.8017 43.1242 90.9459 42.98 91.0181 42.7636C91.0902 42.5472 91.1623 42.3309 91.1623 42.1145C91.1623 41.8981 91.0902 41.6096 91.0181 41.3933C90.9459 41.1769 90.8017 41.0326 90.6574 40.8884C90.5132 40.7441 90.2968 40.672 90.0804 40.5999C89.8641 40.5278 89.6477 40.5278 89.3592 40.5278H88.638V43.6291Z" fill="white"/>
<path d="M93.9769 44.134H93.3999V39.8787H93.9769V44.134Z" fill="white"/>
<path d="M98.7378 43.2685V39.8787H99.3148V44.134H98.5935L96.3577 40.5999V44.0618H95.7807V39.8787H96.5741L98.7378 43.2685Z" fill="white"/>
<path d="M101.338 44.134H100.689L102.564 39.8787H103.069L104.872 44.134H104.223L103.79 43.1242H101.77L101.338 44.134ZM101.915 42.5472H103.501L102.708 40.5278L101.915 42.5472Z" fill="white"/>
<path d="M106.743 44.134H106.166V39.8787H107.464C107.681 39.8787 107.897 39.8787 108.041 39.9508C108.185 39.9508 108.402 40.0229 108.546 40.1672C108.69 40.2393 108.835 40.3835 108.907 40.5278C108.979 40.672 109.051 40.8884 109.051 41.1048C109.051 41.3933 108.979 41.6818 108.762 41.826C108.546 42.0424 108.33 42.1866 108.041 42.1866L109.267 44.134H108.546L107.464 42.2588H106.743V44.134ZM106.743 41.7539H107.392C107.536 41.7539 107.681 41.7539 107.753 41.7539C107.897 41.7539 107.969 41.6818 108.041 41.6096C108.113 41.5375 108.185 41.4654 108.258 41.3933C108.33 41.3211 108.33 41.1769 108.33 41.1048C108.33 40.9605 108.33 40.8884 108.258 40.8163C108.185 40.7441 108.113 40.672 108.041 40.5999C107.969 40.5278 107.825 40.5278 107.753 40.4557C107.608 40.4557 107.536 40.4557 107.392 40.4557H106.671L106.743 41.7539Z" fill="white"/>
<path d="M112.15 44.134H111.573V42.3309L109.986 39.8787H110.708L111.934 41.826L113.16 39.8787H113.809L112.222 42.2588L112.15 44.134Z" fill="white"/>
<path d="M116.263 42.908H115.686V42.6195C115.686 42.5473 115.686 42.4031 115.686 42.331C115.686 42.2589 115.758 42.1867 115.758 42.1146C115.831 42.0425 115.831 41.9704 115.903 41.8982C115.975 41.8261 116.047 41.754 116.119 41.6819L116.335 41.4655C116.408 41.3934 116.48 41.3212 116.552 41.2491C116.624 41.177 116.624 41.0327 116.624 40.8885C116.624 40.7443 116.552 40.5279 116.408 40.4558C116.263 40.3115 116.119 40.3115 115.975 40.3115C115.758 40.3115 115.614 40.3836 115.47 40.5279C115.326 40.6721 115.254 40.8164 115.254 40.9606L114.677 40.8885C114.677 40.7443 114.749 40.6 114.821 40.4558C114.893 40.3115 114.965 40.2394 115.109 40.0951C115.254 40.023 115.326 39.9509 115.47 39.8788C115.614 39.8066 115.758 39.8066 115.975 39.8066C116.119 39.8066 116.263 39.8066 116.408 39.8788C116.552 39.9509 116.696 40.023 116.768 40.0951C116.912 40.1673 116.985 40.3115 117.057 40.4558C117.129 40.6 117.129 40.7443 117.129 40.9606C117.129 41.1049 117.129 41.177 117.057 41.3212C117.057 41.3934 116.985 41.4655 116.912 41.6097C116.84 41.6819 116.768 41.754 116.768 41.8261L116.552 42.0425C116.48 42.1146 116.408 42.1867 116.335 42.1867C116.263 42.2589 116.263 42.2589 116.191 42.331C116.191 42.4031 116.119 42.4752 116.119 42.5473C116.119 42.6195 116.119 42.6916 116.119 42.7637L116.263 42.908ZM116.48 43.7735C116.48 43.9898 116.263 44.2062 116.047 44.2062C115.975 44.2062 115.831 44.1341 115.758 44.0619C115.686 43.9898 115.614 43.9177 115.614 43.7735C115.614 43.7013 115.686 43.5571 115.758 43.485C115.903 43.3407 116.191 43.3407 116.335 43.485C116.408 43.5571 116.48 43.6292 116.48 43.7735Z" fill="white"/>
</g>
<path d="M194.811 9.34946V12H193.99V4.98733H195.916C196.666 4.98733 197.247 5.1699 197.657 5.53504C198.071 5.90018 198.278 6.41529 198.278 7.08037C198.278 7.74545 198.049 8.2899 197.589 8.71373C197.133 9.13755 196.515 9.34946 195.736 9.34946H194.811ZM194.811 5.73065V8.60614H195.672C196.239 8.60614 196.671 8.47736 196.968 8.21981C197.268 7.95899 197.418 7.59222 197.418 7.11949C197.418 6.1936 196.87 5.73065 195.775 5.73065H194.811ZM201.418 12.1174C200.678 12.1174 200.086 11.8843 199.643 11.4181C199.203 10.9486 198.982 10.3275 198.982 9.55486C198.982 8.71373 199.212 8.0568 199.672 7.58407C200.132 7.11134 200.753 6.87498 201.535 6.87498C202.282 6.87498 202.864 7.10482 203.281 7.56451C203.702 8.0242 203.912 8.66156 203.912 9.47661C203.912 10.2754 203.685 10.916 203.232 11.3985C202.782 11.8777 202.177 12.1174 201.418 12.1174ZM201.477 7.54984C200.961 7.54984 200.554 7.72589 200.254 8.07799C199.954 8.42683 199.804 8.90934 199.804 9.52551C199.804 10.1189 199.956 10.5867 200.259 10.929C200.562 11.2713 200.968 11.4425 201.477 11.4425C201.995 11.4425 202.393 11.2746 202.67 10.9388C202.95 10.603 203.09 10.1254 203.09 9.50595C203.09 8.88 202.95 8.39749 202.67 8.05843C202.393 7.71937 201.995 7.54984 201.477 7.54984ZM211.702 6.99234L210.201 12H209.369L208.337 8.41542C208.298 8.27849 208.272 8.12363 208.259 7.95084H208.24C208.23 8.06821 208.196 8.21981 208.137 8.40564L207.017 12H206.215L204.699 6.99234H205.54L206.577 10.7579C206.61 10.872 206.632 11.0219 206.645 11.2078H206.684C206.694 11.0643 206.724 10.9111 206.773 10.7481L207.927 6.99234H208.66L209.697 10.7676C209.73 10.8883 209.754 11.0382 209.77 11.2176H209.809C209.816 11.0904 209.844 10.9404 209.893 10.7676L210.91 6.99234H211.702ZM216.856 9.69667H213.32C213.333 10.2542 213.483 10.6845 213.77 10.9877C214.057 11.2909 214.452 11.4425 214.954 11.4425C215.518 11.4425 216.036 11.2567 216.509 10.885V11.6381C216.069 11.9576 215.487 12.1174 214.763 12.1174C214.056 12.1174 213.5 11.8908 213.095 11.4376C212.691 10.9812 212.489 10.3406 212.489 9.51573C212.489 8.73655 212.709 8.10244 213.149 7.61341C213.593 7.12112 214.142 6.87498 214.797 6.87498C215.453 6.87498 215.96 7.08689 216.318 7.51071C216.677 7.93454 216.856 8.523 216.856 9.27611V9.69667ZM216.035 9.01692C216.031 8.55398 215.919 8.19373 215.697 7.93617C215.479 7.67861 215.174 7.54984 214.783 7.54984C214.404 7.54984 214.083 7.68514 213.819 7.95573C213.555 8.22633 213.392 8.58006 213.33 9.01692H216.035ZM220.885 7.80413C220.745 7.69655 220.543 7.64275 220.279 7.64275C219.937 7.64275 219.65 7.80413 219.418 8.12689C219.19 8.44965 219.076 8.88978 219.076 9.44727V12H218.274V6.99234H219.076V8.0242H219.096C219.21 7.67209 219.384 7.39824 219.619 7.20263C219.854 7.00376 220.116 6.90432 220.406 6.90432C220.615 6.90432 220.775 6.92714 220.885 6.97278V7.80413ZM225.981 9.69667H222.445C222.458 10.2542 222.608 10.6845 222.895 10.9877C223.182 11.2909 223.577 11.4425 224.079 11.4425C224.643 11.4425 225.161 11.2567 225.634 10.885V11.6381C225.194 11.9576 224.612 12.1174 223.888 12.1174C223.18 12.1174 222.625 11.8908 222.22 11.4376C221.816 10.9812 221.614 10.3406 221.614 9.51573C221.614 8.73655 221.834 8.10244 222.274 7.61341C222.718 7.12112 223.267 6.87498 223.922 6.87498C224.577 6.87498 225.084 7.08689 225.443 7.51071C225.802 7.93454 225.981 8.523 225.981 9.27611V9.69667ZM225.159 9.01692C225.156 8.55398 225.044 8.19373 224.822 7.93617C224.604 7.67861 224.299 7.54984 223.907 7.54984C223.529 7.54984 223.208 7.68514 222.944 7.95573C222.68 8.22633 222.517 8.58006 222.455 9.01692H225.159ZM231.673 12H230.871V11.1491H230.852C230.48 11.7946 229.906 12.1174 229.13 12.1174C228.501 12.1174 227.997 11.894 227.619 11.4474C227.244 10.9975 227.057 10.3862 227.057 9.61354C227.057 8.78545 227.265 8.122 227.683 7.62319C228.1 7.12438 228.656 6.87498 229.35 6.87498C230.038 6.87498 230.539 7.14557 230.852 7.68677H230.871V4.58632H231.673V12ZM230.871 9.7358V8.99736C230.871 8.5931 230.737 8.25078 230.47 7.9704C230.203 7.69003 229.864 7.54984 229.453 7.54984C228.964 7.54984 228.579 7.72915 228.299 8.08777C228.018 8.44639 227.878 8.94194 227.878 9.57442C227.878 10.1515 228.012 10.6079 228.279 10.9437C228.55 11.2762 228.912 11.4425 229.365 11.4425C229.812 11.4425 230.173 11.2811 230.451 10.9584C230.731 10.6356 230.871 10.2281 230.871 9.7358ZM237.267 11.2762H237.248V12H236.446V4.58632H237.248V7.8726H237.267C237.662 7.20752 238.239 6.87498 238.998 6.87498C239.641 6.87498 240.143 7.09993 240.505 7.54984C240.87 7.99648 241.052 8.59636 241.052 9.34946C241.052 10.1873 240.848 10.8589 240.441 11.3643C240.033 11.8663 239.476 12.1174 238.768 12.1174C238.107 12.1174 237.606 11.837 237.267 11.2762ZM237.248 9.25655V9.95586C237.248 10.3699 237.381 10.722 237.649 11.0122C237.919 11.2991 238.262 11.4425 238.676 11.4425C239.161 11.4425 239.541 11.2567 239.815 10.885C240.092 10.5134 240.231 9.99661 240.231 9.33479C240.231 8.7773 240.102 8.34043 239.844 8.0242C239.587 7.70796 239.238 7.54984 238.798 7.54984C238.332 7.54984 237.957 7.71285 237.673 8.03887C237.389 8.36163 237.248 8.76752 237.248 9.25655ZM246.519 6.99234L244.216 12.802C243.805 13.8387 243.228 14.3571 242.485 14.3571C242.276 14.3571 242.102 14.3359 241.962 14.2935V13.5747C242.134 13.6334 242.293 13.6627 242.436 13.6627C242.84 13.6627 243.143 13.4214 243.346 12.9389L243.747 11.9902L241.79 6.99234H242.681L244.035 10.8459C244.051 10.8948 244.086 11.0219 244.138 11.2273H244.167C244.183 11.1491 244.216 11.0252 244.265 10.8557L245.688 6.99234H246.519Z" fill="white" fill-opacity="0.8"/>
<g clip-path="url(#clip1_512_268)">
<path d="M240.76 20.6458H237.29C233.871 20.7705 230.824 22.9539 228.983 25.7158C228.525 26.2092 228.794 26.867 229.171 27.3094C230.315 28.869 231.538 30.3661 232.596 31.9881C233.282 30.23 234.162 28.3529 235.958 27.4738C239.062 26.1071 243.213 27.3944 244.659 30.5306C246.18 33.491 244.745 37.5062 241.669 38.8275C238.993 39.8767 235.666 39.1281 233.905 36.8086C229.943 31.818 226.25 26.6232 222.385 21.5531C220.973 21.3206 219.561 21.0654 218.143 20.8442C217.863 22.3244 217.566 23.8046 217.268 25.2791C220.699 30.0939 224.203 34.8577 227.725 39.6045C230.126 42.8427 233.619 45.7237 237.901 45.5989H239.051C245.431 45.6103 251.154 40.0298 251.262 33.7065C251.771 27.5759 247.186 21.0881 240.76 20.6458Z" fill="#598CFF"/>
<path d="M207.047 20.6455H204.417C199.607 20.9064 195.351 24.4401 193.737 28.87C192.065 33.9805 193.566 40.2255 198.067 43.4359C199.836 44.8028 202.021 45.4891 204.24 45.6026H206.396C210.23 45.5685 213.841 43.1012 215.593 39.8114C214.771 37.7411 212.849 36.1699 211.73 34.2017C211.074 35.7899 210.31 37.4632 208.792 38.4104C205.472 40.4807 200.44 38.5976 199.351 34.8427C198.352 31.8365 200.035 28.1894 203.093 27.1684C205.849 26.0907 209.061 27.435 210.726 29.7435C214.549 34.6782 218.303 39.6696 221.971 44.7234C222.279 43.4132 222.541 42.0916 222.77 40.7643C224.219 40.7757 225.662 40.8267 227.105 40.8721C224.373 37.0945 221.594 33.3509 218.839 29.5904C215.946 25.6029 212.552 20.7136 207.047 20.6455Z" fill="white"/>
</g>
<path d="M257.256 30.9985L260.56 23.587H262.254L265.568 30.9985H263.768L261.057 24.4552H261.735L259.014 30.9985H257.256ZM258.908 29.4104L259.363 28.1081H263.175L263.641 29.4104H258.908ZM268.71 31.0832C268.039 31.0832 267.517 30.9138 267.143 30.575C266.768 30.2292 266.581 29.7174 266.581 29.0398V24.0423H268.233V29.0186C268.233 29.2586 268.297 29.4457 268.424 29.5798C268.551 29.7068 268.724 29.7703 268.943 29.7703C269.204 29.7703 269.426 29.6998 269.61 29.5586L270.054 30.7233C269.885 30.8432 269.68 30.935 269.44 30.9985C269.207 31.055 268.964 31.0832 268.71 31.0832ZM265.703 26.6999V25.4293H269.652V26.6999H265.703ZM273.728 31.0832C273.121 31.0832 272.581 30.9562 272.108 30.7021C271.642 30.448 271.272 30.1021 270.996 29.6645C270.728 29.2198 270.594 28.7151 270.594 28.1504C270.594 27.5787 270.728 27.074 270.996 26.6363C271.272 26.1917 271.642 25.8458 272.108 25.5987C272.581 25.3446 273.121 25.2176 273.728 25.2176C274.328 25.2176 274.864 25.3446 275.337 25.5987C275.81 25.8458 276.181 26.1881 276.449 26.6258C276.717 27.0634 276.851 27.5716 276.851 28.1504C276.851 28.7151 276.717 29.2198 276.449 29.6645C276.181 30.1021 275.81 30.448 275.337 30.7021C274.864 30.9562 274.328 31.0832 273.728 31.0832ZM273.728 29.728C274.003 29.728 274.25 29.6645 274.469 29.5374C274.688 29.4104 274.861 29.2304 274.988 28.9974C275.115 28.7574 275.178 28.4751 275.178 28.1504C275.178 27.8187 275.115 27.5363 274.988 27.3034C274.861 27.0704 274.688 26.8904 274.469 26.7634C274.25 26.6363 274.003 26.5728 273.728 26.5728C273.453 26.5728 273.206 26.6363 272.987 26.7634C272.768 26.8904 272.591 27.0704 272.457 27.3034C272.33 27.5363 272.267 27.8187 272.267 28.1504C272.267 28.4751 272.33 28.7574 272.457 28.9974C272.591 29.2304 272.768 29.4104 272.987 29.5374C273.206 29.6645 273.453 29.728 273.728 29.728ZM278.284 30.9985V23.587H281.905C282.836 23.587 283.535 23.7635 284.001 24.1164C284.474 24.4694 284.71 24.9352 284.71 25.514C284.71 25.9022 284.615 26.2411 284.425 26.5305C284.234 26.8128 283.973 27.0316 283.641 27.1869C283.309 27.3422 282.928 27.4198 282.498 27.4198L282.699 26.9857C283.165 26.9857 283.578 27.0634 283.937 27.2187C284.297 27.3669 284.576 27.5892 284.774 27.8857C284.979 28.1822 285.081 28.5457 285.081 28.9763C285.081 29.6115 284.83 30.1092 284.329 30.4691C283.828 30.8221 283.09 30.9985 282.116 30.9985H278.284ZM279.988 29.7068H281.989C282.434 29.7068 282.769 29.6362 282.995 29.4951C283.228 29.3468 283.345 29.1139 283.345 28.7963C283.345 28.4857 283.228 28.2563 282.995 28.1081C282.769 27.9528 282.434 27.8751 281.989 27.8751H279.861V26.6258H281.693C282.109 26.6258 282.427 26.5552 282.646 26.414C282.872 26.2658 282.985 26.0434 282.985 25.747C282.985 25.4576 282.872 25.2423 282.646 25.1011C282.427 24.9529 282.109 24.8788 281.693 24.8788H279.988V29.7068ZM259.766 42.9985V36.9846H257.394V35.587H263.853V36.9846H261.481V42.9985H259.766ZM264.747 42.9985V37.3023H266.324V38.9116L266.102 38.4458C266.271 38.0434 266.543 37.7399 266.917 37.5352C267.291 37.3234 267.746 37.2176 268.283 37.2176V38.7422C268.212 38.7352 268.149 38.7316 268.092 38.7316C268.036 38.7246 267.976 38.721 267.912 38.721C267.461 38.721 267.094 38.8516 266.811 39.1128C266.536 39.3669 266.398 39.7657 266.398 40.3092V42.9985H264.747ZM272.599 42.9985V41.8868L272.493 41.6433V39.6528C272.493 39.2998 272.383 39.0246 272.164 38.8269C271.953 38.6293 271.624 38.5305 271.18 38.5305C270.876 38.5305 270.576 38.5799 270.28 38.6787C269.99 38.7705 269.743 38.8975 269.539 39.0599L268.946 37.9058C269.256 37.687 269.63 37.5176 270.068 37.3976C270.506 37.2776 270.95 37.2176 271.402 37.2176C272.27 37.2176 272.944 37.4223 273.424 37.8317C273.904 38.2411 274.144 38.8799 274.144 39.7481V42.9985H272.599ZM270.862 43.0832C270.417 43.0832 270.036 43.0091 269.719 42.8609C269.401 42.7056 269.158 42.4974 268.988 42.2362C268.819 41.975 268.734 41.6821 268.734 41.3574C268.734 41.0186 268.815 40.7221 268.978 40.468C269.147 40.2139 269.412 40.0163 269.772 39.8751C270.132 39.7269 270.601 39.6528 271.18 39.6528H272.694V40.6163H271.36C270.972 40.6163 270.703 40.6798 270.555 40.8069C270.414 40.9339 270.343 41.0927 270.343 41.2833C270.343 41.4951 270.425 41.6645 270.587 41.7915C270.756 41.9115 270.986 41.9715 271.275 41.9715C271.55 41.9715 271.797 41.908 272.016 41.7809C272.235 41.6468 272.394 41.4527 272.493 41.1986L272.747 41.9609C272.627 42.328 272.408 42.6068 272.09 42.7974C271.773 42.9879 271.363 43.0832 270.862 43.0832ZM279.313 37.2176C279.765 37.2176 280.167 37.3093 280.52 37.4929C280.88 37.6693 281.163 37.9446 281.367 38.3187C281.572 38.6858 281.674 39.1587 281.674 39.7375V42.9985H280.023V39.9916C280.023 39.5328 279.92 39.194 279.716 38.9752C279.518 38.7563 279.236 38.6469 278.869 38.6469C278.607 38.6469 278.371 38.7034 278.159 38.8163C277.954 38.9222 277.792 39.0881 277.672 39.314C277.559 39.5398 277.503 39.8292 277.503 40.1822V42.9985H275.851V37.3023H277.429V38.8799L277.132 38.4034C277.337 38.0222 277.63 37.7293 278.011 37.5246C278.392 37.3199 278.826 37.2176 279.313 37.2176ZM285.3 43.0832C284.813 43.0832 284.343 43.0268 283.891 42.9138C283.447 42.7938 283.094 42.6456 282.833 42.4691L283.383 41.2833C283.644 41.4457 283.951 41.5798 284.304 41.6856C284.664 41.7845 285.017 41.8339 285.363 41.8339C285.744 41.8339 286.013 41.788 286.168 41.6962C286.33 41.6045 286.411 41.4774 286.411 41.3151C286.411 41.181 286.348 41.0821 286.221 41.0186C286.101 40.948 285.938 40.8951 285.734 40.8598C285.529 40.8245 285.303 40.7892 285.056 40.7539C284.816 40.7186 284.573 40.6727 284.326 40.6163C284.079 40.5527 283.853 40.461 283.648 40.341C283.443 40.221 283.277 40.0586 283.15 39.8539C283.03 39.6492 282.97 39.3845 282.97 39.0599C282.97 38.6999 283.073 38.3822 283.277 38.1069C283.489 37.8317 283.793 37.6164 284.188 37.4611C284.583 37.2987 285.056 37.2176 285.607 37.2176C285.995 37.2176 286.39 37.2599 286.793 37.3446C287.195 37.4293 287.53 37.5529 287.798 37.7152L287.248 38.8904C286.973 38.7281 286.694 38.6187 286.411 38.5622C286.136 38.4987 285.868 38.4669 285.607 38.4669C285.24 38.4669 284.971 38.5163 284.802 38.6152C284.633 38.714 284.548 38.841 284.548 38.9963C284.548 39.1375 284.608 39.2434 284.728 39.314C284.855 39.3845 285.021 39.441 285.226 39.4834C285.43 39.5257 285.653 39.5645 285.893 39.5998C286.14 39.6281 286.387 39.674 286.634 39.7375C286.881 39.801 287.103 39.8928 287.301 40.0128C287.505 40.1257 287.671 40.2845 287.798 40.4892C287.925 40.6869 287.989 40.948 287.989 41.2727C287.989 41.6256 287.883 41.9398 287.671 42.215C287.46 42.4833 287.153 42.695 286.75 42.8503C286.355 43.0056 285.871 43.0832 285.3 43.0832ZM289.421 42.9985V37.1752C289.421 36.5329 289.612 36.0211 289.993 35.64C290.374 35.2518 290.917 35.0576 291.623 35.0576C291.863 35.0576 292.093 35.0824 292.311 35.1318C292.537 35.1812 292.728 35.2588 292.883 35.3647L292.449 36.5611C292.357 36.4976 292.255 36.4482 292.142 36.4129C292.029 36.3776 291.909 36.36 291.782 36.36C291.542 36.36 291.355 36.4305 291.221 36.5717C291.094 36.7058 291.03 36.9105 291.03 37.1858V37.7152L291.073 38.4246V42.9985H289.421ZM288.542 38.6999V37.4293H292.491V38.6999H288.542ZM296.281 43.0832C295.631 43.0832 295.06 42.9562 294.565 42.7021C294.078 42.448 293.701 42.1021 293.433 41.6645C293.164 41.2198 293.03 40.7151 293.03 40.1504C293.03 39.5787 293.161 39.074 293.422 38.6363C293.69 38.1917 294.054 37.8458 294.513 37.5987C294.971 37.3446 295.49 37.2176 296.069 37.2176C296.627 37.2176 297.128 37.3376 297.572 37.5776C298.024 37.8105 298.381 38.1493 298.642 38.594C298.903 39.0316 299.034 39.5575 299.034 40.1716C299.034 40.2351 299.03 40.3092 299.023 40.3939C299.016 40.4716 299.009 40.5457 299.002 40.6163H294.375V39.6528H298.134L297.498 39.9386C297.498 39.6422 297.438 39.3845 297.318 39.1657C297.198 38.9469 297.032 38.7775 296.821 38.6575C296.609 38.5305 296.362 38.4669 296.08 38.4669C295.797 38.4669 295.547 38.5305 295.328 38.6575C295.116 38.7775 294.95 38.9504 294.83 39.1763C294.71 39.3951 294.65 39.6563 294.65 39.9598V40.2139C294.65 40.5245 294.717 40.7998 294.851 41.0398C294.992 41.2727 295.187 41.4527 295.434 41.5798C295.688 41.6998 295.984 41.7598 296.323 41.7598C296.627 41.7598 296.891 41.7139 297.117 41.6221C297.35 41.5304 297.562 41.3927 297.752 41.2092L298.631 42.1621C298.37 42.4586 298.042 42.688 297.647 42.8503C297.251 43.0056 296.796 43.0832 296.281 43.0832ZM300.345 42.9985V37.3023H301.923V38.9116L301.7 38.4458C301.87 38.0434 302.141 37.7399 302.515 37.5352C302.89 37.3234 303.345 37.2176 303.881 37.2176V38.7422C303.811 38.7352 303.747 38.7316 303.691 38.7316C303.634 38.7246 303.574 38.721 303.511 38.721C303.059 38.721 302.692 38.8516 302.41 39.1128C302.134 39.3669 301.997 39.7657 301.997 40.3092V42.9985H300.345Z" fill="white"/>
<rect opacity="0.4" x="178" width="1" height="52" rx="0.5" fill="#D9D9D9"/>
<defs>
<clipPath id="clip0_512_268">
<rect width="163" height="36.2062" fill="white" transform="translate(0 8)"/>
</clipPath>
<clipPath id="clip1_512_268">
<rect width="58.2332" height="30.251" fill="white" transform="matrix(-1 0 0 1 251.305 17.9985)"/>
</clipPath>
</defs>
</svg>
