<svg width="79" height="79" viewBox="0 0 79 79" fill="none" xmlns="http://www.w3.org/2000/svg">
<g filter="url(#filter0_d_365_7025)">
<circle cx="39.7902" cy="35.8057" r="34.6886" fill="#D60673"/>
<circle cx="39.7902" cy="35.8057" r="34.6886" fill="url(#paint0_linear_365_7025)"/>
<mask id="mask0_365_7025" style="mask-type:alpha" maskUnits="userSpaceOnUse" x="5" y="1" width="70" height="70">
<circle cx="39.7902" cy="35.8057" r="34.6886" fill="#598CFF"/>
</mask>
<g mask="url(#mask0_365_7025)">
<circle cx="38.3566" cy="34.3783" r="17.4034" fill="white"/>
<g clip-path="url(#clip0_365_7025)">
<g clip-path="url(#clip1_365_7025)">
<path d="M39.6174 24.7532C39.9803 24.8137 40.3432 24.862 40.7061 24.9346C44.2019 25.5999 47.1172 28.6059 47.7341 32.1078C48.5506 36.7529 45.6112 40.9322 41.3714 42.1781C39.4601 42.7406 37.5731 42.6559 35.7163 41.9301C35.5832 41.8757 35.5046 41.9059 35.3957 41.9785C33.8413 43.0128 32.2264 43.1156 30.5632 42.2628C30.164 42.0571 30.0309 41.6398 30.2547 41.2709C31.0894 39.8858 31.2164 38.4343 30.7265 36.898C30.5027 36.1843 30.2971 35.4464 30.17 34.7086C29.8979 33.1118 30.1519 31.5574 30.8233 30.0938C32.1115 27.2753 34.307 25.5515 37.3493 24.9044C37.6819 24.8318 38.0146 24.8016 38.3533 24.7532C38.7706 24.7532 39.194 24.7532 39.6174 24.7532ZM31.8635 41.3193C31.8515 41.3132 31.8817 41.3253 31.9059 41.3374C31.9482 41.3495 31.9906 41.3616 32.0389 41.3737C33.0974 41.5914 34.047 41.3556 34.8574 40.6358C35.1598 40.3697 35.4562 40.3153 35.8251 40.4846C37.1981 41.1197 38.6376 41.3072 40.1254 41.0592C44.081 40.3939 47.1232 36.65 46.3672 32.3316C45.7019 28.5333 42.0609 25.7451 38.2263 26.1745C35.6437 26.4588 33.6901 27.7591 32.3958 30.003C31.5914 31.3941 31.2587 32.9122 31.5188 34.509C31.6458 35.2831 31.8938 36.0452 32.1115 36.8012C32.3656 37.7085 32.4805 38.6218 32.3172 39.5532C32.2143 40.1399 32.0269 40.7144 31.8635 41.3193Z" fill="#D60673"/>
<path d="M39.6174 24.7532C39.9803 24.8137 40.3432 24.862 40.7061 24.9346C44.2019 25.5999 47.1172 28.6059 47.7341 32.1078C48.5506 36.7529 45.6112 40.9322 41.3714 42.1781C39.4601 42.7406 37.5731 42.6559 35.7163 41.9301C35.5832 41.8757 35.5046 41.9059 35.3957 41.9785C33.8413 43.0128 32.2264 43.1156 30.5632 42.2628C30.164 42.0571 30.0309 41.6398 30.2547 41.2709C31.0894 39.8858 31.2164 38.4343 30.7265 36.898C30.5027 36.1843 30.2971 35.4464 30.17 34.7086C29.8979 33.1118 30.1519 31.5574 30.8233 30.0938C32.1115 27.2753 34.307 25.5515 37.3493 24.9044C37.6819 24.8318 38.0146 24.8016 38.3533 24.7532C38.7706 24.7532 39.194 24.7532 39.6174 24.7532ZM31.8635 41.3193C31.8515 41.3132 31.8817 41.3253 31.9059 41.3374C31.9482 41.3495 31.9906 41.3616 32.0389 41.3737C33.0974 41.5914 34.047 41.3556 34.8574 40.6358C35.1598 40.3697 35.4562 40.3153 35.8251 40.4846C37.1981 41.1197 38.6376 41.3072 40.1254 41.0592C44.081 40.3939 47.1232 36.65 46.3672 32.3316C45.7019 28.5333 42.0609 25.7451 38.2263 26.1745C35.6437 26.4588 33.6901 27.7591 32.3958 30.003C31.5914 31.3941 31.2587 32.9122 31.5188 34.509C31.6458 35.2831 31.8938 36.0452 32.1115 36.8012C32.3656 37.7085 32.4805 38.6218 32.3172 39.5532C32.2143 40.1399 32.0269 40.7144 31.8635 41.3193Z" fill="url(#paint1_linear_365_7025)"/>
<path d="M34.9541 34.7684C34.3432 34.7745 33.8594 34.2906 33.8594 33.6858C33.8594 33.081 34.3493 32.5911 34.9481 32.5911C35.5408 32.5911 36.0307 33.0749 36.0367 33.6676C36.0428 34.2785 35.565 34.7624 34.9541 34.7684Z" fill="#D60673"/>
<path d="M34.9541 34.7684C34.3432 34.7745 33.8594 34.2906 33.8594 33.6858C33.8594 33.081 34.3493 32.5911 34.9481 32.5911C35.5408 32.5911 36.0307 33.0749 36.0367 33.6676C36.0428 34.2785 35.565 34.7624 34.9541 34.7684Z" fill="url(#paint2_linear_365_7025)"/>
<path d="M38.9655 34.769C38.3546 34.769 37.8768 34.2852 37.8829 33.6803C37.8889 33.0876 38.3667 32.6038 38.9595 32.5977C39.5522 32.5917 40.0542 33.0876 40.0602 33.6864C40.0663 34.2791 39.5703 34.769 38.9655 34.769Z" fill="#D60673"/>
<path d="M38.9655 34.769C38.3546 34.769 37.8768 34.2852 37.8829 33.6803C37.8889 33.0876 38.3667 32.6038 38.9595 32.5977C39.5522 32.5917 40.0542 33.0876 40.0602 33.6864C40.0663 34.2791 39.5703 34.769 38.9655 34.769Z" fill="url(#paint3_linear_365_7025)"/>
<path d="M42.9794 34.7685C42.3745 34.7685 41.8846 34.2785 41.8907 33.6798C41.8967 33.081 42.3987 32.585 42.9915 32.5971C43.5842 32.6032 44.062 33.087 44.062 33.6858C44.068 34.2906 43.5902 34.7685 42.9794 34.7685Z" fill="#D60673"/>
<path d="M42.9794 34.7685C42.3745 34.7685 41.8846 34.2785 41.8907 33.6798C41.8967 33.081 42.3987 32.585 42.9915 32.5971C43.5842 32.6032 44.062 33.087 44.062 33.6858C44.068 34.2906 43.5902 34.7685 42.9794 34.7685Z" fill="url(#paint4_linear_365_7025)"/>
</g>
</g>
<path d="M58.6164 33.6986H65.9688V45.0869H58.6164V33.6986Z" fill="#FFD1AB"/>
<path d="M67.8359 42.496L66.1098 41.5601L60.2217 43.4768L57.838 41.5601L56.7172 42.0243L54.5726 61.1616L58.6151 64.2539L67.8359 42.496Z" fill="#EA4C81"/>
<path d="M60.2224 43.4773L62.1875 46.1427L60.2224 47.7375L59.804 62.989L56.4866 65.9839L54.5738 55.4119L56.7555 54.0043L58.87 47.4979L57.7941 45.9106L60.2224 43.4773Z" fill="#474747"/>
<path d="M58.6164 33.6986V40.572C59.0455 40.669 59.4841 40.7167 59.924 40.7143C63.1145 40.7143 65.6848 38.3707 65.6848 35.4731V35.3309C65.7751 35.3929 65.8701 35.448 65.9688 35.4956V33.6986H58.6164Z" fill="#F4C095"/>
<path d="M65.0391 24.4286H54.5776V34.7238C54.5776 36.1138 55.1287 37.4469 56.1096 38.4298C57.0906 39.4127 58.4211 39.9649 59.8083 39.9649C61.1956 39.9649 62.5261 39.4127 63.507 38.4298C64.488 37.4469 65.0391 36.1138 65.0391 34.7238V24.4286Z" fill="#FFD0C0"/>
<path d="M64.7677 30.9509C64.7677 30.9509 64.9769 25.7097 58.2517 25.7097C51.5265 25.7097 50.3384 18.8438 55.8232 17.2864C61.3079 15.729 62.6754 20.506 65.3505 20.7156C70.0208 21.09 70.8951 24.8187 67.5325 30.5092L64.7677 30.9509Z" fill="#232323"/>
<path d="M66.4928 35.0684C65.1599 35.0684 64.0794 33.9857 64.0794 32.65C64.0794 31.3143 65.1599 30.2316 66.4928 30.2316C67.8257 30.2316 68.9062 31.3143 68.9062 32.65C68.9062 33.9857 67.8257 35.0684 66.4928 35.0684Z" fill="#FFD1AB"/>
<path d="M50.5618 80.4963L48.5965 90.4097C48.5965 90.4097 55.0752 97.5229 71.8212 91.3532C72.2965 87.6847 72.2965 83.9701 71.8212 80.3016C71.0141 74.7234 71.9557 65.701 73.6295 63.4548C75.3034 61.2085 78.4375 48.0898 78.4375 48.0898L70.9768 44.0547L67.8383 42.4898C67.8383 42.4898 61.8229 50.0447 58.7143 56.716L58.5574 57.0604C58.4453 57.3075 58.3407 57.5621 58.2286 57.8092C57.9285 58.5091 57.6641 59.2238 57.4365 59.9506C57.3767 60.1228 57.3319 60.2801 57.2871 60.4448C57.2871 60.4448 56.0018 47.7834 56.622 42.677C56.622 42.4523 56.6818 42.2352 56.7192 42.0405H56.5548C55.319 42.2612 54.1077 42.6022 52.9381 43.0588C52.0527 43.3912 51.2442 43.9007 50.5618 44.5563C48.7833 46.4282 42.342 64.488 42.058 67.9473C41.7741 71.4065 48.0062 79.0886 50.5618 80.4963Z" fill="#181818"/>
<path d="M54.9495 51.6986C54.7627 53.5704 53.328 54.5064 53.3952 55.315C53.4625 56.1236 57.0642 59.7475 57.3781 61.552C57.3781 61.552 62.7358 56.7151 64.1033 55.9215C65.4707 55.1278 63.8866 53.3159 64.1033 51.5713C64.2826 50.1187 69.334 45.5814 71.0078 44.0839L67.8694 42.519C67.8694 42.519 61.854 50.0738 58.7455 56.7451L58.5886 57.0895C58.4765 57.3366 58.3719 57.5912 58.2598 57.8383C57.9609 58.587 57.6919 59.2833 57.4677 59.9796C57.4677 59.6727 56.5785 50.246 56.6532 42.7137C56.6532 42.519 56.6532 42.3318 56.6532 42.1372L56.5785 42.0997C55.3427 42.3204 54.1314 42.6614 52.9618 43.118L52.79 43.5748C52.79 43.5748 55.1363 49.8267 54.9495 51.6986Z" fill="#202020"/>
<path d="M57.3791 61.5601C56.8485 64.1732 56.4824 66.8013 56.1985 69.4519C55.9145 72.1024 55.7203 74.7455 55.5783 77.3961C55.4363 80.0467 55.4139 82.7122 55.5111 85.3778C55.535 88.0529 55.8685 90.7163 56.5048 93.3145C56.4002 90.6564 56.5721 88.0283 56.6767 85.3852L57.0727 77.4635C57.1773 74.8204 57.3043 72.1773 57.3566 69.5267C57.4089 66.8762 57.4612 64.2256 57.3791 61.5601Z" fill="#202020"/>
<path d="M51.3038 52.6952C51.259 55.0837 51.2664 57.4423 51.3038 59.8008C51.3411 62.1594 51.3561 64.5179 51.3038 66.8615C51.3038 68.0371 51.3038 69.2126 51.2664 70.3881V72.1477C51.2291 72.7317 51.2141 73.3157 51.1992 73.9073C51.0946 76.2508 50.9451 78.5869 50.6836 80.9605C51.5116 78.7177 52.0758 76.3858 52.3648 74.0121C52.6644 71.6427 52.8191 69.2573 52.8281 66.869C52.8307 64.4886 52.7135 62.1095 52.4769 59.7409C52.2502 57.3678 51.8582 55.0135 51.3038 52.6952Z" fill="#202020"/>
</g>
</g>
<defs>
<filter id="filter0_d_365_7025" x="0.635244" y="0.223802" width="78.3098" height="78.31" filterUnits="userSpaceOnUse" color-interpolation-filters="sRGB">
<feFlood flood-opacity="0" result="BackgroundImageFix"/>
<feColorMatrix in="SourceAlpha" type="matrix" values="0 0 0 0 0 0 0 0 0 0 0 0 0 0 0 0 0 0 127 0" result="hardAlpha"/>
<feOffset dy="3.57305"/>
<feGaussianBlur stdDeviation="2.23316"/>
<feComposite in2="hardAlpha" operator="out"/>
<feColorMatrix type="matrix" values="0 0 0 0 0 0 0 0 0 0 0 0 0 0 0 0 0 0 0.04 0"/>
<feBlend mode="normal" in2="BackgroundImageFix" result="effect1_dropShadow_365_7025"/>
<feBlend mode="normal" in="SourceGraphic" in2="effect1_dropShadow_365_7025" result="shape"/>
</filter>
<linearGradient id="paint0_linear_365_7025" x1="20.851" y1="-170.158" x2="95.9726" y2="-163.25" gradientUnits="userSpaceOnUse">
<stop stop-color="#0172B1"/>
<stop offset="1" stop-color="#0CAFE0"/>
</linearGradient>
<linearGradient id="paint1_linear_365_7025" x1="34.1051" y1="-19.8882" x2="53.3925" y2="-18.1415" gradientUnits="userSpaceOnUse">
<stop stop-color="#0172B1"/>
<stop offset="1" stop-color="#0CAFE0"/>
</linearGradient>
<linearGradient id="paint2_linear_365_7025" x1="34.3537" y1="27.2156" x2="36.7114" y2="27.4324" gradientUnits="userSpaceOnUse">
<stop stop-color="#0172B1"/>
<stop offset="1" stop-color="#0CAFE0"/>
</linearGradient>
<linearGradient id="paint3_linear_365_7025" x1="38.3771" y1="27.2371" x2="40.7348" y2="27.4545" gradientUnits="userSpaceOnUse">
<stop stop-color="#0172B1"/>
<stop offset="1" stop-color="#0CAFE0"/>
</linearGradient>
<linearGradient id="paint4_linear_365_7025" x1="42.3836" y1="27.236" x2="44.7348" y2="27.4522" gradientUnits="userSpaceOnUse">
<stop stop-color="#0172B1"/>
<stop offset="1" stop-color="#0CAFE0"/>
</linearGradient>
<clipPath id="clip0_365_7025">
<rect width="18.9856" height="18.9856" fill="white" transform="translate(29.3906 24.3579)"/>
</clipPath>
<clipPath id="clip1_365_7025">
<rect width="18.9856" height="18.9856" fill="white" transform="translate(29.3906 24.3584)"/>
</clipPath>
</defs>
</svg>
