<svg width="79" height="79" viewBox="0 0 79 79" fill="none" xmlns="http://www.w3.org/2000/svg">
<g filter="url(#filter0_d_365_6810)">
<circle cx="39.7902" cy="36.2236" r="34.6886" fill="#D60673"/>
<circle cx="39.7902" cy="36.2236" r="34.6886" fill="url(#paint0_linear_365_6810)"/>
<mask id="mask0_365_6810" style="mask-type:alpha" maskUnits="userSpaceOnUse" x="5" y="1" width="70" height="70">
<circle cx="39.7902" cy="36.2236" r="34.6886" fill="#598CFF"/>
</mask>
<g mask="url(#mask0_365_6810)">
<path d="M18.0391 46.6636L20.4105 48.2279L36.3066 41.8857L30.5312 38.2998L18.0391 46.6636Z" fill="#A5B6DD"/>
<path d="M30.8453 41.6912C30.6205 42.0424 30.2769 42.3008 29.8773 42.419C29.4777 42.5372 29.0489 42.5073 28.6696 42.3347L25.5781 40.9249L27.9516 37.222L30.5229 39.4457C30.8373 39.7187 31.043 40.0959 31.1022 40.5083C31.1614 40.9207 31.0702 41.3406 30.8453 41.6912Z" fill="#E5E7EC"/>
<path d="M27.9011 39.8027C28.5558 38.7797 28.5767 37.6233 27.9476 37.2198C27.3185 36.8162 26.2778 37.3184 25.623 38.3414C24.9683 39.3643 24.9475 40.5207 25.5765 40.9243C26.2056 41.3278 27.2464 40.8257 27.9011 39.8027Z" fill="#A5B6DD"/>
<path d="M59.5833 36.8965C59.3361 38.8172 57.8527 46.1435 57.8527 46.1435H53.6992L51.6719 42.0843C51.6719 42.0843 54.969 38.9598 56.7154 36.0847C57.3305 35.0709 57.9021 34.6353 58.365 34.5798C58.8871 34.5145 59.2827 34.9244 59.4785 35.5342C59.6112 35.9754 59.647 36.4402 59.5833 36.8965Z" fill="#E5E7EC"/>
<path d="M59.4706 35.5342C59.4706 35.5342 57.4987 43.2209 53.7902 43.2209C53.2145 43.2283 52.6417 43.1366 52.0971 42.9496L51.6719 42.0843C51.6719 42.0843 54.969 38.9598 56.7154 36.0847C57.3305 35.0709 57.9021 34.6353 58.365 34.5798L59.4706 35.5342Z" fill="white"/>
<path d="M58.4975 35.9756C58.4483 36.8776 58.3158 37.7731 58.1019 38.6507C57.5501 40.902 55.8827 43.484 54.1106 43.783C53.4599 43.8919 52.8902 43.6801 52.4175 43.5118L51.9844 42.6445C51.9844 42.6445 55.2815 39.5199 57.0279 36.6449C57.643 35.6311 58.2146 35.1955 58.6775 35.14L58.4975 35.9756Z" fill="#A5B6DD"/>
<path d="M58.4866 48.6013C54.4616 48.6191 48.6645 45.7658 36.206 40.0434C20.9745 33.0478 15.3712 28.9629 16.9535 26.5868C17.0436 26.4459 17.1462 26.3134 17.26 26.1908C18.9471 24.4088 22.0306 25.9176 22.0306 25.9176L55.4802 44.1343C58.7991 46.1322 58.7397 47.8449 58.4866 48.6013Z" fill="white"/>
<path d="M55.625 37.6528C55.625 37.6528 56.8117 36.6627 57.8205 37.0587C58.8292 37.4548 57.4763 40.3537 57.4763 40.3537L57.9827 41.2665L59.7133 35.2034L56.3509 36.5399L55.625 37.6528Z" fill="#97ADDB"/>
<path d="M57.531 48.6038L57.4321 48.8771C53.4071 48.8949 48.5317 46.2891 36.0712 40.5608C20.8416 33.5632 15.2384 29.4723 16.8206 27.0962C16.9108 26.9553 17.0134 26.8228 17.1272 26.7002C18.8143 24.9182 21.8978 26.427 21.8978 26.427L55.3474 44.6437C58.6722 46.6534 57.7841 47.8474 57.531 48.6038Z" fill="#A5B6DD"/>
<path d="M20.0757 27.7029C20.3764 27.7029 20.6202 27.4589 20.6202 27.1578C20.6202 26.8567 20.3764 26.6127 20.0757 26.6127C19.775 26.6127 19.5312 26.8567 19.5312 27.1578C19.5312 27.4589 19.775 27.7029 20.0757 27.7029Z" fill="white"/>
<path d="M21.9351 28.6917C22.2358 28.6917 22.4796 28.4476 22.4796 28.1466C22.4796 27.8455 22.2358 27.6014 21.9351 27.6014C21.6344 27.6014 21.3906 27.8455 21.3906 28.1466C21.3906 28.4476 21.6344 28.6917 21.9351 28.6917Z" fill="white"/>
<path d="M23.7869 29.679C24.0876 29.679 24.3314 29.435 24.3314 29.1339C24.3314 28.8328 24.0876 28.5887 23.7869 28.5887C23.4862 28.5887 23.2424 28.8328 23.2424 29.1339C23.2424 29.435 23.4862 29.679 23.7869 29.679Z" fill="white"/>
<path d="M25.6382 30.6675C25.9389 30.6675 26.1827 30.4235 26.1827 30.1224C26.1827 29.8213 25.9389 29.5773 25.6382 29.5773C25.3375 29.5773 25.0938 29.8213 25.0938 30.1224C25.0938 30.4235 25.3375 30.6675 25.6382 30.6675Z" fill="white"/>
<path d="M27.4976 31.6556C27.7983 31.6556 28.0421 31.4115 28.0421 31.1104C28.0421 30.8094 27.7983 30.5653 27.4976 30.5653C27.1969 30.5653 26.9531 30.8094 26.9531 31.1104C26.9531 31.4115 27.1969 31.6556 27.4976 31.6556Z" fill="white"/>
<path d="M29.3492 32.6433C29.6499 32.6433 29.8937 32.3992 29.8937 32.0981C29.8937 31.797 29.6499 31.553 29.3492 31.553C29.0485 31.553 28.8047 31.797 28.8047 32.0981C28.8047 32.3992 29.0485 32.6433 29.3492 32.6433Z" fill="white"/>
<path d="M31.2007 33.634C31.5014 33.634 31.7452 33.3899 31.7452 33.0888C31.7452 32.7878 31.5014 32.5437 31.2007 32.5437C30.9 32.5437 30.6562 32.7878 30.6562 33.0888C30.6562 33.3899 30.9 33.634 31.2007 33.634Z" fill="white"/>
<path d="M33.0601 34.6213C33.3608 34.6213 33.6046 34.3772 33.6046 34.0761C33.6046 33.7751 33.3608 33.531 33.0601 33.531C32.7594 33.531 32.5156 33.7751 32.5156 34.0761C32.5156 34.3772 32.7594 34.6213 33.0601 34.6213Z" fill="white"/>
<path d="M34.9195 35.6097C35.2202 35.6097 35.464 35.3656 35.464 35.0645C35.464 34.7635 35.2202 34.5194 34.9195 34.5194C34.6188 34.5194 34.375 34.7635 34.375 35.0645C34.375 35.3656 34.6188 35.6097 34.9195 35.6097Z" fill="white"/>
<path d="M36.7789 36.5971C37.0796 36.5971 37.3233 36.353 37.3233 36.052C37.3233 35.7509 37.0796 35.5068 36.7789 35.5068C36.4782 35.5068 36.2344 35.7509 36.2344 36.052C36.2344 36.353 36.4782 36.5971 36.7789 36.5971Z" fill="white"/>
<path d="M38.6304 37.5859C38.9311 37.5859 39.1749 37.3418 39.1749 37.0407C39.1749 36.7397 38.9311 36.4956 38.6304 36.4956C38.3297 36.4956 38.0859 36.7397 38.0859 37.0407C38.0859 37.3418 38.3297 37.5859 38.6304 37.5859Z" fill="white"/>
<path d="M40.482 38.5732C40.7827 38.5732 41.0265 38.3291 41.0265 38.028C41.0265 37.727 40.7827 37.4829 40.482 37.4829C40.1813 37.4829 39.9375 37.727 39.9375 38.028C39.9375 38.3291 40.1813 38.5732 40.482 38.5732Z" fill="white"/>
<path d="M42.3414 39.5617C42.6421 39.5617 42.8858 39.3176 42.8858 39.0166C42.8858 38.7155 42.6421 38.4714 42.3414 38.4714C42.0407 38.4714 41.7969 38.7155 41.7969 39.0166C41.7969 39.3176 42.0407 39.5617 42.3414 39.5617Z" fill="white"/>
<path d="M44.2007 40.5508C44.5014 40.5508 44.7452 40.3068 44.7452 40.0057C44.7452 39.7046 44.5014 39.4606 44.2007 39.4606C43.9 39.4606 43.6562 39.7046 43.6562 40.0057C43.6562 40.3068 43.9 40.5508 44.2007 40.5508Z" fill="white"/>
<path d="M46.0523 41.5385C46.353 41.5385 46.5968 41.2944 46.5968 40.9934C46.5968 40.6923 46.353 40.4482 46.0523 40.4482C45.7516 40.4482 45.5078 40.6923 45.5078 40.9934C45.5078 41.2944 45.7516 41.5385 46.0523 41.5385Z" fill="white"/>
<path d="M47.9114 42.5289C48.2121 42.5289 48.4559 42.2848 48.4559 41.9837C48.4559 41.6827 48.2121 41.4386 47.9114 41.4386C47.6107 41.4386 47.3669 41.6827 47.3669 41.9837C47.3669 42.2848 47.6107 42.5289 47.9114 42.5289Z" fill="white"/>
<path d="M49.7632 43.5173C50.0639 43.5173 50.3077 43.2732 50.3077 42.9721C50.3077 42.6711 50.0639 42.427 49.7632 42.427C49.4625 42.427 49.2188 42.6711 49.2188 42.9721C49.2188 43.2732 49.4625 43.5173 49.7632 43.5173Z" fill="white"/>
<path d="M51.6226 44.5049C51.9233 44.5049 52.1671 44.2609 52.1671 43.9598C52.1671 43.6587 51.9233 43.4147 51.6226 43.4147C51.3219 43.4147 51.0781 43.6587 51.0781 43.9598C51.0781 44.2609 51.3219 44.5049 51.6226 44.5049Z" fill="white"/>
<path d="M47.7521 41.9694C47.7521 41.9694 46.4368 41.1773 46.0472 40.5556C45.6278 39.8863 46.1639 39.3933 47.135 39.5873L45.6219 38.7616L43.2188 39.5536L47.7521 41.9694Z" fill="#97ADDB"/>
<path d="M26.9231 39.2066C27.3671 38.5727 27.5255 37.9173 27.2769 37.7427C27.0283 37.5682 26.4668 37.9406 26.0227 38.5745C25.5787 39.2084 25.4203 39.8638 25.6689 40.0383C25.9175 40.2129 26.4791 39.8405 26.9231 39.2066Z" fill="white"/>
<path d="M50.3263 47.8025L47.5078 49.9905L49.0169 50.9805L55.6665 48.446L50.3263 47.8025Z" fill="#A5B6DD"/>
<path d="M58.4888 48.6013C58.4447 48.7257 58.372 48.8378 58.2764 48.9286C58.1809 49.0195 58.0652 49.0864 57.9389 49.1241C53.7419 50.4369 48.3463 47.6905 33.5321 40.885C18.3026 33.8894 12.6993 29.7966 14.2816 27.4205C15.0371 26.2859 16.2278 26.0839 17.2662 26.1829C17.9902 26.2621 18.6967 26.4573 19.3588 26.7611C19.3588 26.7611 50.6782 43.5422 51.3784 43.9046C52.0785 44.267 53.3068 44.7125 53.7518 44.1501C54.1968 43.5878 52.7451 42.6373 52.7451 42.6373L55.4824 44.1283C58.8013 46.1322 58.7419 47.8449 58.4888 48.6013Z" fill="#E5E7EC"/>
<path d="M69.872 33.5333L69.2233 33.6878L43.695 39.7904L41.3374 38.6419L41.2188 38.5825V34.0976L67.374 31.874L69.872 33.5333Z" fill="white"/>
<path d="M69.2296 33.6879L43.7014 39.7905L41.3438 38.642V34.7631L67.497 32.5375L69.2296 33.6879Z" fill="#A5B6DD"/>
<path d="M43.6883 37.8541C43.4315 38.2517 43.0409 38.544 42.5873 38.6781C42.1337 38.8121 41.6472 38.779 41.2159 38.5848L37.7031 36.9829L40.397 32.7771L43.3184 35.2998C43.675 35.6109 43.9083 36.0397 43.9762 36.5083C44.044 36.977 43.9419 37.4544 43.6883 37.8541Z" fill="#E5E7EC"/>
<path d="M40.3485 35.7073C41.0923 34.5453 41.1159 33.2317 40.4013 32.7733C39.6867 32.3149 38.5044 32.8852 37.7607 34.0473C37.017 35.2093 36.9934 36.5229 37.708 36.9813C38.4226 37.4397 39.6048 36.8693 40.3485 35.7073Z" fill="#A5B6DD"/>
<path d="M39.2377 34.9992C39.708 34.2644 39.8559 33.5191 39.568 33.3344C39.2802 33.1498 38.6656 33.5957 38.1953 34.3305C37.725 35.0652 37.5771 35.8106 37.865 35.9952C38.1528 36.1799 38.7675 35.734 39.2377 34.9992Z" fill="white"/>
<path d="M69.055 44.8042L59.1934 47.5763C58.6769 47.7216 58.1249 47.6694 57.6447 47.4298C57.5276 47.3753 57.4162 47.3089 57.3125 47.2318L55.303 45.7388C55.2253 45.6807 55.167 45.6006 55.1355 45.5088C55.104 45.417 55.1009 45.3179 55.1265 45.2243C55.1521 45.1307 55.2053 45.047 55.2791 44.9841C55.3529 44.9212 55.4439 44.882 55.5403 44.8716L67.3145 43.6617L67.8307 44.0003L69.055 44.8042Z" fill="white"/>
<path d="M69.0597 44.8048L59.1269 47.5769C58.6064 47.7222 58.0508 47.67 57.5664 47.4304L55.7289 46.0721C55.6499 46.0147 55.5903 45.9346 55.5581 45.8424C55.5259 45.7502 55.5226 45.6504 55.5486 45.5563C55.5746 45.4621 55.6288 45.3782 55.7038 45.3158C55.7788 45.2533 55.8711 45.2153 55.9682 45.2068L67.8354 43.9969L69.0597 44.8048Z" fill="#A5B6DD"/>
</g>
</g>
<defs>
<filter id="filter0_d_365_6810" x="0.635244" y="0.641649" width="78.3098" height="78.31" filterUnits="userSpaceOnUse" color-interpolation-filters="sRGB">
<feFlood flood-opacity="0" result="BackgroundImageFix"/>
<feColorMatrix in="SourceAlpha" type="matrix" values="0 0 0 0 0 0 0 0 0 0 0 0 0 0 0 0 0 0 127 0" result="hardAlpha"/>
<feOffset dy="3.57305"/>
<feGaussianBlur stdDeviation="2.23316"/>
<feComposite in2="hardAlpha" operator="out"/>
<feColorMatrix type="matrix" values="0 0 0 0 0 0 0 0 0 0 0 0 0 0 0 0 0 0 0.04 0"/>
<feBlend mode="normal" in2="BackgroundImageFix" result="effect1_dropShadow_365_6810"/>
<feBlend mode="normal" in="SourceGraphic" in2="effect1_dropShadow_365_6810" result="shape"/>
</filter>
<linearGradient id="paint0_linear_365_6810" x1="20.851" y1="-169.74" x2="95.9726" y2="-162.833" gradientUnits="userSpaceOnUse">
<stop stop-color="#0172B1"/>
<stop offset="1" stop-color="#0CAFE0"/>
</linearGradient>
</defs>
</svg>
