<svg width="65" height="65" viewBox="0 0 65 65" fill="none" xmlns="http://www.w3.org/2000/svg">
<rect width="65" height="65" rx="19.6877" fill="#0272B2" fill-opacity="0.05"/>
<mask id="mask0_456_4968" style="mask-type:alpha" maskUnits="userSpaceOnUse" x="15" y="16" width="37" height="37">
<path d="M34.5834 20.3919L34.5834 16.5569L38.8386 17.2619L47.5251 22.499L51.2515 29.423L50.7731 41.7604L42.9427 50.3966L34.5834 52.5116L28.4148 51.9828L19.8541 48.0802L16.7824 42.692L15.5234 35.6672V33.9299H18.8664H19.8541L34.5834 20.3919Z" fill="#D9D9D9"/>
</mask>
<g mask="url(#mask0_456_4968)">
<circle cx="33.2225" cy="34.8675" r="16.2053" stroke="#0272B2" stroke-width="2.08132"/>
</g>
<circle cx="34.5432" cy="18.7339" r="1.03541" fill="#0272B2"/>
<ellipse cx="17.0354" cy="33.9915" rx="1.03541" ry="1.05494" fill="#0272B2"/>
<path d="M41.8925 34.1218V35.1462L38.1715 43.7449H36.1623L39.8833 35.6089H35.0916V34.1218H41.8925Z" fill="#0272B2"/>
<path d="M23.2136 27.9844V29.4717H16.6298V28.2025L19.7432 24.8643C20.0561 24.5162 20.3029 24.2099 20.4835 23.9455C20.6642 23.6767 20.7942 23.4365 20.8735 23.225C20.9573 23.0091 20.9991 22.8042 20.9991 22.6103C20.9991 22.3194 20.9507 22.0704 20.8537 21.8633C20.7568 21.6518 20.6135 21.4887 20.4241 21.3741C20.239 21.2596 20.0098 21.2023 19.7366 21.2023C19.4457 21.2023 19.1945 21.2728 18.983 21.4138C18.7759 21.5548 18.6173 21.7509 18.5071 22.0021C18.4013 22.2533 18.3484 22.5375 18.3484 22.8548H16.4381C16.4381 22.2819 16.5747 21.7575 16.8479 21.2816C17.1211 20.8012 17.5067 20.4201 18.0047 20.138C18.5027 19.8516 19.0932 19.7084 19.7762 19.7084C20.4505 19.7084 21.019 19.8185 21.4817 20.0389C21.9488 20.2548 22.3014 20.5677 22.5393 20.9775C22.7817 21.383 22.9029 21.8677 22.9029 22.4318C22.9029 22.7491 22.8522 23.0597 22.7509 23.3638C22.6495 23.6635 22.5041 23.9631 22.3146 24.2628C22.1295 24.5581 21.9047 24.8577 21.6403 25.1618C21.3759 25.4659 21.0829 25.781 20.7612 26.1071L19.0888 27.9844H23.2136ZM31.1459 25.8757V27.3696H24.2117L24.1192 26.2128L28.1316 19.8472H29.6453L28.006 22.5904L26.0097 25.8757H31.1459ZM30.0552 19.8472V29.4717H28.1514V19.8472H30.0552Z" fill="#0272B2"/>
<rect x="38.5156" y="24.8499" width="2.07389" height="17.7981" rx="1.03694" transform="rotate(44.5212 38.5156 24.8499)" fill="#0272B2"/>
</svg>
