<svg width="79" height="79" viewBox="0 0 79 79" fill="none" xmlns="http://www.w3.org/2000/svg">
<g filter="url(#filter0_d_365_6855)">
<circle cx="39.673" cy="36.2238" r="34.6886" fill="#D60673"/>
<circle cx="39.673" cy="36.2238" r="34.6886" fill="url(#paint0_linear_365_6855)"/>
<mask id="mask0_365_6855" style="mask-type:alpha" maskUnits="userSpaceOnUse" x="4" y="1" width="71" height="70">
<circle cx="39.673" cy="36.2238" r="34.6886" fill="#598CFF"/>
</mask>
<g mask="url(#mask0_365_6855)">
<path d="M40.4133 54.2337C42.0959 54.0829 43.7785 53.9955 45.4611 53.9412C47.1437 53.8869 48.8263 53.8583 50.5089 53.8568C52.1915 53.8552 53.8741 53.8794 55.5582 53.9397C57.2422 54 58.9233 54.0769 60.6059 54.2337C58.9233 54.3845 57.2407 54.4719 55.5582 54.5277C53.8756 54.5835 52.1915 54.6106 50.5089 54.6106C48.8263 54.6106 47.1437 54.5865 45.4611 54.5262C43.7785 54.4659 42.0959 54.3845 40.4133 54.2337Z" fill="#B6184D"/>
<path d="M38.9682 46.487C53.6121 46.487 65.4833 46.2204 65.4833 45.8915C65.4833 45.5625 53.6121 45.2959 38.9682 45.2959C24.3243 45.2959 12.4531 45.5625 12.4531 45.8915C12.4531 46.2204 24.3243 46.487 38.9682 46.487Z" fill="#B6184D"/>
<path d="M17.889 45.7879C21.3227 45.7879 24.1062 43.4476 24.1062 40.5606C24.1062 37.6736 21.3227 35.3333 17.889 35.3333C14.4554 35.3333 11.6719 37.6736 11.6719 40.5606C11.6719 43.4476 14.4554 45.7879 17.889 45.7879Z" fill="black"/>
<path d="M58.6227 45.7879C62.0563 45.7879 64.8398 43.4476 64.8398 40.5606C64.8398 37.6736 62.0563 35.3333 58.6227 35.3333C55.189 35.3333 52.4055 37.6736 52.4055 40.5606C52.4055 43.4476 55.189 45.7879 58.6227 45.7879Z" fill="black"/>
<path d="M21.9694 40.9207C21.9694 40.9614 21.9694 41.0021 21.9694 41.0428C21.9313 42.2836 21.4125 43.4607 20.5229 44.3249C19.6334 45.1891 18.4429 45.6723 17.2038 45.6723C15.9647 45.6723 14.7743 45.1891 13.8847 44.3249C12.9952 43.4607 12.4764 42.2836 12.4383 41.0428C12.4383 41.0021 12.4383 40.9629 12.4383 40.9222C12.427 40.2879 12.542 39.6577 12.7765 39.0684C13.011 38.4791 13.3604 37.9425 13.8042 37.4899C14.2479 37.0374 14.7773 36.6779 15.3612 36.4325C15.9452 36.1872 16.5721 36.0608 17.2053 36.0608C17.8386 36.0608 18.4655 36.1872 19.0495 36.4325C19.6334 36.6779 20.1628 37.0374 20.6065 37.4899C21.0503 37.9425 21.3997 38.4791 21.6342 39.0684C21.8687 39.6577 21.9837 40.2879 21.9724 40.9222L21.9694 40.9207Z" fill="#525252"/>
<path d="M71.2278 39.8075C71.2007 40.2161 71.0954 41.0634 70.9268 41.4012C70.534 42.1882 68.1667 42.1671 65.715 42.2847C65.4257 42.2988 65.1408 42.209 64.9116 42.0316C64.6824 41.8542 64.5238 41.6007 64.4644 41.3167C64.4716 41.1474 64.4691 40.9777 64.4568 40.8086C64.4741 40.5677 64.4741 40.3258 64.4568 40.0849C64.3578 38.7774 63.7781 37.5531 62.8299 36.6491C61.8818 35.745 60.6326 35.2255 59.3241 35.1909C58.0156 35.1564 56.7409 35.6094 55.7466 36.4622C54.7522 37.315 54.109 38.507 53.9414 39.8075C53.9136 40.0321 53.8996 40.2582 53.8993 40.4845C53.8993 40.5975 53.8993 40.7091 53.9098 40.8207C53.9203 40.9323 53.5847 41.083 53.5847 41.1931C53.5847 41.4946 52.0436 41.7238 52.0933 42.0133C51.9653 42.4656 53.4478 42.8456 52.9391 42.8697L52.7886 42.8772L22.976 43.1411H22.9278C22.6419 43.1245 22.7864 42.9285 22.6765 42.6888C22.8481 42.1324 22.5576 41.5625 22.535 40.9428C22.535 40.8961 22.535 40.8508 22.526 40.8056C22.535 40.7046 22.5381 40.6021 22.5381 40.5041C22.5381 40.4317 22.5381 40.3533 22.5381 40.2854C22.5044 39.3856 22.2401 38.5097 21.7705 37.7419C21.1756 36.7471 20.2711 35.9756 19.1959 35.546C18.1208 35.1164 16.9345 35.0524 15.8195 35.364C14.7046 35.6756 13.7226 36.3454 13.0247 37.2706C12.3267 38.1957 11.9514 39.3248 11.9564 40.4845C11.9564 40.5719 11.9564 40.6669 11.9699 40.7679C11.9609 40.8926 11.9564 41.0192 11.9564 41.1479C11.9564 41.3982 11.6554 41.6846 11.7156 41.9967C11.5756 42.4596 11.4612 42.8305 10.9345 42.7883C9.86143 42.7023 8.5265 42.3149 8.19389 42.1234C8.09155 42.0646 8.44071 42.0178 8.39406 41.9424C8.43168 41.8339 8.34891 41.7464 8.39406 41.6409C8.41212 41.5972 8.42416 41.5323 8.44222 41.4901C8.50543 41.3394 8.23152 41.1886 8.21496 41.0574C8.20327 40.9691 8.18466 40.8819 8.15928 40.7966C8.07352 40.5232 8.0096 40.2433 7.96814 39.9598C7.94428 39.7752 7.94935 39.588 7.98319 39.4049C8.02304 39.1999 8.08878 39.0008 8.17884 38.8124C8.24506 38.6679 8.32574 38.5305 8.41964 38.4023C8.41964 38.1761 8.4076 37.962 8.40309 37.7615C8.39406 37.4871 8.38954 37.2353 8.40309 37.0076C8.45275 35.907 8.85459 35.2164 10.9796 34.5244C11.2806 34.4279 11.5982 34.3329 11.9594 34.2364C15.91 33.181 25.5044 32.3578 25.5044 32.3578C27.5362 31.7984 32.3522 27.9853 34.873 27.15C37.3939 26.3147 51.3528 25.9061 53.836 26.9239L53.9564 26.9736C56.5466 28.0743 63.6833 32.21 65.3493 32.804C65.4516 32.8372 65.5555 32.8674 65.6623 32.8945C66.1147 33.0029 66.5737 33.0815 67.0364 33.1297C67.2968 33.1614 67.5571 33.1885 67.807 33.2172C68.7476 33.3212 69.5678 33.4388 69.8989 33.8353C70.0557 34.0695 70.1632 34.3332 70.215 34.6103C70.2571 34.7837 70.2962 34.9737 70.3293 35.1727C70.3414 35.2451 70.3534 35.3235 70.364 35.3928C70.388 35.5436 70.4091 35.7034 70.4287 35.8632C70.5792 37.0694 70.6123 38.345 70.6334 38.4053C70.8772 39.12 71.1782 39.028 71.2278 39.8075Z" fill="#8F8F8F"/>
<path d="M71.2278 40.3495C71.2007 40.7581 71.0954 41.6055 70.9268 41.9432C70.534 42.7302 68.1667 42.7091 65.715 42.8267C65.4257 42.8408 65.1408 42.7511 64.9116 42.5737C64.6824 42.3962 64.5238 42.1428 64.4644 41.8588C64.4716 41.6894 64.4691 41.5197 64.4568 41.3507C64.4741 41.1097 64.4741 40.8679 64.4568 40.6269C64.3578 39.3194 63.7781 38.0951 62.8299 37.1911C61.8818 36.287 60.6326 35.7675 59.3241 35.733C58.0156 35.6984 56.7409 36.1514 55.7466 37.0042C54.7522 37.857 54.109 39.049 53.9414 40.3495C53.9136 40.5741 53.8996 40.8002 53.8993 41.0265C53.8993 41.1396 53.8993 41.2511 53.9098 41.3627C53.9203 41.4743 53.8993 41.5798 53.8993 41.6899C53.899 41.989 53.9242 42.2876 53.9745 42.5825C53.9111 42.8123 53.7768 43.0162 53.5909 43.1651C53.4049 43.3141 53.1768 43.4004 52.9391 43.4117H52.7886L22.967 43.6801H22.9188C22.7859 43.6731 22.6574 43.63 22.5471 43.5553C22.4368 43.4807 22.3489 43.3774 22.2927 43.2564C22.4695 42.6838 22.5484 42.0853 22.526 41.4864C22.526 41.4396 22.526 41.3944 22.517 41.3491C22.526 41.2481 22.529 41.1456 22.529 41.0476C22.529 40.9752 22.529 40.8968 22.529 40.829C22.4954 39.9292 22.2311 39.0532 21.7615 38.2854C21.1648 37.2951 20.2607 36.528 19.1876 36.1013C18.1144 35.6746 16.9312 35.6119 15.8191 35.9228C14.707 36.2337 13.7272 36.9011 13.0296 37.8228C12.332 38.7445 11.955 39.8698 11.9564 41.0265C11.9564 41.1139 11.9564 41.2089 11.9699 41.3099C11.9609 41.4356 11.9564 41.5622 11.9564 41.6899C11.964 41.9858 11.9947 42.2808 12.0482 42.5719C11.9763 42.806 11.8266 43.0084 11.624 43.1455C11.4214 43.2827 11.1781 43.3463 10.9345 43.3258C9.86143 43.2398 8.5265 42.8524 8.19389 42.6609C8.10305 42.6147 8.02537 42.5463 7.96814 42.4619C8.00577 42.3533 8.05242 42.2432 8.09757 42.1377L8.15175 42.0095C8.2087 41.8809 8.22902 41.7389 8.21045 41.5994C8.19876 41.5112 8.18014 41.4239 8.15476 41.3386C8.07053 41.0651 8.00813 40.7852 7.96814 40.5018C7.94428 40.3172 7.94935 40.13 7.98319 39.9469C8.02304 39.7419 8.08878 39.5428 8.17884 39.3544C8.24477 39.211 8.32494 39.0746 8.41814 38.9473C8.41814 38.7212 8.4061 38.5071 8.40158 38.3065C8.39255 38.0321 8.38804 37.7803 8.40158 37.5527C8.45125 36.452 8.85308 35.7615 10.9781 35.0694C11.2791 34.9729 11.5967 34.8779 11.9579 34.7814C15.9085 33.726 25.5029 32.9028 25.5029 32.9028C27.5347 32.3434 32.3507 28.5304 34.8715 27.6951C37.3924 26.8598 51.3513 26.4512 53.8345 27.4689L53.9549 27.5187C56.545 28.6193 63.6818 32.755 65.3478 33.3491C65.4501 33.3823 65.554 33.4124 65.6608 33.4395C66.1132 33.548 66.5722 33.6265 67.0349 33.6748C68.275 33.8255 69.4775 33.8783 69.8944 34.3804C70.0512 34.6145 70.1587 34.8782 70.2105 35.1554C70.2526 35.3287 70.2917 35.5187 70.3248 35.7177C70.3625 35.9394 70.3956 36.1701 70.4242 36.4083C70.5747 37.6145 70.6078 38.89 70.6288 38.9503C70.8772 39.662 71.1782 39.57 71.2278 40.3495Z" fill="#181818"/>
<path d="M54.996 37.7994C54.4227 38.5442 54.0589 39.4292 53.9425 40.3625C53.6626 40.3535 34.3489 39.7594 22.5332 41.0561C22.5332 40.9837 22.5332 40.9053 22.5332 40.8375C22.4996 39.9377 22.2352 39.0617 21.7656 38.2939C22.0004 38.2517 42.2412 36.4319 54.996 37.7994Z" fill="#171717"/>
<path d="M58.1106 33.4617C58.1543 34.9694 52.5421 35.669 51.5323 41.3351L40.7715 41.4316C40.7715 41.4316 40.2463 36.6943 40.9596 31.9329L40.6812 31.9057C40.8907 30.3611 41.3131 28.853 41.9364 27.4247C41.9364 27.4247 42.2103 27.4081 42.6753 27.3931C44.4813 27.3358 49.1664 27.3071 51.6812 28.3867C54.169 29.4556 56.6974 31.0538 57.6802 32.4229C57.9219 32.7196 58.0715 33.0807 58.1106 33.4617Z" stroke="black" stroke-width="0.568927" stroke-miterlimit="10"/>
<path d="M41.9419 27.4169C41.8049 27.9899 41.689 28.5658 41.5822 29.1448C41.4753 29.7238 41.376 30.3027 41.2812 30.8847C41.1096 32.0502 40.9802 33.2127 40.8899 34.3857C40.7996 35.5587 40.7469 36.7302 40.7544 37.9017C40.76 39.0764 40.8263 40.25 40.9531 41.4178L40.9726 41.6078H40.78C38.3404 41.6907 35.9023 41.7465 33.4627 41.8188L29.804 41.9199C28.585 41.9545 27.3644 41.9877 26.1454 42.0118H25.9557L25.9226 41.8294C25.7721 40.979 25.6638 40.1317 25.59 39.2768C25.5135 38.4197 25.4903 37.5586 25.5208 36.6986C25.5381 36.2652 25.5808 35.8332 25.6487 35.4049C25.7144 34.969 25.8295 34.5421 25.9919 34.1324C26.0773 33.9209 26.1842 33.7188 26.3109 33.5293C26.3791 33.4353 26.4525 33.3452 26.5307 33.2594C26.6109 33.1776 26.6958 33.1006 26.785 33.0287C27.1236 32.7558 27.4728 32.5055 27.8295 32.2748L27.7467 32.4256V32.3231L27.8295 32.2703C28.8905 31.5707 29.9861 30.9345 31.1059 30.3419C32.2256 29.7494 33.3634 29.1945 34.5297 28.703C35.1152 28.4603 35.7051 28.2281 36.3101 28.0381C36.9131 27.835 37.5332 27.6871 38.1628 27.5963C38.7904 27.5255 39.4195 27.4637 40.0501 27.4214C40.3641 27.4003 40.6797 27.3868 40.9967 27.3807C41.3122 27.3717 41.628 27.3837 41.9419 27.4169ZM41.9419 27.4169C41.627 27.3983 41.3112 27.4008 40.9967 27.4245C40.6837 27.4425 40.3691 27.4712 40.0561 27.5013C39.4285 27.5632 38.8039 27.6431 38.1794 27.7335C37.5636 27.841 36.9591 28.005 36.3734 28.2236L35.9324 28.3849L35.4944 28.5613C35.2025 28.6744 34.9165 28.8055 34.6261 28.9277C33.4777 29.4373 32.355 30.0102 31.2549 30.6178C30.1547 31.2255 29.0771 31.8798 28.0432 32.5885L28.126 32.4377V32.5357L28.0417 32.5945C27.6955 32.8342 27.3524 33.0785 27.0318 33.3484C26.8788 33.4687 26.7449 33.6116 26.6345 33.772C26.5244 33.9377 26.4321 34.1146 26.3591 34.2997C26.0581 35.0536 25.9693 35.8995 25.9317 36.7332C25.9079 37.575 25.936 38.4174 26.0159 39.2557C26.0942 40.0955 26.2056 40.9383 26.3576 41.7615L26.1333 41.5686C27.3539 41.5309 28.5729 41.5037 29.7935 41.4781L33.4522 41.3997C35.8918 41.3499 38.3314 41.2851 40.771 41.2489L40.5979 41.4449C40.4939 40.2669 40.4507 39.0842 40.4685 37.9017C40.4835 36.7197 40.5542 35.5406 40.6686 34.3661C40.783 33.1916 40.9606 32.0215 41.1653 30.8636C41.37 29.7057 41.6168 28.5507 41.9403 27.4169H41.9419Z" fill="black"/>
<path d="M59.1868 45.6974C61.7842 45.6974 63.8899 43.5879 63.8899 40.9857C63.8899 38.3835 61.7842 36.274 59.1868 36.274C56.5893 36.274 54.4836 38.3835 54.4836 40.9857C54.4836 43.5879 56.5893 45.6974 59.1868 45.6974Z" fill="#525252"/>
<path d="M70.2196 35.1472C68.9102 34.7839 64.9731 33.7239 62.83 33.5143C60.2339 33.261 48.823 33.3636 48.823 33.3636L33.9792 33.4751C33.9792 33.4751 27.4339 33.3485 22.6555 33.7767C16.3857 34.3466 12.0995 35.7156 12.0995 35.7156L10.5312 35.886L10.9828 35.0598C11.2838 34.9633 11.6013 34.8683 11.9625 34.7718C15.9131 33.7164 25.5075 32.8932 25.5075 32.8932C27.5393 32.3338 32.3553 28.5207 34.8761 27.6854C37.397 26.8501 51.3559 26.4415 53.8391 27.4593L53.9595 27.509C56.5496 28.6097 63.6864 32.7454 65.3524 33.3394C66.9883 33.8641 69.2895 33.641 69.905 34.3722C70.0613 34.6065 70.1683 34.8702 70.2196 35.1472Z" fill="#181818"/>
<path d="M11.6057 37.0091C11.3047 37.2307 10.9751 37.4494 10.6636 37.6439C9.9111 38.1203 9.23385 38.4565 9.13753 38.3616C8.96145 38.1867 8.94188 37.3845 9.31061 36.6684C9.45841 36.3742 9.6697 36.1167 9.92916 35.9145C10.1993 35.7126 10.4988 35.5534 10.8171 35.4426C11.7201 35.1139 12.745 35.1154 12.9948 35.5195C13.1453 35.7592 12.447 36.397 11.6057 37.0091Z" fill="#8A8A8A"/>
<path d="M11.6526 36.7893C11.3516 37.0109 11.022 37.2295 10.7105 37.424C9.95798 37.9005 9.28073 38.2367 9.18441 38.1417C9.00832 37.9668 8.98876 37.1647 9.35748 36.4485C9.50528 36.1544 9.71658 35.8968 9.97604 35.6946C10.2462 35.4928 10.5456 35.3336 10.864 35.2227C11.767 34.894 12.7919 34.8955 13.0417 35.2996C13.1922 35.5378 12.4939 36.1771 11.6526 36.7893Z" fill="#C2D5FF"/>
<path d="M11.6565 36.7896C11.4126 36.6699 11.2072 36.4841 11.0635 36.2533C10.9198 36.0225 10.8437 35.7559 10.8438 35.4839C10.8434 35.3954 10.8514 35.307 10.8678 35.22C11.7708 34.8913 12.7958 34.8929 13.0456 35.2969C13.1961 35.5382 12.4978 36.1774 11.6565 36.7896Z" fill="white"/>
<path d="M10.7105 37.4241C9.95798 37.9006 9.28073 38.2368 9.18441 38.1418C9.00832 37.9669 8.98876 37.1648 9.35748 36.4486C9.65586 36.4517 9.94599 36.5471 10.1882 36.7217C10.4304 36.8963 10.6128 37.1417 10.7105 37.4241Z" fill="white"/>
<path d="M24.0549 42.0221C26.4735 41.7975 28.8935 41.6497 31.3136 41.5306C32.5176 41.4643 33.7351 41.4266 34.9451 41.3799L38.5782 41.2728L42.2128 41.214L44.0308 41.205C44.6328 41.205 45.2348 41.205 45.8488 41.205C46.4629 41.205 47.0619 41.205 47.6669 41.2261L49.4864 41.2683C50.0884 41.2939 50.6904 41.309 51.3045 41.3452L52.2075 41.3995C52.5085 41.4251 52.8095 41.4598 53.1105 41.4884C52.8095 41.4975 52.5085 41.502 52.2075 41.514L51.3045 41.5532L49.4894 41.6392L45.8579 41.79C44.6539 41.8442 43.4378 41.8759 42.2278 41.9196L38.5962 42.0191L34.9632 42.084C33.7592 42.0945 32.5401 42.1156 31.3286 42.1141C28.9055 42.1277 26.4825 42.1111 24.0549 42.0221Z" fill="#363636"/>
<path d="M70.326 35.7096C67.5824 33.8536 58.3492 33.7782 58.3492 33.7782C58.3492 33.7782 34.942 33.9757 26.7442 33.9757C18.7978 33.9757 13.3497 35.4202 13.0156 35.5106C18.5706 33.644 26.8195 33.2626 26.8195 33.2626C26.8195 33.2626 39.4058 32.9746 49.7286 32.9746C56.5252 32.9746 62.4218 33.2445 65.656 33.4269C67.2589 33.834 69.3162 33.6772 69.8926 34.3678C70.0494 34.6019 70.1569 34.8656 70.2086 35.1427C70.2538 35.3207 70.2929 35.5106 70.326 35.7096Z" fill="#363636"/>
<path d="M42.1643 31.8775C41.8031 31.9299 41.4374 31.9445 41.0731 31.9212L40.7059 31.9046H40.6924L40.3914 31.8941C39.5561 31.8669 38.6666 31.8624 37.7621 31.873C37.261 31.873 36.7538 31.8911 36.2496 31.9061L35.6747 31.9257C35.4083 31.9348 35.1434 31.9453 34.8816 31.9574C31.1823 32.1172 27.9375 32.4354 27.9375 32.4354C30.3289 30.81 33.7378 28.5378 35.4174 28.0916C36.9314 27.6875 39.681 27.4975 40.1024 27.4643C40.5645 27.4266 40.9211 27.4086 41.192 27.4025C41.3139 27.4025 41.4178 27.4025 41.5066 27.4025C41.6529 27.3996 41.7992 27.4067 41.9445 27.4236C41.9445 27.4236 42.2184 27.407 42.6835 27.392C43.4736 28.6841 44.8176 31.4674 42.1643 31.8775Z" fill="#C2D5FF"/>
<path d="M56.3342 30.9623C56.4296 31.0402 56.4982 31.146 56.5305 31.265C56.5627 31.384 56.5569 31.5101 56.5139 31.6256C56.4709 31.7411 56.3928 31.8402 56.2906 31.9089C56.1885 31.9776 56.0674 32.0125 55.9444 32.0087C52.9946 31.9212 48.3546 31.8338 44.845 31.8579C43.7915 31.8579 42.8734 31.873 42.1661 31.8836L41.0795 31.9032L40.7077 31.9107H40.6942L40.6054 30.9035L40.3977 28.5379L41.1984 27.4071C41.3203 27.4071 41.4241 27.4071 41.5129 27.4071C41.6592 27.4042 41.8055 27.4112 41.9509 27.4282C41.9509 27.4282 42.2248 27.4116 42.6898 27.3965C43.0856 27.3845 43.6184 27.3724 44.237 27.3739C46.4433 27.3739 49.7302 27.5473 51.6957 28.3901C53.4987 29.1561 55.1738 30.0215 56.3342 30.9623Z" fill="#C2D5FF"/>
<path d="M27.9375 32.4327C28.9579 31.6788 29.9933 30.9249 31.0589 30.2344C31.5896 29.8836 32.1304 29.5458 32.6813 29.2212C33.2307 28.8905 33.7968 28.5886 34.3774 28.3165C34.5279 28.2517 34.6694 28.1824 34.8289 28.1266C34.9057 28.0994 34.9794 28.0678 35.0562 28.0406L35.2924 27.9683C35.6032 27.8823 35.9182 27.8124 36.2361 27.7587C36.8667 27.6441 37.5018 27.5747 38.1354 27.5084C38.769 27.4421 39.4056 27.4013 40.0407 27.3727C40.3583 27.3591 40.6788 27.3501 40.9964 27.344C41.1559 27.3365 41.3155 27.344 41.475 27.344C41.6356 27.347 41.7959 27.3596 41.9551 27.3817C42.2019 27.3817 42.4487 27.3817 42.6955 27.3817C42.4502 27.4029 42.2034 27.427 41.9581 27.4451C41.8012 27.4353 41.6439 27.4353 41.487 27.4451C41.3365 27.4451 41.171 27.4571 41.0129 27.4752L40.0663 27.5566C39.4342 27.6215 38.8036 27.6848 38.1745 27.7662C37.5454 27.8476 36.9193 27.9321 36.3008 28.0482C35.9923 28.1027 35.6869 28.1731 35.3857 28.2592L35.1675 28.3286C35.0938 28.3542 35.017 28.3844 34.9493 28.413C34.7988 28.4658 34.6603 28.5306 34.5174 28.594C33.9455 28.8503 33.3901 29.1563 32.8378 29.4624C32.2854 29.7685 31.7421 30.0987 31.1988 30.4274C30.0927 31.0878 29.0211 31.7693 27.9375 32.4327Z" fill="white"/>
<path d="M42.679 27.3858C43.9689 27.2891 45.2633 27.2669 46.5558 27.3195C47.8554 27.3584 49.1482 27.523 50.4162 27.811C50.5742 27.8487 50.7322 27.8954 50.8902 27.9377C51.0483 27.9799 51.2018 28.0402 51.3568 28.0884C51.5118 28.1367 51.6668 28.2075 51.8083 28.2724L52.2598 28.4684C52.8482 28.7368 53.4337 29.0157 54.0041 29.3278C54.5765 29.6354 55.1262 29.9836 55.649 30.3696C55.9103 30.5648 56.1615 30.7731 56.4015 30.9938C56.4345 31.0211 56.4642 31.052 56.4903 31.0858C56.5153 31.1214 56.5337 31.1613 56.5445 31.2034C56.5685 31.284 56.5761 31.3686 56.5671 31.4522C56.5645 31.5345 56.5423 31.615 56.5026 31.6871C56.4628 31.7592 56.4065 31.8208 56.3383 31.8668C56.401 31.8176 56.4513 31.7543 56.485 31.682C56.5188 31.6097 56.535 31.5305 56.5325 31.4507C56.5404 31.3738 56.5285 31.2961 56.498 31.2251C56.4674 31.1541 56.4192 31.0921 56.3579 31.0451C56.1056 30.8465 55.8434 30.6608 55.5723 30.4888C55.0321 30.1416 54.4723 29.8259 53.8957 29.5434C53.3223 29.2554 52.7354 28.9931 52.1454 28.7353L51.7029 28.5438C51.5524 28.4804 51.4019 28.4277 51.262 28.3689C51.122 28.3101 50.961 28.2694 50.8105 28.2181C50.66 28.1668 50.5095 28.1291 50.3499 28.0915C49.0973 27.8081 47.824 27.6261 46.5423 27.5472C45.2585 27.4492 43.9702 27.3964 42.679 27.3858Z" fill="white"/>
<path d="M44.8339 31.8501C43.7804 31.8501 42.8623 31.8652 42.155 31.8757C41.7938 31.9281 41.4281 31.9428 41.0638 31.9195L40.6966 31.9029H40.6831L40.3821 31.8923L40.5898 30.8957L41.3724 27.1731C41.3724 27.1731 43.5892 27.1731 44.2078 27.1731L44.8339 31.8501Z" fill="#212121"/>
<path d="M39.6874 34.5007V35.0586H39.4812C39.4843 35.0276 39.4804 34.9963 39.4699 34.967C39.4594 34.9376 39.4425 34.911 39.4205 34.8891C39.3984 34.8671 39.3717 34.8504 39.3424 34.8401C39.3131 34.8297 39.2818 34.8261 39.2509 34.8294H37.5834C37.5532 34.829 37.5233 34.8346 37.4954 34.846C37.4674 34.8574 37.442 34.8742 37.4207 34.8956C37.3994 34.917 37.3826 34.9424 37.3712 34.9704C37.3599 34.9984 37.3542 35.0283 37.3546 35.0586H37.1484V34.5007C37.1488 34.4272 37.1781 34.3569 37.23 34.305C37.2818 34.253 37.352 34.2237 37.4254 34.2233H39.412C39.4851 34.2237 39.5552 34.2531 39.6068 34.3051C39.6584 34.357 39.6874 34.4274 39.6874 34.5007Z" fill="#474747"/>
<path d="M39.4345 34.2218H37.4028C37.2623 34.2218 37.1484 34.3355 37.1484 34.4759C37.1484 34.6162 37.2623 34.7299 37.4028 34.7299H39.4345C39.575 34.7299 39.6889 34.6162 39.6889 34.4759C39.6889 34.3355 39.575 34.2218 39.4345 34.2218Z" fill="#EA4C81"/>
<path d="M55.0866 34.5007V35.0586H54.8804C54.8835 35.0274 54.8796 34.996 54.8691 34.9665C54.8585 34.9371 54.8414 34.9104 54.8192 34.8885C54.797 34.8665 54.7701 34.8498 54.7406 34.8395C54.7111 34.8293 54.6797 34.8258 54.6486 34.8294H52.9826C52.9524 34.829 52.9225 34.8346 52.8946 34.846C52.8666 34.8574 52.8413 34.8742 52.8199 34.8956C52.7986 34.917 52.7818 34.9424 52.7704 34.9704C52.7591 34.9984 52.7534 35.0283 52.7538 35.0586H52.5461V34.5007C52.5469 34.4271 52.5766 34.3568 52.6287 34.3049C52.6807 34.253 52.7511 34.2237 52.8246 34.2233H54.8097C54.883 34.2237 54.9532 34.253 55.005 34.305C55.0569 34.3569 55.0862 34.4272 55.0866 34.5007Z" fill="#474747"/>
<path d="M54.8322 34.2218H52.8005C52.66 34.2218 52.5461 34.3355 52.5461 34.4759C52.5461 34.6162 52.66 34.7299 52.8005 34.7299H54.8322C54.9727 34.7299 55.0866 34.6162 55.0866 34.4759C55.0866 34.3355 54.9727 34.2218 54.8322 34.2218Z" fill="#EA4C81"/>
<path opacity="0.3" d="M40.1046 27.4604L37.7703 31.8706C37.2692 31.8706 36.762 31.8887 36.2578 31.9038L38.5665 27.6188C39.173 27.5464 39.6832 27.4936 40.1046 27.4604Z" fill="white"/>
<path d="M12.7031 37.3888C12.7031 37.3888 14.2458 35.2222 17.0119 35.1091C19.7781 34.996 21.8279 37.3888 21.8279 37.3888C21.8279 37.3888 17.2558 33.428 12.7031 37.3888Z" fill="#363636"/>
<path d="M54.7727 37.2446C54.7727 37.2446 56.3153 35.0764 59.0815 34.9634C61.8477 34.8503 63.8975 37.2446 63.8975 37.2446C63.8975 37.2446 59.3268 33.2867 54.7727 37.2446Z" fill="#363636"/>
<path d="M8.15928 41.3377C8.07352 41.0643 8.0096 40.7845 7.96814 40.5009C7.94428 40.3163 7.94935 40.1291 7.98319 39.9461C8.02304 39.741 8.08878 39.5419 8.17884 39.3535C8.227 39.3626 9.19171 39.539 9.32114 40.2355C9.45057 40.9321 8.10058 41.0512 8.15928 41.3377Z" fill="black"/>
<path d="M10.3181 42.6538C9.58664 42.4413 8.84406 42.2692 8.09375 42.1381L8.14793 42.01C8.20488 41.8813 8.22519 41.7394 8.20663 41.5999C8.20663 41.5999 10.1902 42.0838 11.0661 41.8863C11.942 41.6888 12.1106 43.1558 10.3181 42.6538Z" fill="black"/>
<path opacity="0.3" d="M35.6681 31.9193L38.0445 27.6449C37.8052 27.669 37.6487 27.6931 37.3853 27.7248L34.875 31.9465L35.6681 31.9193Z" fill="white"/>
<path opacity="0.5" d="M21.9694 40.9209C21.9694 40.9617 21.9694 41.0024 21.9694 41.0431C20.6928 39.8534 19.0188 39.184 17.2753 39.1659C14.4444 39.1659 12.5015 40.9752 12.4383 41.0416C12.4383 41.0009 12.4383 40.9617 12.4383 40.9209C12.427 40.2866 12.542 39.6564 12.7765 39.0672C13.011 38.4779 13.3604 37.9413 13.8042 37.4887C14.2479 37.0362 14.7773 36.6767 15.3612 36.4313C15.9452 36.1859 16.5721 36.0596 17.2053 36.0596C17.8386 36.0596 18.4655 36.1859 19.0495 36.4313C19.6334 36.6767 20.1628 37.0362 20.6065 37.4887C21.0503 37.9413 21.3997 38.4779 21.6342 39.0672C21.8687 39.6564 21.9837 40.2866 21.9724 40.9209H21.9694Z" fill="black"/>
<path d="M20.4628 40.9204C20.4623 41.5662 20.2708 42.1974 19.9124 42.7341C19.5539 43.2708 19.0447 43.6891 18.4491 43.9359C18.0464 44.1026 17.6144 44.1866 17.1787 44.1831C16.743 44.1797 16.3124 44.0887 15.9124 43.9157C15.5124 43.7427 15.1511 43.4911 14.8498 43.1757C14.5485 42.8604 14.3134 42.4878 14.1583 42.0799C13.8743 41.3295 13.8743 40.5009 14.1583 39.7504C14.2259 39.5721 14.3101 39.4004 14.4096 39.2378C14.77 38.6323 15.3173 38.1607 15.9688 37.8944C16.6846 37.602 17.4808 37.5739 18.2154 37.8149C18.95 38.056 19.5753 38.5507 19.9797 39.2107C20.0862 39.383 20.176 39.5653 20.2475 39.755C20.39 40.1269 20.463 40.522 20.4628 40.9204Z" fill="#8A8A8A"/>
<path d="M20.3211 40.9208C20.3211 40.9615 20.3211 41.0037 20.3211 41.0444C20.298 41.6419 20.1042 42.2202 19.7627 42.7106C19.4212 43.201 18.9464 43.583 18.3947 43.8111C18.0167 43.9672 17.6116 44.0471 17.2028 44.0463C16.7991 44.0477 16.3992 43.9693 16.0258 43.8156C15.4694 43.5905 14.9896 43.2093 14.6442 42.7177C14.2987 42.2261 14.1022 41.6451 14.0784 41.0444C14.0784 41.0037 14.0784 40.9615 14.0784 40.9208C14.0785 40.2995 14.2632 39.6922 14.6089 39.1765C14.9547 38.6607 15.4458 38.2596 16.0198 38.0244C16.4941 37.8309 17.0087 37.7571 17.5181 37.8097C18.0276 37.8622 18.5163 38.0394 18.9414 38.3256C19.3664 38.6119 19.7147 38.9984 19.9555 39.4512C20.1964 39.904 20.3225 40.4092 20.3226 40.9223L20.3211 40.9208Z" fill="white"/>
<path d="M20.3181 41.0439C20.295 41.6414 20.1012 42.2197 19.7597 42.7101C19.4182 43.2005 18.9434 43.5825 18.3917 43.8106C18.0137 43.9667 17.6086 44.0466 17.1997 44.0458C16.7961 44.0472 16.3962 43.9688 16.0228 43.8151C15.4669 43.5896 14.9878 43.2081 14.6429 42.7166C14.298 42.225 14.102 41.6442 14.0784 41.0439C14.0784 41.0032 14.0784 40.9609 14.0859 40.9202C14.1309 40.3425 14.3352 39.7887 14.6762 39.3207C15.0172 38.8526 15.4813 38.4887 16.0168 38.2696C16.4023 38.1123 16.8153 38.0337 17.2315 38.0385C17.6477 38.0433 18.0587 38.1314 18.4405 38.2976C18.8223 38.4637 19.167 38.7046 19.4546 39.0061C19.7421 39.3076 19.9666 39.6637 20.1149 40.0533C20.2214 40.3297 20.2868 40.6203 20.3091 40.9157V40.9278C20.3091 40.9655 20.3166 41.0047 20.3181 41.0439Z" fill="black"/>
<path d="M20.3094 40.9146V40.9267C20.2633 41.5009 20.0597 42.0513 19.7211 42.5169C19.3825 42.9825 18.922 43.3453 18.3905 43.5652C18.0125 43.7213 17.6074 43.8013 17.1985 43.8004C16.7949 43.8019 16.3949 43.7235 16.0216 43.5697C15.6248 43.4083 15.2654 43.1668 14.9659 42.8602C14.6663 42.5536 14.4329 42.1885 14.2803 41.7876C14.1737 41.5092 14.1083 41.2166 14.0862 40.9191C14.1311 40.3414 14.3355 39.7876 14.6765 39.3196C15.0175 38.8515 15.4816 38.4876 16.0171 38.2685C16.4026 38.1112 16.8155 38.0326 17.2318 38.0374C17.648 38.0422 18.059 38.1303 18.4408 38.2965C18.8226 38.4626 19.1673 38.7035 19.4549 39.005C19.7424 39.3065 19.9669 39.6626 20.1152 40.0522C20.2216 40.3286 20.2871 40.6192 20.3094 40.9146Z" fill="#8F8F8F"/>
<path d="M18.2992 43.5845C17.9505 43.7277 17.5773 43.8015 17.2005 43.8016C16.8284 43.8022 16.4598 43.73 16.1154 43.589L17.2095 40.9234L16.1094 38.2517C16.4551 38.1115 16.8245 38.0394 17.1975 38.0391C17.5745 38.039 17.9478 38.1133 18.2961 38.2577L17.2035 40.9204L18.2992 43.5845Z" fill="#525252"/>
<path d="M14.5185 39.8911L17.2109 40.9194L14.517 41.9477C14.2652 41.2854 14.2652 40.5534 14.517 39.8911H14.5185Z" fill="#525252"/>
<path d="M20.0747 40.9209C20.075 41.2702 20.0117 41.6166 19.888 41.9432L17.2031 40.9194L19.8865 39.8942C20.0115 40.222 20.0753 40.57 20.0747 40.9209Z" fill="#525252"/>
<path d="M17.2 41.7397C17.6514 41.7397 18.0172 41.3732 18.0172 40.921C18.0172 40.4688 17.6514 40.1023 17.2 40.1023C16.7487 40.1023 16.3828 40.4688 16.3828 40.921C16.3828 41.3732 16.7487 41.7397 17.2 41.7397Z" fill="#525252"/>
<path d="M17.196 41.4935C17.5114 41.4935 17.7671 41.2374 17.7671 40.9214C17.7671 40.6055 17.5114 40.3494 17.196 40.3494C16.8807 40.3494 16.625 40.6055 16.625 40.9214C16.625 41.2374 16.8807 41.4935 17.196 41.4935Z" fill="#8F8F8F"/>
<path opacity="0.3" d="M19.9778 39.2128L19.901 39.3515C19.901 39.3515 19.8137 39.3093 19.6632 39.2445C19.1578 39.0294 18.6318 38.8662 18.0935 38.7575C17.8228 38.704 17.5477 38.6758 17.2718 38.673C16.9542 38.6766 16.638 38.7134 16.3281 38.7831C15.7518 38.911 15.1911 39.1016 14.6561 39.3515L14.5327 39.2973L14.4062 39.2415C14.7666 38.6359 15.3139 38.1644 15.9654 37.8981C16.6812 37.6057 17.4774 37.5775 18.212 37.8186C18.9466 38.0597 19.5719 38.5543 19.9763 39.2143L19.9778 39.2128Z" fill="black"/>
<path d="M70.3613 35.3871L70.2831 35.464C70.2831 35.464 66.802 34.0316 67.0338 33.6653C67.1095 33.5558 67.2095 33.4655 67.326 33.4014C67.4425 33.3372 67.5722 33.3011 67.705 33.2959L67.8043 33.2114C68.745 33.3155 69.5652 33.4331 69.8963 33.8296C70.0531 34.0637 70.1606 34.3274 70.2123 34.6046C70.2545 34.778 70.2936 34.9679 70.3267 35.167C70.3388 35.2363 70.3508 35.3147 70.3613 35.3871Z" fill="white"/>
<path opacity="0.5" d="M63.8989 41.0716C63.8989 41.1123 63.8989 41.153 63.8989 41.1937C62.6431 40.0074 60.988 39.3374 59.262 39.3166C56.4657 39.3166 54.5453 41.1259 54.4836 41.1922C54.4836 41.1515 54.4836 41.1123 54.4836 41.0716C54.4836 39.8204 54.9798 38.6204 55.8629 37.7357C56.7461 36.8509 57.9438 36.3539 59.1928 36.3539C60.4417 36.3539 61.6395 36.8509 62.5227 37.7357C63.4058 38.6204 63.9019 39.8204 63.9019 41.0716H63.8989Z" fill="black"/>
<path d="M62.4479 40.9207C62.4469 41.5665 62.255 42.1976 61.8963 42.7343C61.5377 43.271 61.0284 43.6892 60.4327 43.9361C60.0381 44.0981 59.6159 44.1815 59.1896 44.1819C58.7679 44.1831 58.3501 44.1011 57.96 43.9407C57.546 43.7714 57.1712 43.5188 56.8588 43.1985C56.5463 42.8782 56.3028 42.497 56.1434 42.0786C55.8575 41.3285 55.8575 40.4992 56.1434 39.7491C56.3022 39.3327 56.5443 38.9532 56.8549 38.634C57.1654 38.3148 57.5379 38.0627 57.9494 37.8931C58.4451 37.6895 58.9832 37.6114 59.5162 37.6657C60.0491 37.7199 60.5605 37.9048 61.0052 38.2041C61.4499 38.5034 61.8141 38.9078 62.0657 39.3816C62.3174 39.8554 62.4486 40.384 62.4479 40.9207Z" fill="#8A8A8A"/>
<path d="M62.3156 40.9208C62.3156 40.9615 62.3156 41.0037 62.3156 41.0444C62.2925 41.6419 62.0987 42.2202 61.7572 42.7106C61.4157 43.2011 60.9409 43.583 60.3892 43.8111C60.0112 43.9672 59.6061 44.0472 59.1973 44.0463C58.7936 44.0478 58.3937 43.9694 58.0203 43.8156C57.4645 43.5898 56.9855 43.208 56.6409 42.7162C56.2963 42.2244 56.1006 41.6434 56.0774 41.0429C56.0774 41.0022 56.0774 40.96 56.0774 40.9193C56.0775 40.298 56.2622 39.6908 56.608 39.175C56.9537 38.6592 57.4448 38.2581 58.0188 38.0229C58.4929 37.8307 59.0067 37.7579 59.5154 37.8111C60.024 37.8642 60.5118 38.0416 60.936 38.3277C61.3603 38.6139 61.7079 38.9999 61.9484 39.452C62.189 39.9041 62.315 40.4085 62.3156 40.9208Z" fill="white"/>
<path d="M62.3 41.0443C62.2769 41.6418 62.083 42.2201 61.7416 42.7105C61.4001 43.2009 60.9253 43.5829 60.3736 43.811C59.9956 43.9671 59.5905 44.047 59.1816 44.0462C58.778 44.0476 58.3781 43.9692 58.0047 43.8155C57.4489 43.5896 56.9699 43.2079 56.6253 42.7161C56.2806 42.2242 56.085 41.6432 56.0618 41.0428C56.0618 41.0021 56.0618 40.9599 56.0693 40.9191C56.1143 40.3414 56.3186 39.7876 56.6596 39.3196C57.0006 38.8515 57.4647 38.4876 58.0002 38.2685C58.3857 38.1112 58.7987 38.0326 59.2149 38.0374C59.6311 38.0422 60.0421 38.1303 60.4239 38.2965C60.8057 38.4626 61.1504 38.7035 61.438 39.005C61.7255 39.3065 61.95 39.6626 62.0983 40.0522C62.2047 40.3286 62.2702 40.6192 62.2925 40.9146V40.9267C62.297 40.9659 62.2985 41.0051 62.3 41.0443Z" fill="black"/>
<path d="M62.2993 40.9142V40.9263C62.2533 41.5005 62.0497 42.0508 61.7111 42.5165C61.3725 42.9821 60.912 43.3449 60.3805 43.5648C60.0024 43.7209 59.5974 43.8009 59.1885 43.8C58.7849 43.8014 58.3849 43.7231 58.0116 43.5693C57.6166 43.4071 57.2591 43.1653 56.9611 42.859C56.6632 42.5527 56.4311 42.1884 56.2794 41.7887C56.1727 41.5102 56.1073 41.2177 56.0852 40.9202C56.1302 40.3425 56.3345 39.7887 56.6755 39.3207C57.0165 38.8526 57.4806 38.4887 58.0161 38.2696C58.4016 38.1123 58.8146 38.0337 59.2308 38.0385C59.647 38.0433 60.058 38.1314 60.4398 38.2976C60.8216 38.4637 61.1664 38.7046 61.4539 39.0061C61.7414 39.3076 61.9659 39.6637 62.1142 40.0533C62.2174 40.3297 62.2798 40.6197 62.2993 40.9142Z" fill="#8F8F8F"/>
<path d="M60.2891 43.5845C59.941 43.7277 59.5683 43.8015 59.192 43.8016C58.8199 43.8022 58.4513 43.73 58.1069 43.589L59.201 40.9234L58.1008 38.2517C58.4465 38.1114 58.816 38.0392 59.1889 38.0391C59.5655 38.0389 59.9383 38.1132 60.2861 38.2577L59.195 40.9204L60.2891 43.5845Z" fill="#525252"/>
<path d="M56.5014 39.8911L59.1954 40.9194L56.5014 41.9477C56.3753 41.6201 56.311 41.272 56.3118 40.9209C56.3117 40.5689 56.376 40.2199 56.5014 39.8911Z" fill="#525252"/>
<path d="M62.0661 40.9208C62.0664 41.2701 62.0032 41.6165 61.8795 41.9431L59.1946 40.9193L61.878 39.894C62.0029 40.2219 62.0667 40.5699 62.0661 40.9208Z" fill="#525252"/>
<path d="M59.1915 41.7397C59.6428 41.7397 60.0087 41.3732 60.0087 40.921C60.0087 40.4688 59.6428 40.1023 59.1915 40.1023C58.7401 40.1023 58.3743 40.4688 58.3743 40.921C58.3743 41.3732 58.7401 41.7397 59.1915 41.7397Z" fill="#525252"/>
<path d="M59.1875 41.4935C59.5029 41.4935 59.7585 41.2374 59.7585 40.9214C59.7585 40.6055 59.5029 40.3494 59.1875 40.3494C58.8721 40.3494 58.6165 40.6055 58.6165 40.9214C58.6165 41.2374 58.8721 41.4935 59.1875 41.4935Z" fill="#8F8F8F"/>
<path opacity="0.3" d="M62.06 39.351L61.9802 39.5017C61.9802 39.5017 61.8899 39.4565 61.7334 39.3856C61.2119 39.1515 60.6671 38.9736 60.108 38.8549C59.5044 38.7233 58.8786 38.7331 58.2794 38.8836C57.6805 39.0232 57.0994 39.2306 56.5472 39.5017L56.4193 39.4429L56.2883 39.3826C56.6529 38.7313 57.22 38.2171 57.9032 37.9186C58.3069 37.7452 58.7417 37.6559 59.1809 37.6563C59.6244 37.6557 60.0631 37.7476 60.4692 37.9261C61.1376 38.219 61.695 38.7182 62.06 39.351Z" fill="black"/>
<path d="M70.4633 36.4004C69.9892 35.5275 68.9222 35.3134 67.8928 34.7615L67.825 34.7253C66.8679 34.1946 66.922 33.8629 67.0379 33.6699C68.278 33.8207 69.4805 33.8735 69.8974 34.3755C70.0577 34.6141 70.1814 34.8753 70.2646 35.1505C70.3131 35.3272 70.3458 35.5078 70.3625 35.6903C70.4016 35.9089 70.4347 36.1637 70.4633 36.4004Z" fill="#EA4C81"/>
<path d="M70.3294 35.4656C69.7439 35.1641 68.2224 34.7464 67.825 34.7253C66.8679 34.1946 66.922 33.8629 67.0379 33.6699C68.278 33.8207 69.4805 33.8735 69.8974 34.3755C70.125 34.6998 70.273 35.0733 70.3294 35.4656Z" fill="#C2D5FF"/>
<path d="M8.41445 38.4026L8.38887 37.7769L8.37683 37.1512C8.36952 36.9412 8.38415 36.731 8.42047 36.524C8.45256 36.3124 8.52186 36.1082 8.62515 35.9209C8.7311 35.7359 8.86572 35.569 9.02398 35.4264C9.18398 35.288 9.35684 35.1653 9.54019 35.06C9.90633 34.8537 10.2901 34.6807 10.687 34.5428C10.7863 34.5082 10.8842 34.4705 10.988 34.4388L11.289 34.3468L11.891 34.1629C12.2958 34.0588 12.6992 33.9473 13.1085 33.8613L13.7211 33.7287L14.3351 33.611C14.7445 33.5266 15.1569 33.4603 15.5677 33.3924C17.2127 33.1225 18.8652 32.9024 20.5192 32.6989C22.1732 32.4953 23.8302 32.3174 25.4857 32.1576H25.4526C25.6575 32.0919 25.8585 32.0144 26.0546 31.9254C26.2562 31.841 26.4519 31.7384 26.6475 31.6359C27.0403 31.4309 27.4256 31.2062 27.8079 30.977C28.5724 30.5142 29.3249 30.0287 30.0819 29.5462C30.839 29.0637 31.5915 28.6023 32.371 28.138C32.7608 27.9103 33.1536 27.6856 33.56 27.4821C33.7587 27.3735 33.9724 27.2861 34.1786 27.1805C34.2794 27.1308 34.3908 27.0931 34.4976 27.0509C34.6045 27.0087 34.7128 26.9664 34.8242 26.9288C35.2684 26.8031 35.7211 26.7099 36.1787 26.6498C36.6302 26.5835 37.0742 26.5292 37.5227 26.484C38.4257 26.392 39.3166 26.3242 40.2136 26.2684C42.0106 26.1678 43.8075 26.1131 45.6045 26.104C47.4015 26.0965 49.2 26.1206 50.9999 26.2548C51.4514 26.2895 51.9029 26.3332 52.3544 26.3905C52.8126 26.4446 53.2656 26.5358 53.7089 26.6634C53.8248 26.7026 53.9392 26.7418 54.0385 26.787L54.3501 26.9272C54.5578 27.0177 54.7594 27.1187 54.9641 27.2167C55.3705 27.4112 55.7708 27.6163 56.1681 27.8198C57.7619 28.6536 59.3286 29.5221 60.9074 30.383C61.696 30.8112 62.4831 31.2409 63.2762 31.6585C63.6735 31.8666 64.0709 32.0716 64.4712 32.2616C64.6714 32.3596 64.873 32.4546 65.0732 32.5451L65.3742 32.6702L65.6872 32.7652L65.7384 32.7939C65.7285 32.7841 65.7167 32.7764 65.7038 32.7712C65.6909 32.7661 65.6771 32.7635 65.6632 32.7637H65.6903C66.2121 32.8921 66.7421 32.9848 67.2765 33.0411C67.8138 33.1105 68.3556 33.1617 68.8929 33.2748C69.1657 33.3339 69.4273 33.4362 69.668 33.5779C69.73 33.6141 69.7889 33.6554 69.8441 33.7015C69.898 33.751 69.946 33.8067 69.987 33.8674C70.0606 33.9878 70.1187 34.1169 70.1601 34.2518C70.3064 34.7789 70.4072 35.3177 70.4611 35.8621C70.5078 36.2858 70.5379 36.7095 70.5634 37.1346L70.595 37.7709C70.6071 37.9835 70.6086 38.1961 70.6282 38.4087C70.6026 38.1976 70.5935 37.985 70.5755 37.7724L70.5243 37.1376C70.4882 36.7145 70.442 36.2923 70.3858 35.8711C70.3212 35.3351 70.2115 34.8055 70.0578 34.288C70.016 34.164 69.9594 34.0456 69.8892 33.9352C69.8528 33.8845 69.8109 33.8379 69.7643 33.7965C69.7143 33.757 69.6614 33.7213 69.6063 33.6895C69.3694 33.5702 69.1156 33.4883 68.8538 33.4467C68.3285 33.3472 67.7867 33.308 67.2479 33.2522C66.7027 33.2063 66.1612 33.1237 65.627 33.0049H65.6541C65.6237 33.005 65.5946 32.9931 65.5729 32.9718L65.624 33.0004C65.5127 32.9703 65.4013 32.9401 65.2914 32.9069L64.9709 32.7803C64.7617 32.6898 64.557 32.5963 64.3523 32.5014C63.946 32.3069 63.5441 32.1063 63.1483 31.8983C62.3491 31.4897 61.5545 31.072 60.7599 30.6529C59.1721 29.8161 57.5903 28.9687 55.992 28.1606L55.39 27.859C55.1899 27.7595 54.9897 27.6585 54.788 27.5575C54.5864 27.4565 54.3862 27.363 54.186 27.2755L53.885 27.1398C53.7782 27.0931 53.6803 27.0614 53.584 27.0298C53.1636 26.9114 52.7343 26.8277 52.3003 26.7795C51.8608 26.7237 51.4168 26.683 50.9729 26.6513C49.1924 26.5277 47.4 26.5111 45.6105 26.5262C43.8211 26.5413 42.0301 26.6061 40.2437 26.7147C39.3512 26.7659 38.4588 26.8292 37.5708 26.9167C37.1268 26.9604 36.6829 27.0117 36.2434 27.075C35.8104 27.1294 35.3819 27.2151 34.9612 27.3313C34.8588 27.366 34.758 27.4067 34.6602 27.4444C34.5623 27.4821 34.457 27.5168 34.3592 27.5665C34.1605 27.66 33.9573 27.7429 33.7572 27.8485C33.3613 28.046 32.973 28.2646 32.5863 28.4862C31.8157 28.9386 31.0572 29.412 30.2987 29.8915C29.5401 30.3709 28.7831 30.8534 28.0096 31.3163C27.6213 31.547 27.2315 31.7686 26.8266 31.9827C26.625 32.0867 26.4218 32.1908 26.2081 32.2842C25.995 32.3784 25.7763 32.4595 25.5534 32.527H25.5398H25.5203C23.8628 32.6627 22.2073 32.82 20.5538 32.9989C18.8983 33.1783 17.2428 33.3758 15.6038 33.6231C14.7821 33.7528 13.9604 33.8749 13.1462 34.0408C12.7383 34.1146 12.3365 34.2157 11.9331 34.3106L11.3311 34.4795L11.0301 34.5639C10.9308 34.5926 10.833 34.6273 10.7291 34.6589C10.3357 34.7859 9.95444 34.9478 9.58986 35.1429C9.4095 35.2406 9.23912 35.3557 9.08117 35.4867C8.92687 35.6204 8.7939 35.777 8.68686 35.9511C8.49249 36.3208 8.39855 36.7352 8.41445 37.1527V37.7784V38.4026Z" fill="white"/>
<path d="M30.6964 30.1477H28.2658C27.6357 30.1477 27.125 30.6594 27.125 31.2906C27.125 31.9218 27.6357 32.4334 28.2658 32.4334H30.6964C31.3264 32.4334 31.8372 31.9218 31.8372 31.2906C31.8372 30.6594 31.3264 30.1477 30.6964 30.1477Z" fill="white"/>
<path d="M30.7364 30.4283H28.4533C27.8232 30.4283 27.3125 30.94 27.3125 31.5712C27.3125 32.2024 27.8232 32.7141 28.4533 32.7141H30.7364C31.3664 32.7141 31.8772 32.2024 31.8772 31.5712C31.8772 30.94 31.3664 30.4283 30.7364 30.4283Z" fill="black"/>
<path d="M47.67 53.6216H46.5142C46.5142 53.6216 46.1455 48.043 44.8768 44.0324C44.2746 42.1287 43.8375 40.1765 43.5704 38.1975C43.4576 37.3456 43.429 36.8405 43.429 36.8405L46.0085 35.1971L46.4931 34.8955C46.4369 35.0154 46.4037 35.1448 46.3953 35.277C46.3584 35.6364 46.3584 35.9986 46.3953 36.358C46.4224 36.7184 46.4766 37.1631 46.5684 37.7074C46.6858 38.3874 46.8694 39.2227 47.1297 40.251C47.2155 40.5827 47.2953 40.94 47.3675 41.3064C48.2766 46.0452 47.67 53.6216 47.67 53.6216Z" fill="#363636"/>
<path d="M54.1875 53.8916H53.2694C53.2694 53.8916 51.7147 48.714 49.1051 44.619C48.439 43.5651 47.8563 42.4605 47.3623 41.3155C46.8521 40.1358 46.4285 38.9203 46.0951 37.6788C45.8678 36.83 45.7805 36.3143 45.7805 36.3143L46.39 36.3611L50.1089 36.6506C50.1089 36.6506 50.3422 37.62 50.6898 38.9453C51.2106 40.9386 51.9902 43.7339 52.6223 45.2477C53.6712 47.7686 54.1875 53.8916 54.1875 53.8916Z" fill="#6E6E6E"/>
<path d="M50.6831 38.9453C50.6831 38.9453 49.4881 38.113 46.9853 37.7587C46.8348 37.7391 46.6978 37.721 46.5624 37.7074C46.3983 37.6908 46.2418 37.6803 46.0943 37.6757C44.2627 37.5958 43.5704 38.1974 43.5704 38.1974C43.4576 37.3455 43.429 36.8405 43.429 36.8405L46.0085 35.197L46.3953 35.2709C46.3584 35.6303 46.3584 35.9925 46.3953 36.3519L50.1066 36.6505C50.1066 36.6505 50.3354 37.62 50.6831 38.9453Z" fill="#363636"/>
<path d="M36.6791 33.3635C36.6791 33.3635 36.0996 33.3153 35.8423 33.169C35.5849 33.0228 35.746 33.5083 35.9386 33.6364C36.1312 33.7646 34.6353 33.9108 34.3779 34.137C34.1206 34.3632 35.1304 34.6526 35.1304 34.6526C35.1304 34.6526 36.2125 34.5954 36.8868 34.2531C37.561 33.9108 36.6791 33.3635 36.6791 33.3635Z" fill="#FFB171"/>
<path d="M54.4502 30.5714C53.5833 31.6645 50.3295 29.8356 50.3295 29.8356L50.3476 28.1967L51.666 28.4983C51.4206 28.0263 50.3476 26.8955 50.0285 27.1217C49.7937 27.2875 49.6613 29.4843 49.6432 31.4595C49.6432 32.0626 49.6432 32.6445 49.6598 33.1421C49.6598 33.2311 49.6673 33.3155 49.6703 33.3984C49.7651 35.4716 50.5929 37.4497 50.5929 37.4497C50.5929 37.4497 47.8643 37.4889 46.8861 37.4497C45.9078 37.4105 45.6068 35.9616 45.6068 35.9616C45.6068 35.9616 45.664 36.9612 45.2878 37.0728C44.9115 37.1843 43.4246 37.0728 43.4246 37.0728C43.1988 36.2465 43.3975 34.1236 43.5314 32.9551C43.5871 32.4742 43.6323 32.1545 43.6323 32.1545C43.6006 32.1901 43.5669 32.2238 43.5314 32.2555C42.2221 33.4617 36.9531 34.5488 36.9531 34.5488L36.6716 33.3607C36.6716 33.3607 40.848 31.853 41.8443 30.2126C42.8406 28.5721 43.9513 23.8801 43.9513 23.8801L45.3344 23.2227L46.1697 22.8262L48.1262 22.0889L49.2354 22.6573C53.0566 24.3716 55.3141 29.4783 54.4502 30.5714Z" fill="#6E6E6E"/>
<path d="M49.2411 22.6558C49.2411 22.6558 50.3954 23.0825 50.0312 23.5725C49.667 24.0625 48.764 23.8741 48.627 24.1515C48.4901 24.4289 49.2034 24.4395 49.2411 24.6913C49.2787 24.9431 47.3974 26.4131 46.1332 27.663L45.3371 27.6133C45.3371 27.6133 44.3618 25.3637 44.1737 25.1602C43.9856 24.9566 44.7381 24.6913 44.7757 24.5284C44.8133 24.3656 44.2023 24.3641 44.1436 24.2013C44.0849 24.0384 44.7291 23.5107 45.3371 23.2212C45.9451 22.9317 48.1319 22.0874 48.1319 22.0874L49.2411 22.6558Z" fill="#363636"/>
<path d="M49.2436 22.6558C48.4173 23.3373 47.7235 24.5661 47.1516 25.6878C46.2411 27.4805 45.6466 29.0049 45.3456 27.6132C45.2081 26.9749 45.135 26.3243 45.1274 25.6713C45.1077 24.8494 45.1809 24.028 45.3456 23.2227L46.1809 22.8262L48.1374 22.0889L49.2436 22.6558Z" fill="#EA4C81"/>
<path d="M36.6716 33.3611C37.6619 32.9653 38.6242 32.5029 39.5522 31.977C40.0131 31.7147 40.4551 31.4205 40.8751 31.0965C41.2973 30.7884 41.6425 30.3863 41.8834 29.922C42.1152 29.4469 42.3162 28.9574 42.4854 28.4565C42.661 27.9539 42.8261 27.4473 42.9806 26.9367C43.2816 25.9159 43.5615 24.8831 43.8083 23.8473L43.8234 23.7795L43.8866 23.7493L45.2667 23.0874L45.1809 23.2231V23.1281L45.2667 23.0874L46.1035 22.6939L48.06 21.9641L48.1187 21.9415L48.1728 21.9702C48.5927 22.1858 49.0066 22.4059 49.4325 22.617C49.8643 22.827 50.2768 23.0747 50.6651 23.3573C51.4322 23.9313 52.1155 24.6098 52.6954 25.3731C53.2823 26.1254 53.7681 26.9517 54.1402 27.8308C54.3273 28.2676 54.47 28.7222 54.5661 29.1877C54.6149 29.4211 54.6361 29.6595 54.6293 29.8979C54.634 30.1377 54.5646 30.373 54.4306 30.5718C54.5535 30.3695 54.6108 30.1341 54.5947 29.8979C54.5885 29.663 54.5573 29.4295 54.5014 29.2013C54.3903 28.7437 54.233 28.2986 54.0318 27.873C53.6336 27.0207 53.1333 26.2203 52.5419 25.4892C51.9557 24.758 51.2739 24.1094 50.5146 23.5608C50.1353 23.2886 49.7323 23.0509 49.3106 22.8507C48.8892 22.6456 48.4663 22.424 48.0434 22.2114H48.1563L46.1998 22.9562H46.2118L45.3781 23.3543L45.4638 23.2186V23.3256L45.3781 23.3648L43.992 24.0177L44.0702 23.9197C43.8144 24.963 43.5299 25.9943 43.2154 27.0211C42.9008 28.0479 42.5788 29.055 42.0716 30.023C42.0066 30.1443 41.9352 30.262 41.8579 30.3758C41.7779 30.4886 41.6899 30.5954 41.5945 30.6955C41.405 30.8909 41.2007 31.0713 40.9835 31.2352C40.5517 31.557 40.0947 31.8434 39.6169 32.0916C38.6686 32.5887 37.684 33.0131 36.6716 33.3611Z" fill="white"/>
<path d="M47.1485 25.6876C46.238 27.4803 45.6435 29.0046 45.3425 27.613C45.205 26.9746 45.1319 26.324 45.1243 25.671C45.447 25.2767 45.8601 24.9664 46.3283 24.7664L47.1485 25.6876Z" fill="#363636"/>
<path d="M46.042 23.7489H46.9596C46.9596 23.7489 46.7516 24.7678 46.3192 24.7678C45.8868 24.7678 46.042 23.7489 46.042 23.7489Z" fill="#363636"/>
<path d="M49.951 29.6768L50.3274 29.8368V28.913L49.9133 28.7998L49.951 29.6768Z" fill="#363636"/>
<path d="M48.3245 20.6006V21.9847C48.3246 22.1932 48.2838 22.3998 48.2042 22.5925C48.1247 22.7852 48.0079 22.9603 47.8607 23.1078C47.7135 23.2552 47.5387 23.3722 47.3464 23.4519C47.154 23.5316 46.9479 23.5725 46.7397 23.5723C46.5972 23.5723 46.4605 23.5156 46.3598 23.4147C46.259 23.3137 46.2024 23.1768 46.2024 23.0341V20.6006H48.3245Z" fill="#FFB171"/>
<path d="M48.3245 20.6006V21.3454C48.192 21.3454 48.046 22.0601 47.6743 22.5516C47.283 23.0657 46.2024 23.1125 46.2024 23.1125V20.6458L46.2536 20.6006H48.3245Z" fill="#FF621F"/>
<path d="M46.5904 22.6725C46.1484 22.747 45.6949 22.6426 45.3297 22.3821C44.9646 22.1216 44.7177 21.7265 44.6433 21.2837L44.0927 18.0052L47.4261 17.4434L47.9767 20.7219C48.0135 20.9411 48.0069 21.1655 47.9571 21.3822C47.9074 21.5989 47.8155 21.8037 47.6868 21.9848C47.5581 22.166 47.395 22.3199 47.2069 22.4379C47.0187 22.5559 46.8093 22.6356 46.5904 22.6725Z" fill="#FFB171"/>
<path d="M47.6852 19.5303C47.6852 19.5303 47.4685 17.8402 45.3269 18.2005C43.1853 18.5609 42.4403 16.4395 44.1018 15.6479C45.7633 14.8564 46.4586 16.3053 47.321 16.2299C48.826 16.0987 49.3076 17.2386 48.5401 19.2303L47.6852 19.5303Z" fill="#212121"/>
<path d="M48.3179 20.7607C48.7485 20.7607 49.0975 20.4111 49.0975 19.9797C49.0975 19.5484 48.7485 19.1987 48.3179 19.1987C47.8874 19.1987 47.5383 19.5484 47.5383 19.9797C47.5383 20.4111 47.8874 20.7607 48.3179 20.7607Z" fill="#FFB171"/>
<path d="M45.6575 28.1501C45.686 28.8075 45.6875 29.4604 45.683 30.1102C45.683 30.4359 45.6725 30.76 45.671 31.0857C45.6695 31.4114 45.656 31.734 45.6529 32.0582C45.6439 32.7065 45.6214 33.3549 45.6153 34.0032C45.6093 34.6515 45.6048 35.2983 45.6153 35.9632C45.4336 35.33 45.3172 34.6798 45.2679 34.0228C45.2118 33.3685 45.1917 32.7117 45.2077 32.0552C45.2228 31.3993 45.2634 30.7465 45.3371 30.0951C45.4018 29.4405 45.5088 28.7908 45.6575 28.1501Z" fill="#363636"/>
<path d="M49.6827 33.5944C47.2582 32.2962 43.4836 33.4014 43.4836 33.4014C43.5393 32.9204 43.5739 32.6068 43.5739 32.6068C43.5438 32.6415 43.5333 31.6524 43.5333 31.6524L48.9769 31.0237C48.9769 31.0237 49.2929 31.4172 49.6451 31.9117C49.6391 32.5224 49.6662 33.0968 49.6827 33.5944Z" fill="#363636"/>
<path d="M49.9765 26.8098V31.333C49.9769 31.4692 49.9275 31.6008 49.8376 31.703C49.7478 31.8052 49.6238 31.8709 49.4889 31.8879L46.1388 32.2919L45.0341 32.4261L44.3147 32.5136L43.7293 32.5829L42.5178 32.7337C42.4398 32.7431 42.3607 32.7358 42.2858 32.7122C42.2109 32.6887 42.1418 32.6495 42.0832 32.5971C42.0245 32.5448 41.9777 32.4806 41.9457 32.4087C41.9137 32.3369 41.8974 32.259 41.8977 32.1804V27.6571C41.8974 27.5211 41.9469 27.3898 42.0367 27.2878C42.1266 27.1858 42.2506 27.1204 42.3853 27.1038L44.9438 26.7947L45.5293 26.7239L46.2472 26.6364L47.3518 26.5037L49.355 26.2549C49.4331 26.2455 49.5124 26.2529 49.5875 26.2765C49.6626 26.3001 49.7319 26.3395 49.7907 26.392C49.8494 26.4444 49.8964 26.5088 49.9285 26.5808C49.9605 26.6529 49.9769 26.7309 49.9765 26.8098Z" fill="#808080"/>
<path d="M49.7737 26.6511V31.1743C49.7741 31.3106 49.7247 31.4424 49.6349 31.5448C49.5451 31.6473 49.4211 31.7134 49.2861 31.7306L45.936 32.1332L44.8313 32.2674L44.1134 32.3548L43.5265 32.4242L42.3225 32.575C42.2445 32.5844 42.1654 32.5771 42.0905 32.5535C42.0156 32.53 41.9465 32.4907 41.8878 32.4384C41.8292 32.3861 41.7823 32.3219 41.7504 32.25C41.7184 32.1781 41.702 32.1003 41.7024 32.0216V27.4984C41.7018 27.3621 41.751 27.2304 41.8409 27.1281C41.9308 27.0258 42.055 26.9602 42.19 26.9436L44.7485 26.6345L45.334 26.5636L46.0534 26.4762L47.1565 26.3435L49.1567 26.1007C49.2341 26.0921 49.3125 26.0998 49.3867 26.1235C49.461 26.1471 49.5294 26.1862 49.5876 26.2381C49.6458 26.29 49.6925 26.3536 49.7245 26.4247C49.7566 26.4959 49.7734 26.573 49.7737 26.6511Z" fill="#EDEDED"/>
<path d="M47.1496 26.3391L45.9321 32.1303L44.8274 32.2645L46.0464 26.4718L47.1496 26.3391Z" fill="white"/>
<path d="M45.335 26.5594L44.1175 32.3522L43.5305 32.4215L44.7496 26.6303L45.335 26.5594Z" fill="white"/>
<path d="M43.8527 29.809C43.8536 29.9088 43.8383 30.0081 43.8075 30.103C43.7769 30.1917 43.7311 30.2743 43.6721 30.3473C43.6099 30.4199 43.5343 30.4798 43.4493 30.5237C43.3552 30.5724 43.2534 30.6046 43.1483 30.6186C43.0485 30.6358 42.9462 30.6332 42.8473 30.6111C42.7665 30.5937 42.6904 30.5587 42.6246 30.5086C42.5653 30.4633 42.5178 30.4043 42.4861 30.3367C42.4499 30.2667 42.4304 30.1893 42.429 30.1105C42.4288 30.0932 42.4353 30.0765 42.447 30.0638C42.4578 30.051 42.4727 30.0425 42.4892 30.0397L42.6291 30.0201C42.6607 30.0201 42.6818 30.0336 42.6908 30.0728C42.6995 30.1171 42.7147 30.1598 42.736 30.1995C42.7561 30.2391 42.7855 30.2733 42.8218 30.299C42.8614 30.3273 42.9065 30.3468 42.9542 30.3563C43.0154 30.3678 43.0781 30.3678 43.1393 30.3563C43.2051 30.353 43.2695 30.3362 43.3286 30.3069C43.3876 30.2776 43.44 30.2364 43.4825 30.1859C43.5553 30.0742 43.5911 29.9423 43.5848 29.809V28.8244L42.6336 28.9601C42.6243 28.9615 42.6148 28.9609 42.6057 28.9583C42.5966 28.9557 42.5882 28.9512 42.581 28.9451C42.5742 28.9387 42.5689 28.9309 42.5653 28.9224C42.5616 28.9138 42.5598 28.9046 42.5599 28.8953V28.7943C42.5605 28.7739 42.568 28.7542 42.581 28.7385C42.5946 28.723 42.6133 28.7129 42.6336 28.7099L43.7714 28.5485C43.7807 28.5467 43.7902 28.547 43.7993 28.5494C43.8084 28.5518 43.8169 28.5561 43.8241 28.5622C43.8313 28.5683 43.8371 28.5759 43.841 28.5845C43.8449 28.5931 43.8468 28.6024 43.8467 28.6118L43.8527 29.809Z" fill="#212121"/>
<path d="M44.8726 28.8667C44.96 28.8515 45.0495 28.8541 45.1359 28.8742C45.2091 28.8912 45.2771 28.9253 45.3346 28.9737C45.392 29.0209 45.437 29.0815 45.4655 29.1501C45.4989 29.2277 45.5193 29.3102 45.5257 29.3944C45.5257 29.411 45.5257 29.4306 45.5257 29.4532V29.604C45.5257 29.6281 45.5257 29.6462 45.5257 29.6613C45.5168 29.7511 45.496 29.8393 45.464 29.9236C45.434 30.0017 45.3902 30.0737 45.3346 30.1362C45.2778 30.1979 45.2106 30.2489 45.1359 30.287C45.0536 30.3298 44.9645 30.3579 44.8726 30.3699C44.7846 30.3851 44.6946 30.3826 44.6077 30.3624C44.5348 30.3447 44.4669 30.3107 44.409 30.2629C44.3521 30.2158 44.3073 30.1558 44.2781 30.088C44.2443 30.0101 44.2245 29.9269 44.2194 29.8422C44.2176 29.8236 44.2176 29.805 44.2194 29.7864C44.2194 29.7623 44.2194 29.7382 44.2194 29.714C44.2194 29.6899 44.2194 29.6643 44.2194 29.6417C44.2176 29.6216 44.2176 29.6014 44.2194 29.5814C44.2255 29.4919 44.2453 29.404 44.2781 29.3205C44.3082 29.2417 44.3526 29.1691 44.409 29.1064C44.4664 29.0454 44.5335 28.9945 44.6077 28.9556C44.69 28.9105 44.7797 28.8804 44.8726 28.8667ZM45.2744 29.6779C45.2744 29.6447 45.2744 29.607 45.2744 29.5618C45.2744 29.5165 45.2744 29.4758 45.2744 29.4442C45.2693 29.3925 45.2571 29.3417 45.2383 29.2934C45.2219 29.2498 45.1956 29.2105 45.1615 29.1788C45.1266 29.1475 45.0848 29.1248 45.0396 29.1125C44.9845 29.1007 44.9276 29.1007 44.8726 29.1125C44.8134 29.1202 44.7562 29.1392 44.704 29.1682C44.6577 29.1938 44.6164 29.2275 44.5821 29.2677C44.5487 29.3086 44.5227 29.3551 44.5053 29.405C44.487 29.4566 44.4748 29.5102 44.4692 29.5648C44.4692 29.5995 44.4692 29.6387 44.4692 29.6839C44.4692 29.7291 44.4692 29.7683 44.4692 29.7985C44.4743 29.8502 44.4865 29.9009 44.5053 29.9492C44.5217 29.9929 44.548 30.0321 44.5821 30.0638C44.617 30.0952 44.6588 30.1179 44.704 30.1302C44.7595 30.1426 44.817 30.1426 44.8726 30.1302C44.9312 30.1229 44.9879 30.1045 45.0396 30.0759C45.0859 30.0503 45.1272 30.0166 45.1615 29.9764C45.1949 29.9355 45.2209 29.8891 45.2383 29.8392C45.2568 29.7871 45.2689 29.7329 45.2744 29.6779Z" fill="#212121"/>
<path d="M47.1397 29.9425C47.1394 29.9632 47.1314 29.9831 47.1171 29.9982C47.1038 30.0144 47.0851 30.0251 47.0644 30.0284L46.9636 30.042C46.9543 30.0435 46.9447 30.043 46.9356 30.0404C46.9265 30.0379 46.9181 30.0333 46.9109 30.0272C46.9037 30.021 46.898 30.0133 46.8941 30.0047C46.8902 29.996 46.8882 29.9866 46.8884 29.9771V29.2429C46.8936 29.1883 46.8873 29.1333 46.87 29.0813C46.8526 29.0294 46.8245 28.9817 46.7875 28.9413C46.7481 28.9097 46.702 28.8873 46.6528 28.8758C46.6036 28.8644 46.5524 28.8641 46.5031 28.875C46.3943 28.8885 46.2944 28.9423 46.2231 29.0258C46.1477 29.1203 46.1102 29.2397 46.1178 29.3605V30.0947C46.1175 30.1155 46.1095 30.1354 46.0952 30.1505C46.0819 30.1667 46.0632 30.1774 46.0425 30.1807L45.9402 30.1943C45.9312 30.1959 45.9219 30.1956 45.9131 30.1932C45.9042 30.1909 45.896 30.1866 45.889 30.1807C45.8819 30.1745 45.8762 30.1669 45.8723 30.1583C45.8684 30.1497 45.8664 30.1404 45.8665 30.1309V28.3005C45.8677 28.2801 45.8755 28.2606 45.8888 28.2451C45.9022 28.2296 45.9202 28.2188 45.9402 28.2146L46.0425 28.201C46.0518 28.1993 46.0613 28.1997 46.0704 28.202C46.0795 28.2043 46.088 28.2086 46.0952 28.2146C46.1026 28.2209 46.1084 28.2288 46.1123 28.2377C46.1162 28.2465 46.1181 28.2562 46.1178 28.2659V28.8795C46.1589 28.8209 46.2098 28.7699 46.2683 28.7287C46.3494 28.6746 46.4423 28.641 46.5392 28.6307C46.6193 28.6175 46.7012 28.6205 46.78 28.6398C46.8507 28.6556 46.9164 28.6891 46.9708 28.7371C47.0252 28.785 47.0668 28.8459 47.0915 28.9142C47.1218 28.9957 47.1366 29.0821 47.1352 29.169L47.1397 29.9425Z" fill="#212121"/>
<path d="M48.8116 29.7049C48.8114 29.7254 48.8039 29.7452 48.7905 29.7607C48.7774 29.777 48.7586 29.7878 48.7378 29.7908L48.6355 29.8059C48.6261 29.8073 48.6166 29.8067 48.6075 29.8041C48.5984 29.8015 48.59 29.7969 48.5828 29.7908C48.5761 29.7844 48.5707 29.7767 48.5671 29.7681C48.5635 29.7596 48.5617 29.7504 48.5617 29.7411V29.0068C48.5664 28.9522 48.5597 28.8972 48.5421 28.8453C48.5245 28.7934 48.4963 28.7457 48.4594 28.7052C48.4199 28.6737 48.3738 28.6515 48.3246 28.6402C48.2753 28.629 48.2242 28.6291 48.175 28.6404C48.0665 28.655 47.967 28.7086 47.895 28.7912C47.8201 28.886 47.7826 29.0052 47.7897 29.1259V29.8617C47.7891 29.8824 47.7811 29.9022 47.7671 29.9175C47.7543 29.9332 47.736 29.9434 47.7159 29.9461L47.6136 29.9612C47.6042 29.9627 47.5947 29.9622 47.5856 29.9596C47.5765 29.9571 47.568 29.9526 47.5609 29.9464C47.5537 29.9402 47.5479 29.9325 47.544 29.9239C47.5402 29.9152 47.5382 29.9058 47.5383 29.8964V28.5997C47.5386 28.5789 47.5467 28.559 47.5609 28.5439C47.5742 28.5278 47.5929 28.517 47.6136 28.5138L47.7159 28.5002C47.725 28.4983 47.7345 28.4988 47.7434 28.5014C47.7523 28.504 47.7604 28.5088 47.7671 28.5153C47.7745 28.5212 47.7804 28.5288 47.7843 28.5374C47.7883 28.5461 47.7901 28.5555 47.7897 28.565V28.651C47.8312 28.5927 47.8821 28.5418 47.9402 28.5002C48.0219 28.4462 48.1153 28.4126 48.2126 28.4022C48.2922 28.3899 48.3734 28.3929 48.4519 28.4112C48.5219 28.4278 48.5869 28.4609 48.6415 28.5077C48.6954 28.5567 48.7372 28.6176 48.7634 28.6856C48.7943 28.7675 48.8092 28.8545 48.8071 28.942L48.8116 29.7049Z" fill="#212121"/>
<path d="M50.3472 28.1967L49.4668 27.9163C49.4483 27.9102 49.429 27.9072 49.4096 27.9072H48.6872C48.6558 27.9073 48.625 27.9151 48.5974 27.9302C48.5699 27.9452 48.5465 27.9669 48.5295 27.9932C48.5124 28.0196 48.5022 28.0498 48.4998 28.0811C48.4974 28.1125 48.5028 28.1439 48.5156 28.1726L48.6872 28.5616C48.7016 28.5952 48.7256 28.6238 48.7561 28.6439C48.7866 28.664 48.8223 28.6747 48.8588 28.6747H49.4894C49.5221 28.6742 49.5543 28.6826 49.5827 28.6988L50.3352 29.127L50.3472 28.1967Z" fill="#FFB171"/>
<path d="M47.2649 33.8977C47.4318 33.8798 47.6005 33.8889 47.7646 33.9249C47.9199 33.9591 48.0713 34.0096 48.2161 34.0757C48.3605 34.1379 48.4978 34.2158 48.6254 34.3079C48.7634 34.4042 48.8845 34.523 48.9836 34.6592C48.8168 34.6791 48.6478 34.6705 48.4839 34.6335C48.175 34.568 47.8829 34.4392 47.6261 34.2551C47.4865 34.1571 47.3644 34.0363 47.2649 33.8977Z" fill="#363636"/>
<path d="M43.218 34.5225C43.2713 34.4118 43.3479 34.314 43.4425 34.2357C43.5247 34.1656 43.6172 34.1086 43.7167 34.0666C43.816 34.0248 43.9213 33.9988 44.0286 33.9896C44.1507 33.9774 44.2739 33.9913 44.3902 34.0304C44.3369 34.1411 44.2603 34.2389 44.1657 34.3172C44.0838 34.3873 43.9912 34.4438 43.8915 34.4847C43.792 34.5264 43.6869 34.5528 43.5796 34.5632C43.4576 34.5747 43.3345 34.5608 43.218 34.5225Z" fill="#363636"/>
<path d="M47.5181 53.5479H45.1237C44.9341 53.5479 44.7805 53.7018 44.7805 53.8916C44.7805 54.0815 44.9341 54.2354 45.1237 54.2354H47.5181C47.7076 54.2354 47.8613 54.0815 47.8613 53.8916C47.8613 53.7018 47.7076 53.5479 47.5181 53.5479Z" fill="#363636"/>
<path d="M54.3353 53.5479H53.0455C52.856 53.5479 52.7024 53.7018 52.7024 53.8916C52.7024 54.0815 52.856 54.2354 53.0455 54.2354H54.3353C54.5248 54.2354 54.6785 54.0815 54.6785 53.8916C54.6785 53.7018 54.5248 53.5479 54.3353 53.5479Z" fill="#363636"/>
<path d="M44.4606 30.5613C45.9235 30.5613 47.1094 29.3732 47.1094 27.9076C47.1094 26.4421 45.9235 25.254 44.4606 25.254C42.9977 25.254 41.8118 26.4421 41.8118 27.9076C41.8118 29.3732 42.9977 30.5613 44.4606 30.5613Z" fill="url(#paint1_radial_365_6855)"/>
</g>
</g>
<defs>
<filter id="filter0_d_365_6855" x="0.518057" y="0.641893" width="78.3098" height="78.31" filterUnits="userSpaceOnUse" color-interpolation-filters="sRGB">
<feFlood flood-opacity="0" result="BackgroundImageFix"/>
<feColorMatrix in="SourceAlpha" type="matrix" values="0 0 0 0 0 0 0 0 0 0 0 0 0 0 0 0 0 0 127 0" result="hardAlpha"/>
<feOffset dy="3.57305"/>
<feGaussianBlur stdDeviation="2.23316"/>
<feComposite in2="hardAlpha" operator="out"/>
<feColorMatrix type="matrix" values="0 0 0 0 0 0 0 0 0 0 0 0 0 0 0 0 0 0 0.04 0"/>
<feBlend mode="normal" in2="BackgroundImageFix" result="effect1_dropShadow_365_6855"/>
<feBlend mode="normal" in="SourceGraphic" in2="effect1_dropShadow_365_6855" result="shape"/>
</filter>
<linearGradient id="paint0_linear_365_6855" x1="20.7338" y1="-169.74" x2="95.8554" y2="-162.832" gradientUnits="userSpaceOnUse">
<stop stop-color="#0172B1"/>
<stop offset="1" stop-color="#0CAFE0"/>
</linearGradient>
<radialGradient id="paint1_radial_365_6855" cx="0" cy="0" r="1" gradientUnits="userSpaceOnUse" gradientTransform="translate(44.4606 27.9076) scale(2.6488 2.65362)">
<stop stop-color="white"/>
<stop offset="1" stop-color="white" stop-opacity="0"/>
</radialGradient>
</defs>
</svg>
