<svg width="80" height="79" viewBox="0 0 80 79" fill="none" xmlns="http://www.w3.org/2000/svg">
<g filter="url(#filter0_d_365_6954)">
<circle cx="34.6886" cy="34.6886" r="34.6886" transform="matrix(-1 0 0 1 74.6406 1.53516)" fill="#D60673"/>
<circle cx="34.6886" cy="34.6886" r="34.6886" transform="matrix(-1 0 0 1 74.6406 1.53516)" fill="url(#paint0_linear_365_6954)"/>
<g filter="url(#filter1_d_365_6954)">
<mask id="mask0_365_6954" style="mask-type:alpha" maskUnits="userSpaceOnUse" x="5" y="1" width="70" height="70">
<circle cx="34.6886" cy="34.6886" r="34.6886" transform="matrix(-1 0 0 1 74.6406 1.53516)" fill="#598CFF"/>
</mask>
<g mask="url(#mask0_365_6954)">
<rect opacity="0.5" width="81.8316" height="10.5969" transform="matrix(-1 0 0 1 79.9766 39.3925)" fill="#058BC4"/>
<path d="M19.039 47.4887C22.4001 47.4887 25.1249 45.1977 25.1249 42.3717C25.1249 39.5457 22.4001 37.2548 19.039 37.2548C15.6779 37.2548 12.9531 39.5457 12.9531 42.3717C12.9531 45.1977 15.6779 47.4887 19.039 47.4887Z" fill="black"/>
<path d="M58.9218 47.4887C62.283 47.4887 65.0077 45.1977 65.0077 42.3717C65.0077 39.5457 62.283 37.2548 58.9218 37.2548C55.5607 37.2548 52.8359 39.5457 52.8359 42.3717C52.8359 45.1977 55.5607 47.4887 58.9218 47.4887Z" fill="black"/>
<path d="M23.026 42.7242C23.026 42.764 23.026 42.8039 23.026 42.8437C22.9886 44.0583 22.4808 45.2106 21.61 46.0565C20.7393 46.9024 19.574 47.3755 18.361 47.3755C17.1481 47.3755 15.9828 46.9024 15.112 46.0565C14.2412 45.2106 13.7334 44.0583 13.696 42.8437C13.696 42.8039 13.696 42.7655 13.696 42.7256C13.685 42.1047 13.7976 41.4878 14.0272 40.911C14.2567 40.3341 14.5987 39.8089 15.0331 39.3659C15.4675 38.9229 15.9857 38.571 16.5573 38.3308C17.1289 38.0906 17.7426 37.9669 18.3625 37.9669C18.9824 37.9669 19.596 38.0906 20.1677 38.3308C20.7393 38.571 21.2574 38.9229 21.6919 39.3659C22.1263 39.8089 22.4682 40.3341 22.6978 40.911C22.9274 41.4878 23.0399 42.1047 23.0289 42.7256L23.026 42.7242Z" fill="#525252"/>
<path d="M71.2509 41.6354C71.2244 42.0354 71.1213 42.8648 70.9563 43.1954C70.5718 43.9659 68.2544 43.9452 65.8545 44.0603C65.5713 44.0741 65.2925 43.9863 65.0681 43.8126C64.8437 43.6389 64.6885 43.3908 64.6303 43.1128C64.6374 42.947 64.6349 42.7809 64.6229 42.6154C64.6398 42.3796 64.6398 42.1428 64.6229 41.907C64.5259 40.627 63.9585 39.4286 63.0303 38.5437C62.1022 37.6587 60.8794 37.1501 59.5985 37.1163C58.3177 37.0825 57.0699 37.526 56.0965 38.3607C55.1232 39.1955 54.4936 40.3624 54.3295 41.6354C54.3023 41.8553 54.2885 42.0766 54.2882 42.2981C54.2882 42.4088 54.2882 42.518 54.2985 42.6272C54.3089 42.7364 53.9803 42.884 53.9803 42.9918C53.9803 43.287 52.4717 43.5113 52.5204 43.7947C52.3951 44.2374 53.8463 44.6094 53.3483 44.633L53.201 44.6404L24.0179 44.8986H23.9708C23.6909 44.8824 23.8323 44.6905 23.7248 44.4559C23.8927 43.9113 23.6084 43.3534 23.5863 42.7468C23.5863 42.701 23.5863 42.6567 23.5774 42.6125C23.5863 42.5136 23.5892 42.4132 23.5892 42.3173C23.5892 42.2464 23.5892 42.1697 23.5892 42.1033C23.5563 41.2225 23.2976 40.365 22.8379 39.6134C22.2556 38.6396 21.3701 37.8844 20.3177 37.4639C19.2652 37.0434 18.104 36.9808 17.0126 37.2858C15.9212 37.5908 14.9599 38.2465 14.2767 39.1521C13.5935 40.0576 13.2261 41.163 13.231 42.2981C13.231 42.3837 13.231 42.4767 13.2443 42.5756C13.2354 42.6976 13.231 42.8215 13.231 42.9475C13.231 43.1925 12.9364 43.4729 12.9953 43.7784C12.8583 44.2315 12.7463 44.5946 12.2307 44.5533C11.1803 44.4691 9.87353 44.0898 9.54794 43.9024C9.44776 43.8448 9.78955 43.7991 9.74388 43.7253C9.78071 43.619 9.69969 43.5334 9.74388 43.4301C9.76156 43.3873 9.77335 43.3239 9.79103 43.2825C9.8529 43.1349 9.58477 42.9873 9.56857 42.8589C9.55713 42.7725 9.5389 42.6872 9.51406 42.6036C9.43011 42.336 9.36755 42.0621 9.32696 41.7845C9.3036 41.6038 9.30857 41.4205 9.34169 41.2414C9.3807 41.0406 9.44506 40.8457 9.53321 40.6613C9.59804 40.5199 9.67701 40.3854 9.76893 40.2599C9.76893 40.0385 9.75714 39.8289 9.75272 39.6326C9.74388 39.364 9.73946 39.1175 9.75272 38.8947C9.80134 37.8173 10.1947 37.1413 12.2749 36.4639C12.5695 36.3694 12.8804 36.2764 13.2339 36.182C17.1012 35.1488 26.4929 34.343 26.4929 34.343C28.4818 33.7954 33.1961 30.0629 35.6638 29.2452C38.1314 28.4276 51.7955 28.0276 54.2264 29.0238L54.3442 29.0725C56.8796 30.1499 63.8657 34.1983 65.4965 34.7798C65.5967 34.8123 65.6983 34.8418 65.8029 34.8684C66.2458 34.9745 66.6951 35.0514 67.148 35.0986C67.4029 35.1296 67.6577 35.1562 67.9023 35.1842C68.823 35.2861 69.6259 35.4012 69.9501 35.7894C70.1035 36.0186 70.2088 36.2767 70.2594 36.548C70.3007 36.7177 70.339 36.9037 70.3714 37.0985C70.3832 37.1693 70.395 37.2461 70.4053 37.314C70.4289 37.4616 70.4495 37.618 70.4686 37.7745C70.616 38.9552 70.6484 40.2038 70.669 40.2628C70.9077 40.9624 71.2023 40.8724 71.2509 41.6354Z" fill="#8F8F8F"/>
<path d="M71.2509 42.1648C71.2244 42.5648 71.1213 43.3942 70.9563 43.7248C70.5718 44.4953 68.2544 44.4746 65.8545 44.5897C65.5713 44.6035 65.2925 44.5157 65.0681 44.342C64.8437 44.1683 64.6885 43.9202 64.6303 43.6422C64.6374 43.4764 64.6349 43.3103 64.6229 43.1448C64.6398 42.909 64.6398 42.6722 64.6229 42.4364C64.5259 41.1564 63.9585 39.958 63.0303 39.0731C62.1022 38.1881 60.8794 37.6795 59.5985 37.6457C58.3177 37.6119 57.0699 38.0553 56.0965 38.8901C55.1232 39.7249 54.4936 40.8918 54.3295 42.1648C54.3023 42.3847 54.2885 42.606 54.2882 42.8275C54.2882 42.9382 54.2882 43.0474 54.2985 43.1566C54.3089 43.2658 54.2882 43.3691 54.2882 43.4769C54.288 43.7697 54.3127 44.062 54.3619 44.3506C54.2998 44.5756 54.1684 44.7752 53.9864 44.921C53.8044 45.0668 53.5811 45.1512 53.3483 45.1624H53.201L24.0091 45.4251H23.962C23.8318 45.4182 23.706 45.376 23.5981 45.3029C23.4901 45.2299 23.404 45.1287 23.3491 45.0104C23.5221 44.4498 23.5993 43.864 23.5774 43.2776C23.5774 43.2319 23.5774 43.1876 23.5686 43.1433C23.5774 43.0445 23.5804 42.9441 23.5804 42.8482C23.5804 42.7773 23.5804 42.7006 23.5804 42.6342C23.5475 41.7533 23.2887 40.8959 22.829 40.1443C22.245 39.1749 21.36 38.424 20.3095 38.0063C19.259 37.5886 18.1008 37.5273 17.0121 37.8316C15.9235 38.1359 14.9644 38.7892 14.2815 39.6914C13.5987 40.5937 13.2297 41.6952 13.231 42.8275C13.231 42.9131 13.231 43.0061 13.2443 43.105C13.2354 43.228 13.231 43.3519 13.231 43.4769C13.2384 43.7666 13.2685 44.0553 13.3209 44.3403C13.2504 44.5694 13.1039 44.7676 12.9056 44.9018C12.7073 45.036 12.4692 45.0983 12.2307 45.0782C11.1803 44.9941 9.87353 44.6148 9.54794 44.4274C9.45902 44.3822 9.38298 44.3152 9.32696 44.2326C9.36379 44.1263 9.40946 44.0185 9.45366 43.9152L9.50669 43.7898C9.56244 43.6638 9.58233 43.5249 9.56415 43.3883C9.55271 43.3019 9.53448 43.2165 9.50964 43.133C9.42719 42.8652 9.3661 42.5913 9.32696 42.3139C9.3036 42.1332 9.30857 41.9499 9.34169 41.7707C9.3807 41.57 9.44506 41.3751 9.53321 41.1907C9.59774 41.0503 9.67622 40.9168 9.76745 40.7922C9.76745 40.5708 9.75567 40.3613 9.75125 40.165C9.74241 39.8963 9.73799 39.6499 9.75125 39.427C9.79986 38.3496 10.1932 37.6736 12.2734 36.9962C12.568 36.9017 12.8789 36.8088 13.2325 36.7143C17.0997 35.6812 26.4915 34.8753 26.4915 34.8753C28.4803 34.3278 33.1946 30.5952 35.6623 29.7776C38.1299 28.9599 51.7941 28.5599 54.2249 29.5562L54.3427 29.6049C56.8782 30.6823 63.8642 34.7307 65.495 35.3122C65.5952 35.3447 65.6969 35.3742 65.8015 35.4008C66.2443 35.5069 66.6936 35.5838 67.1465 35.631C68.3605 35.7786 69.5376 35.8302 69.9456 36.3217C70.0991 36.5509 70.2044 36.809 70.255 37.0803C70.2963 37.2501 70.3346 37.436 70.367 37.6308C70.4038 37.8478 70.4362 38.0736 70.4642 38.3068C70.6115 39.4875 70.6439 40.7361 70.6646 40.7952C70.9077 41.4918 71.2023 41.4018 71.2509 42.1648Z" fill="#0F0F0F"/>
<path d="M55.3647 39.6688C54.8035 40.3979 54.4474 41.2642 54.3334 42.1778C54.0594 42.169 35.1535 41.5874 23.5873 42.8567C23.5873 42.7859 23.5873 42.7091 23.5873 42.6427C23.5544 41.7619 23.2956 40.9044 22.8359 40.1529C23.0658 40.1115 42.8791 38.3301 55.3647 39.6688Z" fill="#171717"/>
<path d="M58.421 35.4231C58.4637 36.899 52.9701 37.5838 51.9815 43.1302L41.448 43.2247C41.448 43.2247 40.9338 38.5874 41.6321 33.9265L41.3596 33.8999C41.5646 32.3879 41.9781 30.9117 42.5883 29.5135C42.5883 29.5135 42.8564 29.4973 43.3116 29.4825C45.0795 29.4265 49.6656 29.3984 52.1274 30.4552C54.5626 31.5016 57.0376 33.066 57.9996 34.4062C58.2362 34.6966 58.3827 35.0501 58.421 35.4231Z" stroke="black" stroke-width="0.593368" stroke-miterlimit="10"/>
<path d="M42.587 29.5063C42.453 30.0671 42.3395 30.6309 42.2349 31.1977C42.1303 31.7644 42.0331 32.3312 41.9403 32.9009C41.7723 34.0417 41.6457 35.1797 41.5573 36.3279C41.4689 37.4762 41.4173 38.623 41.4247 39.7697C41.4301 40.9196 41.495 42.0684 41.6191 43.2115L41.6383 43.3975H41.4497C39.0616 43.4787 36.675 43.5333 34.2869 43.6041L30.7055 43.703C29.5122 43.737 28.3174 43.7694 27.1241 43.793H26.9385L26.9061 43.6145C26.7587 42.7821 26.6527 41.9526 26.5805 41.1158C26.5055 40.2767 26.4829 39.4338 26.5127 38.592C26.5296 38.1678 26.5714 37.7449 26.6379 37.3256C26.7022 36.899 26.8149 36.481 26.9738 36.08C27.0575 35.873 27.1621 35.6752 27.2862 35.4896C27.3529 35.3976 27.4247 35.3094 27.5012 35.2254C27.5798 35.1453 27.6629 35.0699 27.7502 34.9996C28.0817 34.7325 28.4235 34.4875 28.7726 34.2617L28.6916 34.4093V34.3089L28.7726 34.2572C29.8113 33.5724 30.8838 32.9496 31.9798 32.3696C33.0759 31.7895 34.1897 31.2464 35.3314 30.7652C35.9045 30.5276 36.482 30.3003 37.0742 30.1144C37.6644 29.9155 38.2714 29.7708 38.8878 29.6819C39.5021 29.6126 40.1179 29.5521 40.7352 29.5107C41.0426 29.4901 41.3515 29.4768 41.6619 29.4709C41.9707 29.462 42.2798 29.4738 42.587 29.5063ZM42.587 29.5063C42.2788 29.4881 41.9697 29.4906 41.6619 29.5137C41.3554 29.5314 41.0475 29.5594 40.7411 29.5889C40.1268 29.6495 39.5154 29.7277 38.904 29.8162C38.3012 29.9214 37.7095 30.082 37.1361 30.2959L36.7045 30.4538L36.2758 30.6265C35.99 30.7372 35.71 30.8656 35.4257 30.9852C34.3016 31.484 33.2026 32.0449 32.1257 32.6396C31.0488 33.2344 29.9939 33.875 28.9818 34.5686L29.0629 34.4211V34.517L28.9804 34.5746C28.6415 34.8092 28.3056 35.0483 27.9918 35.3125C27.8421 35.4303 27.7109 35.5702 27.6029 35.7272C27.4951 35.8894 27.4048 36.0626 27.3333 36.2438C27.0387 36.9817 26.9517 37.8097 26.9149 38.6259C26.8916 39.4499 26.9192 40.2745 26.9974 41.0951C27.074 41.9172 27.183 42.7422 27.3318 43.548L27.1123 43.3591C28.3071 43.3222 29.5004 43.2957 30.6952 43.2706L34.2766 43.1938C36.6647 43.1451 39.0528 43.0817 41.4409 43.0462L41.2715 43.2381C41.1696 42.0849 41.1273 40.9273 41.1448 39.7697C41.1595 38.6126 41.2287 37.4585 41.3407 36.3087C41.4527 35.159 41.6265 34.0137 41.8269 32.8802C42.0272 31.7467 42.2688 30.6162 42.5856 29.5063H42.587Z" fill="black"/>
<path d="M59.471 47.3998C62.0136 47.3998 64.0748 45.3349 64.0748 42.7876C64.0748 40.2404 62.0136 38.1754 59.471 38.1754C56.9284 38.1754 54.8672 40.2404 54.8672 42.7876C54.8672 45.3349 56.9284 47.3998 59.471 47.3998Z" fill="#525252"/>
<path d="M70.2561 37.073C68.9744 36.7173 65.1205 35.6798 63.0226 35.4746C60.4813 35.2267 49.3113 35.327 49.3113 35.327L34.7809 35.4362C34.7809 35.4362 28.3739 35.3123 23.6964 35.7314C17.559 36.2893 13.3632 37.6294 13.3632 37.6294L11.8281 37.7962L12.2701 36.9874C12.5647 36.893 12.8756 36.8 13.2292 36.7055C17.0964 35.6724 26.4882 34.8665 26.4882 34.8665C28.477 34.319 33.1913 30.5864 35.659 29.7688C38.1266 28.9511 51.7908 28.5512 54.2216 29.5474L54.3394 29.5961C56.8748 30.6735 63.8609 34.7219 65.4917 35.3034C67.0931 35.817 69.3457 35.5986 69.9482 36.3144C70.1012 36.5437 70.2059 36.8018 70.2561 37.073Z" fill="#212121"/>
<path d="M12.8948 38.896C12.6001 39.1129 12.2775 39.3269 11.9726 39.5173C11.2359 39.9837 10.573 40.3128 10.4787 40.2198C10.3063 40.0486 10.2872 39.2635 10.6481 38.5624C10.7928 38.2745 10.9996 38.0224 11.2536 37.8244C11.5181 37.6268 11.8112 37.471 12.1228 37.3625C13.0068 37.0407 14.01 37.0422 14.2546 37.4378C14.4019 37.6724 13.7183 38.2967 12.8948 38.896Z" fill="#8A8A8A"/>
<path d="M12.9339 38.6799C12.6392 38.8968 12.3166 39.1109 12.0116 39.3012C11.275 39.7676 10.6121 40.0967 10.5178 40.0038C10.3454 39.8326 10.3263 39.0474 10.6872 38.3463C10.8319 38.0584 11.0387 37.8063 11.2927 37.6084C11.5571 37.4108 11.8503 37.255 12.1619 37.1464C13.0458 36.8247 14.0491 36.8262 14.2936 37.2217C14.441 37.4549 13.7574 38.0807 12.9339 38.6799Z" fill="#C2D5FF"/>
<path d="M12.9362 38.6799C12.6975 38.5628 12.4964 38.3809 12.3557 38.155C12.2151 37.929 12.1406 37.6681 12.1406 37.4018C12.1402 37.3151 12.1481 37.2286 12.1642 37.1435C13.0481 36.8217 14.0514 36.8232 14.296 37.2188C14.4433 37.4549 13.7597 38.0807 12.9362 38.6799Z" fill="white"/>
<path d="M12.0116 39.3013C11.275 39.7677 10.6121 40.0969 10.5178 40.0039C10.3454 39.8327 10.3263 39.0475 10.6872 38.3464C10.9793 38.3495 11.2633 38.4428 11.5003 38.6138C11.7374 38.7847 11.916 39.0249 12.0116 39.3013Z" fill="white"/>
<path d="M25.0703 43.8016C27.4378 43.5817 29.8067 43.4371 32.1757 43.3205C33.3542 43.2556 34.5461 43.2187 35.7305 43.1729L39.2869 43.0681L42.8447 43.0106L44.6244 43.0017C45.2137 43.0017 45.803 43.0017 46.404 43.0017C47.0051 43.0017 47.5915 43.0017 48.1837 43.0224L49.9648 43.0637C50.5541 43.0888 51.1434 43.1035 51.7445 43.139L52.6284 43.1921C52.9231 43.2172 53.2177 43.2511 53.5123 43.2792C53.2177 43.288 52.9231 43.2925 52.6284 43.3043L51.7445 43.3426L49.9678 43.4268L46.4129 43.5744C45.2343 43.6275 44.0439 43.6585 42.8595 43.7013L39.3046 43.7987L35.7482 43.8622C34.5697 43.8725 33.3763 43.8931 32.1904 43.8917C29.8185 43.905 27.4466 43.8887 25.0703 43.8016Z" fill="#363636"/>
<path d="M70.3737 37.6232C67.688 35.8064 58.6498 35.7326 58.6498 35.7326C58.6498 35.7326 35.7368 35.9259 27.7122 35.9259C19.9336 35.9259 14.6005 37.3398 14.2734 37.4284C19.7111 35.6012 27.7858 35.2278 27.7858 35.2278C27.7858 35.2278 40.1064 34.9459 50.2112 34.9459C56.8643 34.9459 62.6364 35.2101 65.8023 35.3887C67.3713 35.7872 69.3852 35.6337 69.9494 36.3097C70.1029 36.5389 70.2082 36.797 70.2588 37.0683C70.303 37.2424 70.3413 37.4284 70.3737 37.6232Z" fill="#363636"/>
<path d="M42.8014 33.872C42.4478 33.9233 42.0898 33.9377 41.7333 33.9148L41.3738 33.8986H41.3606L41.0659 33.8882C40.2483 33.8617 39.3776 33.8573 38.4922 33.8676C38.0016 33.8676 37.5051 33.8853 37.0116 33.9001L36.4488 33.9192C36.1881 33.9281 35.9288 33.9384 35.6724 33.9502C32.0513 34.1067 28.875 34.4181 28.875 34.4181C31.216 32.8271 34.5528 30.6029 36.1969 30.166C37.679 29.7705 40.3706 29.5845 40.7831 29.552C41.2353 29.5151 41.5845 29.4974 41.8497 29.4915C41.969 29.4915 42.0706 29.4915 42.1576 29.4915C42.3008 29.4887 42.444 29.4956 42.5863 29.5122C42.5863 29.5122 42.8544 29.496 43.3096 29.4812C44.0831 30.746 45.3987 33.4706 42.8014 33.872Z" fill="#C2D5FF"/>
<path d="M56.6703 32.9755C56.7637 33.0517 56.8309 33.1554 56.8624 33.2718C56.894 33.3883 56.8883 33.5117 56.8462 33.6248C56.8041 33.7378 56.7277 33.8348 56.6276 33.9021C56.5276 33.9694 56.4091 34.0036 56.2887 33.9998C53.4012 33.9142 48.8592 33.8286 45.4237 33.8522C44.3924 33.8522 43.4938 33.867 42.8013 33.8773L41.7377 33.8965L41.3738 33.9039H41.3605L41.2736 32.918L41.0703 30.6023L41.8541 29.4954C41.9734 29.4954 42.075 29.4954 42.162 29.4954C42.3052 29.4925 42.4484 29.4994 42.5907 29.516C42.5907 29.516 42.8588 29.4998 43.314 29.485C43.7015 29.4732 44.223 29.4614 44.8285 29.4629C46.9882 29.4629 50.2058 29.6326 52.1298 30.4577C53.8947 31.2074 55.5344 32.0546 56.6703 32.9755Z" fill="#C2D5FF"/>
<path d="M28.875 34.4146C29.8738 33.6767 30.8874 32.9387 31.9305 32.2628C32.45 31.9194 32.9794 31.5888 33.5186 31.271C34.0564 30.9473 34.6106 30.6517 35.1789 30.3854C35.3262 30.322 35.4647 30.2541 35.6209 30.1994C35.696 30.1729 35.7682 30.1419 35.8433 30.1153L36.0746 30.0445C36.3788 29.9604 36.6872 29.8919 36.9983 29.8393C37.6156 29.7272 38.2373 29.6593 38.8576 29.5943C39.4778 29.5294 40.101 29.4895 40.7227 29.4615C41.0335 29.4482 41.3473 29.4394 41.6582 29.4335C41.8143 29.4261 41.9705 29.4335 42.1266 29.4335C42.2839 29.4363 42.4408 29.4486 42.5966 29.4704C42.8382 29.4704 43.0798 29.4704 43.3214 29.4704C43.0813 29.491 42.8397 29.5146 42.5995 29.5323C42.446 29.5227 42.292 29.5227 42.1384 29.5323C41.9911 29.5323 41.829 29.5441 41.6744 29.5619L40.7477 29.6416C40.1289 29.705 39.5117 29.767 38.8959 29.8467C38.2801 29.9264 37.6672 30.0091 37.0617 30.1227C36.7598 30.1761 36.4608 30.245 36.166 30.3293L35.9524 30.3972C35.8802 30.4223 35.805 30.4518 35.7387 30.4799C35.5914 30.5315 35.4559 30.595 35.3159 30.657C34.7561 30.9079 34.2125 31.2075 33.6718 31.5071C33.1311 31.8067 32.5993 32.1299 32.0675 32.4517C30.9847 33.0981 29.9357 33.7652 28.875 34.4146Z" fill="white"/>
<path d="M43.3047 29.4752C44.5674 29.3804 45.8345 29.3588 47.0997 29.4102C48.3718 29.4483 49.6373 29.6094 50.8785 29.8914C51.0332 29.9283 51.1879 29.974 51.3426 30.0153C51.4973 30.0567 51.6475 30.1157 51.7993 30.1629C51.951 30.2102 52.1028 30.2795 52.2413 30.343L52.6832 30.5349C53.2592 30.7976 53.8323 31.0706 54.3907 31.3761C54.951 31.6772 55.4891 32.018 56.0009 32.396C56.2566 32.587 56.5025 32.7909 56.7375 33.007C56.7697 33.0337 56.7989 33.0639 56.8244 33.097C56.8489 33.1319 56.8669 33.1709 56.8775 33.2121C56.9009 33.291 56.9084 33.3738 56.8996 33.4557C56.897 33.5362 56.8753 33.6151 56.8364 33.6856C56.7975 33.7562 56.7424 33.8165 56.6757 33.8615C56.737 33.8134 56.7862 33.7514 56.8192 33.6806C56.8523 33.6098 56.8682 33.5323 56.8657 33.4542C56.8735 33.3789 56.8618 33.3029 56.8319 33.2334C56.802 33.1639 56.7548 33.1032 56.6948 33.0572C56.4478 32.8627 56.1912 32.6809 55.9258 32.5126C55.397 32.1727 54.849 31.8637 54.2846 31.5872C53.7233 31.3053 53.1488 31.0485 52.5713 30.7961L52.1381 30.6086C51.9908 30.5467 51.8435 30.495 51.7065 30.4374C51.5695 30.3799 51.4118 30.34 51.2645 30.2898C51.1172 30.2397 50.9699 30.2028 50.8137 30.1659C49.5875 29.8885 48.3411 29.7103 47.0864 29.6331C45.8298 29.5371 44.5687 29.4855 43.3047 29.4752Z" fill="white"/>
<path d="M45.4281 33.8445C44.3968 33.8445 43.4982 33.8592 42.8058 33.8696C42.4522 33.9209 42.0942 33.9352 41.7377 33.9124L41.3782 33.8961H41.365L41.0703 33.8858L41.2736 32.9102L42.0397 29.2662C42.0397 29.2662 44.2097 29.2662 44.8152 29.2662L45.4281 33.8445Z" fill="#212121"/>
<path d="M40.376 36.4398V36.9859H40.1741C40.1771 36.9555 40.1734 36.9249 40.1631 36.8962C40.1528 36.8675 40.1363 36.8415 40.1147 36.82C40.0931 36.7985 40.067 36.7821 40.0383 36.772C40.0096 36.7619 39.979 36.7583 39.9487 36.7615H38.3164C38.2869 36.7611 38.2576 36.7667 38.2302 36.7778C38.2029 36.7889 38.178 36.8054 38.1572 36.8263C38.1363 36.8473 38.1198 36.8721 38.1087 36.8995C38.0976 36.9269 38.0921 36.9563 38.0925 36.9859H37.8906V36.4398C37.891 36.3679 37.9197 36.299 37.9704 36.2482C38.0212 36.1973 38.0899 36.1686 38.1617 36.1682H40.1064C40.178 36.1686 40.2466 36.1974 40.2971 36.2483C40.3476 36.2992 40.376 36.368 40.376 36.4398Z" fill="#474747"/>
<path d="M40.1285 36.1667H38.1396C38.0021 36.1667 37.8906 36.2781 37.8906 36.4154C37.8906 36.5528 38.0021 36.6641 38.1396 36.6641H40.1285C40.266 36.6641 40.3774 36.5528 40.3774 36.4154C40.3774 36.2781 40.266 36.1667 40.1285 36.1667Z" fill="#EA4C81"/>
<path d="M55.4556 36.4398V36.9859H55.2537C55.2568 36.9554 55.253 36.9246 55.2426 36.8958C55.2323 36.867 55.2156 36.8409 55.1938 36.8194C55.1721 36.7978 55.1458 36.7815 55.1169 36.7715C55.088 36.7615 55.0572 36.7581 55.0268 36.7615H53.396C53.3665 36.7611 53.3372 36.7667 53.3098 36.7778C53.2825 36.7889 53.2576 36.8054 53.2368 36.8263C53.2159 36.8473 53.1994 36.8721 53.1883 36.8995C53.1772 36.9269 53.1717 36.9563 53.1721 36.9859H52.9688V36.4398C52.9695 36.3677 52.9985 36.2989 53.0495 36.2481C53.1005 36.1973 53.1694 36.1686 53.2413 36.1682H55.1845C55.2563 36.1686 55.325 36.1973 55.3757 36.2482C55.4265 36.299 55.4552 36.3679 55.4556 36.4398Z" fill="#474747"/>
<path d="M55.2066 36.1667H53.2177C53.0802 36.1667 52.9688 36.2781 52.9688 36.4154C52.9688 36.5528 53.0802 36.6641 53.2177 36.6641H55.2066C55.3441 36.6641 55.4556 36.5528 55.4556 36.4154C55.4556 36.2781 55.3441 36.1667 55.2066 36.1667Z" fill="#EA4C81"/>
<path opacity="0.3" d="M40.7812 29.5485L38.4962 33.8655C38.0056 33.8655 37.5092 33.8832 37.0156 33.8979L39.2755 29.7034C39.8693 29.6326 40.3687 29.5809 40.7812 29.5485Z" fill="white"/>
<path d="M13.9688 39.2665C13.9688 39.2665 15.4788 37.1456 18.1866 37.0349C20.8944 36.9242 22.9009 39.2665 22.9009 39.2665C22.9009 39.2665 18.4252 35.3893 13.9688 39.2665Z" fill="#363636"/>
<path d="M55.1484 39.1256C55.1484 39.1256 56.6585 37.0033 59.3663 36.8926C62.0741 36.7819 64.0806 39.1256 64.0806 39.1256C64.0806 39.1256 59.6064 35.2514 55.1484 39.1256Z" fill="#363636"/>
<path d="M9.51406 43.1332C9.43011 42.8656 9.36755 42.5917 9.32696 42.3141C9.3036 42.1334 9.30857 41.9501 9.34169 41.7709C9.3807 41.5702 9.44506 41.3753 9.53321 41.1909C9.58035 41.1998 10.5247 41.3725 10.6514 42.0543C10.7781 42.7362 9.4566 42.8528 9.51406 43.1332Z" fill="black"/>
<path d="M11.6305 44.4201C10.9145 44.2121 10.1876 44.0436 9.45312 43.9153L9.50616 43.7899C9.56191 43.6639 9.58179 43.525 9.56362 43.3884C9.56362 43.3884 11.5053 43.8622 12.3627 43.6688C13.2202 43.4755 13.3852 44.9116 11.6305 44.4201Z" fill="black"/>
<path opacity="0.3" d="M36.4483 33.9131L38.7745 29.7289C38.5402 29.7525 38.387 29.7761 38.1292 29.8071L35.6719 33.9396L36.4483 33.9131Z" fill="white"/>
<path opacity="0.5" d="M23.026 42.7238C23.026 42.7637 23.026 42.8035 23.026 42.8434C21.7763 41.6788 20.1377 41.0235 18.431 41.0059C15.6599 41.0059 13.7579 42.7769 13.696 42.8419C13.696 42.802 13.696 42.7637 13.696 42.7238C13.685 42.1029 13.7976 41.486 14.0272 40.9092C14.2567 40.3323 14.5987 39.8071 15.0331 39.3641C15.4675 38.9211 15.9857 38.5692 16.5573 38.329C17.1289 38.0888 17.7426 37.9651 18.3625 37.9651C18.9824 37.9651 19.596 38.0888 20.1677 38.329C20.7393 38.5692 21.2574 38.9211 21.6919 39.3641C22.1263 39.8071 22.4682 40.3323 22.6978 40.9092C22.9274 41.486 23.0399 42.1029 23.0289 42.7238H23.026Z" fill="black"/>
<path d="M21.5517 42.7235C21.5513 43.3556 21.3638 43.9735 21.0129 44.4989C20.6621 45.0243 20.1636 45.4337 19.5805 45.6753C19.1863 45.8384 18.7635 45.9207 18.337 45.9173C17.9105 45.9139 17.489 45.8249 17.0975 45.6555C16.7059 45.4861 16.3522 45.2398 16.0573 44.9312C15.7624 44.6225 15.5322 44.2578 15.3804 43.8585C15.1024 43.1239 15.1024 42.3128 15.3804 41.5782C15.4465 41.4036 15.5289 41.2356 15.6264 41.0764C15.9791 40.4837 16.5149 40.0221 17.1527 39.7614C17.8533 39.4752 18.6327 39.4476 19.3518 39.6836C20.0709 39.9196 20.683 40.4038 21.0788 41.0498C21.1831 41.2186 21.271 41.397 21.341 41.5826C21.4805 41.9468 21.5519 42.3335 21.5517 42.7235Z" fill="#8A8A8A"/>
<path d="M21.4156 42.7239C21.4156 42.7637 21.4156 42.805 21.4156 42.8449C21.393 43.4298 21.2033 43.9959 20.869 44.4759C20.5347 44.956 20.07 45.3299 19.5299 45.5532C19.1598 45.706 18.7634 45.7842 18.3631 45.7834C17.968 45.7848 17.5765 45.7081 17.211 45.5576C16.6663 45.3373 16.1967 44.9641 15.8585 44.4829C15.5204 44.0017 15.3281 43.4329 15.3047 42.8449C15.3047 42.805 15.3047 42.7637 15.3047 42.7239C15.3048 42.1157 15.4856 41.5213 15.8241 41.0164C16.1625 40.5115 16.6433 40.1189 17.2051 39.8886C17.6695 39.6992 18.1731 39.627 18.6718 39.6785C19.1705 39.7299 19.6489 39.9033 20.065 40.1835C20.4811 40.4637 20.822 40.8421 21.0577 41.2854C21.2935 41.7286 21.4169 42.2231 21.4171 42.7253L21.4156 42.7239Z" fill="white"/>
<path d="M21.4127 42.8449C21.39 43.4298 21.2003 43.9959 20.866 44.476C20.5318 44.956 20.067 45.3299 19.5269 45.5532C19.1569 45.706 18.7604 45.7843 18.3602 45.7834C17.965 45.7848 17.5735 45.7081 17.2081 45.5576C16.6639 45.3368 16.1949 44.9635 15.8573 44.4823C15.5197 44.0011 15.3278 43.4326 15.3047 42.8449C15.3047 42.8051 15.3047 42.7637 15.3121 42.7239C15.3561 42.1584 15.5561 41.6163 15.8899 41.1581C16.2237 40.6999 16.678 40.3437 17.2022 40.1292C17.5795 39.9753 17.9838 39.8983 18.3912 39.903C18.7986 39.9077 19.201 39.9939 19.5747 40.1566C19.9484 40.3192 20.2859 40.5551 20.5674 40.8502C20.8489 41.1453 21.0686 41.4938 21.2138 41.8752C21.318 42.1458 21.382 42.4303 21.4038 42.7195V42.7313C21.4038 42.7682 21.4112 42.8065 21.4127 42.8449Z" fill="black"/>
<path d="M21.4121 42.7187V42.7305C21.367 43.2927 21.1677 43.8314 20.8363 44.2872C20.5048 44.7429 20.054 45.0981 19.5337 45.3134C19.1637 45.4662 18.7672 45.5444 18.3669 45.5436C17.9718 45.545 17.5803 45.4683 17.2149 45.3178C16.8265 45.1598 16.4747 44.9234 16.1814 44.6232C15.8882 44.3231 15.6597 43.9657 15.5104 43.5733C15.4059 43.3007 15.3419 43.0143 15.3203 42.7232C15.3643 42.1577 15.5644 41.6155 15.8982 41.1574C16.2319 40.6992 16.6863 40.343 17.2105 40.1285C17.5878 39.9745 17.992 39.8976 18.3995 39.9023C18.8069 39.907 19.2093 39.9932 19.583 40.1559C19.9567 40.3185 20.2942 40.5543 20.5756 40.8495C20.8571 41.1446 21.0769 41.4931 21.222 41.8745C21.3262 42.1451 21.3902 42.4295 21.4121 42.7187Z" fill="#8F8F8F"/>
<path d="M19.4404 45.3322C19.0991 45.4723 18.7338 45.5445 18.365 45.5447C18.0008 45.5452 17.6399 45.4745 17.3028 45.3366L18.3738 42.7272L17.2969 40.1119C17.6353 39.9748 17.9969 39.9041 18.362 39.9038C18.731 39.9038 19.0965 39.9765 19.4375 40.1178L18.3679 42.7243L19.4404 45.3322Z" fill="#525252"/>
<path d="M15.7332 41.7168L18.3688 42.7234L15.7317 43.7299C15.4853 43.0816 15.4853 42.3651 15.7317 41.7168H15.7332Z" fill="#525252"/>
<path d="M21.1781 42.7241C21.1784 43.066 21.1165 43.4051 20.9954 43.7247L18.3672 42.7226L20.9939 41.719C21.1163 42.0399 21.1787 42.3806 21.1781 42.7241Z" fill="#525252"/>
<path d="M18.3625 43.5257C18.8043 43.5257 19.1624 43.1669 19.1624 42.7243C19.1624 42.2817 18.8043 41.9229 18.3625 41.9229C17.9207 41.9229 17.5625 42.2817 17.5625 42.7243C17.5625 43.1669 17.9207 43.5257 18.3625 43.5257Z" fill="#525252"/>
<path d="M18.3637 43.2843C18.6724 43.2843 18.9226 43.0336 18.9226 42.7243C18.9226 42.415 18.6724 42.1643 18.3637 42.1643C18.0549 42.1643 17.8047 42.415 17.8047 42.7243C17.8047 43.0336 18.0549 43.2843 18.3637 43.2843Z" fill="#8F8F8F"/>
<path opacity="0.3" d="M21.0789 41.052L21.0037 41.1878C21.0037 41.1878 20.9183 41.1465 20.771 41.083C20.2762 40.8724 19.7614 40.7127 19.2344 40.6063C18.9694 40.554 18.7001 40.5263 18.43 40.5237C18.1192 40.5271 17.8096 40.5632 17.5063 40.6314C16.9421 40.7566 16.3933 40.9432 15.8696 41.1878L15.7488 41.1347L15.625 41.0801C15.9777 40.4873 16.5135 40.0257 17.1513 39.765C17.8519 39.4788 18.6313 39.4513 19.3504 39.6872C20.0695 39.9232 20.6815 40.4074 21.0774 41.0535L21.0789 41.052Z" fill="black"/>
<path d="M70.4088 37.3081L70.3322 37.3833C70.3322 37.3833 66.9246 35.9812 67.1515 35.6226C67.2255 35.5154 67.3235 35.427 67.4375 35.3643C67.5515 35.3015 67.6785 35.2662 67.8085 35.261L67.9058 35.1783C68.8265 35.2802 69.6294 35.3953 69.9535 35.7835C70.107 36.0127 70.2123 36.2708 70.2629 36.5421C70.3042 36.7118 70.3425 36.8978 70.3749 37.0926C70.3867 37.1605 70.3985 37.2372 70.4088 37.3081Z" fill="white"/>
<path opacity="0.5" d="M64.0837 42.8715C64.0837 42.9114 64.0837 42.9512 64.0837 42.9911C62.8544 41.8298 61.2342 41.1739 59.5447 41.1536C56.8074 41.1536 54.9276 42.9246 54.8672 42.9896C54.8672 42.9497 54.8672 42.9114 54.8672 42.8715C54.8672 41.6467 55.3529 40.4721 56.2173 39.606C57.0818 38.74 58.2543 38.2534 59.4769 38.2534C60.6995 38.2534 61.872 38.74 62.7365 39.606C63.601 40.4721 64.0866 41.6467 64.0866 42.8715H64.0837Z" fill="black"/>
<path d="M62.6547 42.724C62.6538 43.3562 62.4659 43.974 62.1148 44.4993C61.7637 45.0247 61.2652 45.4341 60.6821 45.6758C60.2959 45.8343 59.8825 45.916 59.4652 45.9164C59.0524 45.9175 58.6434 45.8373 58.2616 45.6802C57.8564 45.5146 57.4895 45.2673 57.1836 44.9538C56.8777 44.6403 56.6394 44.2671 56.4834 43.8575C56.2035 43.1233 56.2035 42.3115 56.4834 41.5772C56.6388 41.1696 56.8758 40.7981 57.1798 40.4857C57.4838 40.1732 57.8484 39.9264 58.2512 39.7604C58.7365 39.5611 59.2632 39.4846 59.7849 39.5377C60.3066 39.5908 60.8072 39.7719 61.2425 40.0648C61.6778 40.3578 62.0343 40.7536 62.2806 41.2174C62.527 41.6812 62.6554 42.1987 62.6547 42.724Z" fill="#8A8A8A"/>
<path d="M62.5284 42.7244C62.5284 42.7642 62.5284 42.8056 62.5284 42.8454C62.5057 43.4303 62.316 43.9964 61.9818 44.4765C61.6475 44.9565 61.1827 45.3304 60.6427 45.5537C60.2726 45.7065 59.8761 45.7848 59.4759 45.7839C59.0808 45.7853 58.6893 45.7086 58.3238 45.5581C57.7797 45.337 57.3108 44.9633 56.9735 44.4819C56.6361 44.0005 56.4446 43.4317 56.4219 42.8439C56.4219 42.8041 56.4219 42.7628 56.4219 42.7229C56.422 42.1147 56.6028 41.5204 56.9412 41.0155C57.2797 40.5106 57.7604 40.118 58.3223 39.8877C58.7863 39.6995 59.2894 39.6283 59.7873 39.6804C60.2851 39.7324 60.7627 39.906 61.1779 40.1861C61.5932 40.4662 61.9335 40.8441 62.1689 41.2866C62.4044 41.7292 62.5278 42.2229 62.5284 42.7244Z" fill="white"/>
<path d="M62.5206 42.8457C62.4979 43.4305 62.3082 43.9966 61.9739 44.4767C61.6397 44.9568 61.1749 45.3306 60.6348 45.5539C60.2648 45.7068 59.8683 45.785 59.468 45.7842C59.0729 45.7856 58.6814 45.7088 58.316 45.5584C57.7719 45.3373 57.303 44.9636 56.9657 44.4821C56.6283 44.0007 56.4368 43.432 56.4141 42.8442C56.4141 42.8043 56.4141 42.763 56.4214 42.7232C56.4654 42.1576 56.6655 41.6155 56.9993 41.1574C57.3331 40.6992 57.7874 40.343 58.3116 40.1285C58.6889 39.9745 59.0932 39.8976 59.5006 39.9023C59.908 39.907 60.3104 39.9932 60.6841 40.1559C61.0578 40.3185 61.3953 40.5543 61.6768 40.8495C61.9582 41.1446 62.178 41.4931 62.3232 41.8745C62.4273 42.1451 62.4914 42.4295 62.5132 42.7187V42.7305C62.5176 42.7689 62.5191 42.8073 62.5206 42.8457Z" fill="black"/>
<path d="M62.5126 42.7182V42.73C62.4675 43.2922 62.2683 43.8309 61.9368 44.2867C61.6053 44.7424 61.1545 45.0976 60.6343 45.3129C60.2642 45.4657 59.8677 45.5439 59.4675 45.5431C59.0724 45.5445 58.6809 45.4678 58.3154 45.3173C57.9288 45.1584 57.5788 44.9218 57.2871 44.622C56.9954 44.3221 56.7683 43.9656 56.6197 43.5742C56.5153 43.3017 56.4513 43.0153 56.4297 42.7241C56.4737 42.1586 56.6738 41.6165 57.0075 41.1583C57.3413 40.7001 57.7957 40.3439 58.3198 40.1295C58.6972 39.9755 59.1014 39.8986 59.5088 39.9033C59.9163 39.908 60.3186 39.9942 60.6923 40.1568C61.0661 40.3195 61.4035 40.5553 61.685 40.8504C61.9665 41.1456 62.1863 41.4941 62.3314 41.8755C62.4324 42.1461 62.4935 42.43 62.5126 42.7182Z" fill="#8F8F8F"/>
<path d="M60.5483 45.3322C60.2075 45.4723 59.8427 45.5445 59.4743 45.5447C59.1101 45.5452 58.7493 45.4745 58.4121 45.3366L59.4832 42.7272L58.4062 40.1119C58.7446 39.9746 59.1063 39.904 59.4714 39.9038C59.84 39.9036 60.2049 39.9763 60.5454 40.1178L59.4773 42.7243L60.5483 45.3322Z" fill="#525252"/>
<path d="M56.8341 41.7168L59.4711 42.7234L56.8341 43.7299C56.7106 43.4093 56.6477 43.0685 56.6484 42.7248C56.6484 42.3803 56.7113 42.0386 56.8341 41.7168Z" fill="#525252"/>
<path d="M62.2875 42.7241C62.2877 43.066 62.2258 43.4051 62.1048 43.7247L59.4766 42.7226L62.1033 41.719C62.2256 42.0399 62.288 42.3806 62.2875 42.7241Z" fill="#525252"/>
<path d="M59.4718 43.5257C59.9136 43.5257 60.2718 43.1669 60.2718 42.7243C60.2718 42.2817 59.9136 41.9229 59.4718 41.9229C59.03 41.9229 58.6719 42.2817 58.6719 42.7243C58.6719 43.1669 59.03 43.5257 59.4718 43.5257Z" fill="#525252"/>
<path d="M59.4652 43.2843C59.7739 43.2843 60.0242 43.0336 60.0242 42.7243C60.0242 42.415 59.7739 42.1643 59.4652 42.1643C59.1565 42.1643 58.9062 42.415 58.9062 42.7243C58.9062 43.0336 59.1565 43.2843 59.4652 43.2843Z" fill="#8F8F8F"/>
<path opacity="0.3" d="M62.2826 41.1877L62.2045 41.3353C62.2045 41.3353 62.1161 41.291 61.9629 41.2217C61.4524 40.9925 60.9191 40.8184 60.3719 40.7022C59.781 40.5733 59.1684 40.5829 58.5819 40.7302C57.9956 40.8669 57.4267 41.0699 56.8862 41.3353L56.761 41.2778L56.6328 41.2187C56.9896 40.5811 57.5448 40.0779 58.2136 39.7856C58.6088 39.6159 59.0344 39.5285 59.4643 39.5288C59.8984 39.5283 60.3279 39.6183 60.7254 39.793C61.3797 40.0797 61.9253 40.5684 62.2826 41.1877Z" fill="black"/>
<path d="M70.4998 38.2991C70.0357 37.4445 68.9912 37.235 67.9835 36.6948L67.9172 36.6594C66.9802 36.1398 67.0333 35.8151 67.1467 35.6262C68.3607 35.7738 69.5378 35.8255 69.9458 36.3169C70.1027 36.5505 70.2239 36.8062 70.3053 37.0756C70.3527 37.2485 70.3848 37.4253 70.4011 37.6039C70.4394 37.8179 70.4718 38.0674 70.4998 38.2991Z" fill="#EA4C81"/>
<path d="M70.3687 37.384C69.7956 37.0888 68.3061 36.68 67.9172 36.6594C66.9802 36.1398 67.0333 35.8151 67.1467 35.6262C68.3607 35.7738 69.5378 35.8255 69.9458 36.3169C70.1687 36.6343 70.3135 36.9999 70.3687 37.384Z" fill="#C2D5FF"/>
<path d="M9.77299 40.2595L9.74795 39.647L9.73616 39.0345C9.72901 38.8289 9.74333 38.6231 9.77889 38.4205C9.8103 38.2134 9.87813 38.0135 9.97925 37.8302C10.083 37.6491 10.2147 37.4857 10.3696 37.3461C10.5263 37.2106 10.6955 37.0905 10.875 36.9874C11.2334 36.7855 11.6091 36.6161 11.9976 36.4812C12.0948 36.4473 12.1906 36.4104 12.2922 36.3794L12.5868 36.2893L13.1761 36.1093C13.5724 36.0074 13.9673 35.8982 14.368 35.8141L14.9676 35.6842L15.5686 35.5691C15.9694 35.4864 16.373 35.4215 16.7752 35.3551C18.3855 35.0909 20.003 34.8754 21.6221 34.6762C23.2412 34.4769 24.8632 34.3028 26.4838 34.1463H26.4513C26.652 34.082 26.8488 34.0061 27.0406 33.919C27.238 33.8364 27.4296 33.736 27.6211 33.6357C28.0056 33.4349 28.3827 33.215 28.7569 32.9907C29.5053 32.5376 30.2419 32.0623 30.983 31.5901C31.724 31.1178 32.4606 30.6661 33.2237 30.2116C33.6053 29.9887 33.9898 29.7688 34.3876 29.5695C34.5821 29.4633 34.7913 29.3777 34.9931 29.2744C35.0918 29.2257 35.2008 29.1888 35.3054 29.1474C35.41 29.1061 35.5161 29.0648 35.6251 29.0279C36.0599 28.9049 36.503 28.8136 36.951 28.7548C37.393 28.6899 37.8276 28.6368 38.2666 28.5925C39.1505 28.5025 40.0227 28.4361 40.9007 28.3814C42.6597 28.2831 44.4188 28.2294 46.1778 28.2206C47.9368 28.2132 49.6973 28.2368 51.4593 28.3682C51.9013 28.4021 52.3432 28.4449 52.7852 28.501C53.2336 28.5539 53.6771 28.6433 54.1111 28.7681C54.2245 28.8065 54.3365 28.8449 54.4337 28.8892L54.7387 29.0264C54.942 29.115 55.1394 29.2139 55.3398 29.3098C55.7375 29.5002 56.1294 29.7009 56.5183 29.9001C58.0785 30.7163 59.6121 31.5664 61.1575 32.4092C61.9295 32.8283 62.7 33.249 63.4764 33.6578C63.8653 33.8615 64.2542 34.0622 64.6461 34.2482C64.842 34.3441 65.0395 34.4371 65.2354 34.5256L65.53 34.6481L65.8365 34.7411L65.8866 34.7692C65.8768 34.7596 65.8653 34.7521 65.8527 34.747C65.84 34.7419 65.8265 34.7394 65.8129 34.7396H65.8394C66.3503 34.8653 66.869 34.9561 67.3922 35.0112C67.9181 35.0791 68.4485 35.1293 68.9744 35.24C69.2415 35.2978 69.4976 35.3979 69.7331 35.5366C69.7939 35.572 69.8516 35.6125 69.9055 35.6576C69.9583 35.7061 70.0053 35.7606 70.0455 35.82C70.1175 35.9378 70.1744 36.0643 70.2149 36.1963C70.3581 36.7123 70.4567 37.2397 70.5095 37.7726C70.5552 38.1873 70.5847 38.6021 70.6097 39.0183L70.6406 39.6411C70.6524 39.8492 70.6539 40.0573 70.6731 40.2654C70.648 40.0588 70.6392 39.8507 70.6215 39.6426L70.5714 39.0212C70.536 38.607 70.4909 38.1937 70.4359 37.7815C70.3726 37.2568 70.2652 36.7383 70.1147 36.2318C70.0738 36.1104 70.0184 35.9944 69.9497 35.8864C69.9141 35.8367 69.8731 35.7912 69.8274 35.7506C69.7785 35.712 69.7268 35.677 69.6727 35.6458C69.4409 35.5291 69.1924 35.4489 68.9361 35.4082C68.422 35.3108 67.8916 35.2724 67.3642 35.2178C66.8305 35.1729 66.3004 35.092 65.7775 34.9758H65.8041C65.7743 34.9758 65.7457 34.9642 65.7245 34.9433L65.7746 34.9713C65.6656 34.9418 65.5566 34.9123 65.449 34.8798L65.1352 34.7559C64.9304 34.6673 64.7301 34.5758 64.5297 34.4828C64.1319 34.2924 63.7386 34.0961 63.3511 33.8925C62.5689 33.4925 61.791 33.0837 61.0131 32.6734C59.4589 31.8542 57.9105 31.0248 56.346 30.2337L55.7567 29.9385C55.5607 29.8411 55.3648 29.7422 55.1674 29.6433C54.97 29.5445 54.774 29.453 54.5781 29.3673L54.2835 29.2345C54.1789 29.1888 54.0831 29.1578 53.9888 29.1268C53.5773 29.0109 53.157 28.929 52.7322 28.8818C52.302 28.8272 51.8674 28.7873 51.4328 28.7563C49.69 28.6353 47.9353 28.6191 46.1837 28.6338C44.432 28.6486 42.6789 28.712 40.9302 28.8183C40.0565 28.8685 39.1829 28.9305 38.3137 29.0161C37.8791 29.0589 37.4445 29.1091 37.0143 29.1711C36.5905 29.2243 36.171 29.3082 35.7592 29.422C35.659 29.4559 35.5603 29.4958 35.4645 29.5327C35.3688 29.5695 35.2656 29.6035 35.1699 29.6522C34.9754 29.7437 34.7765 29.8249 34.5806 29.9282C34.1931 30.1215 33.813 30.3355 33.4344 30.5525C32.6801 30.9953 31.9376 31.4587 31.1951 31.928C30.4526 32.3974 29.7116 32.8697 28.9543 33.3228C28.5743 33.5486 28.1927 33.7655 27.7964 33.9751C27.599 34.077 27.4001 34.1788 27.1909 34.2703C26.9823 34.3625 26.7683 34.4418 26.55 34.5079H26.5368H26.5176C24.8951 34.6407 23.2746 34.7947 21.656 34.9699C20.0355 35.1455 18.4149 35.3388 16.8106 35.5809C16.0062 35.7078 15.2018 35.8274 14.4048 35.9897C14.0056 36.062 13.6122 36.1609 13.2174 36.2539L12.6281 36.4192L12.3335 36.5019C12.2362 36.5299 12.1405 36.5638 12.0388 36.5948C11.6537 36.7191 11.2805 36.8777 10.9236 37.0686C10.747 37.1642 10.5802 37.2769 10.4256 37.4051C10.2746 37.536 10.1444 37.6893 10.0396 37.8597C9.84939 38.2216 9.75743 38.6272 9.77299 39.036V39.6485V40.2595Z" fill="white"/>
<path d="M31.5741 32.1786H29.1948C28.5781 32.1786 28.0781 32.6795 28.0781 33.2973C28.0781 33.9152 28.5781 34.4161 29.1948 34.4161H31.5741C32.1908 34.4161 32.6908 33.9152 32.6908 33.2973C32.6908 32.6795 32.1908 32.1786 31.5741 32.1786Z" fill="white"/>
<path d="M31.6094 32.4534H29.3745C28.7578 32.4534 28.2578 32.9542 28.2578 33.5721C28.2578 34.19 28.7578 34.6908 29.3745 34.6908H31.6094C32.2261 34.6908 32.7261 34.19 32.7261 33.5721C32.7261 32.9542 32.2261 32.4534 31.6094 32.4534Z" fill="black"/>
<path d="M44.4562 31.8469C44.457 31.9446 44.4421 32.0418 44.412 32.1347C44.382 32.2215 44.3371 32.3025 44.2794 32.3738C44.2185 32.4449 44.1445 32.5036 44.0613 32.5465C43.9692 32.5942 43.8695 32.6257 43.7667 32.6395C43.6689 32.6563 43.5689 32.6538 43.4721 32.6321C43.3929 32.6151 43.3185 32.5808 43.254 32.5317C43.196 32.4874 43.1495 32.4297 43.1185 32.3635C43.083 32.295 43.0639 32.2192 43.0625 32.1421C43.0624 32.1252 43.0687 32.1088 43.0802 32.0964C43.0907 32.0839 43.1053 32.0755 43.1214 32.0727L43.2584 32.0536C43.2894 32.0536 43.31 32.0668 43.3188 32.1052C43.3273 32.1485 43.3422 32.1903 43.363 32.2292C43.3827 32.268 43.4116 32.3014 43.447 32.3266C43.4858 32.3543 43.53 32.3734 43.5767 32.3827C43.6365 32.394 43.698 32.394 43.7579 32.3827C43.8223 32.3795 43.8853 32.363 43.9431 32.3343C44.0009 32.3056 44.0522 32.2653 44.0938 32.2159C44.165 32.1065 44.2001 31.9774 44.1939 31.8469V30.8832L43.2629 31.016C43.2537 31.0174 43.2444 31.0168 43.2355 31.0142C43.2266 31.0117 43.2183 31.0072 43.2113 31.0012C43.2047 30.995 43.1995 30.9874 43.1959 30.979C43.1924 30.9707 43.1906 30.9616 43.1907 30.9525V30.8536C43.1913 30.8337 43.1986 30.8144 43.2113 30.799C43.2246 30.7839 43.2429 30.774 43.2629 30.771L44.3766 30.6131C44.3857 30.6113 44.395 30.6116 44.4039 30.6139C44.4129 30.6162 44.4211 30.6205 44.4282 30.6265C44.4353 30.6324 44.4409 30.6399 44.4447 30.6483C44.4486 30.6567 44.4504 30.6658 44.4503 30.6751L44.4562 31.8469Z" fill="#212121"/>
</g>
</g>
</g>
<defs>
<filter id="filter0_d_365_6954" x="0.79711" y="0.641893" width="78.3098" height="78.31" filterUnits="userSpaceOnUse" color-interpolation-filters="sRGB">
<feFlood flood-opacity="0" result="BackgroundImageFix"/>
<feColorMatrix in="SourceAlpha" type="matrix" values="0 0 0 0 0 0 0 0 0 0 0 0 0 0 0 0 0 0 127 0" result="hardAlpha"/>
<feOffset dy="3.57305"/>
<feGaussianBlur stdDeviation="2.23316"/>
<feComposite in2="hardAlpha" operator="out"/>
<feColorMatrix type="matrix" values="0 0 0 0 0 0 0 0 0 0 0 0 0 0 0 0 0 0 0.04 0"/>
<feBlend mode="normal" in2="BackgroundImageFix" result="effect1_dropShadow_365_6954"/>
<feBlend mode="normal" in="SourceGraphic" in2="effect1_dropShadow_365_6954" result="shape"/>
</filter>
<filter id="filter1_d_365_6954" x="0.994056" y="28.2194" width="77.9159" height="30.3088" filterUnits="userSpaceOnUse" color-interpolation-filters="sRGB">
<feFlood flood-opacity="0" result="BackgroundImageFix"/>
<feColorMatrix in="SourceAlpha" type="matrix" values="0 0 0 0 0 0 0 0 0 0 0 0 0 0 0 0 0 0 127 0" result="hardAlpha"/>
<feOffset dy="4.26937"/>
<feGaussianBlur stdDeviation="2.13469"/>
<feComposite in2="hardAlpha" operator="out"/>
<feColorMatrix type="matrix" values="0 0 0 0 0 0 0 0 0 0 0 0 0 0 0 0 0 0 0.05 0"/>
<feBlend mode="normal" in2="BackgroundImageFix" result="effect1_dropShadow_365_6954"/>
<feBlend mode="normal" in="SourceGraphic" in2="effect1_dropShadow_365_6954" result="shape"/>
</filter>
<linearGradient id="paint0_linear_365_6954" x1="15.7494" y1="-171.275" x2="90.8711" y2="-164.367" gradientUnits="userSpaceOnUse">
<stop stop-color="#0172B1"/>
<stop offset="1" stop-color="#0CAFE0"/>
</linearGradient>
</defs>
</svg>
