<svg width="65" height="65" viewBox="0 0 65 65" fill="none" xmlns="http://www.w3.org/2000/svg">
<rect width="65" height="65" rx="19.6877" fill="#0272B2" fill-opacity="0.05"/>
<rect x="18.4895" y="20.5169" width="28.7191" height="26.597" rx="2.79903" stroke="#0272B2" stroke-width="1.69768"/>
<rect x="18.7031" y="25.3271" width="28.8605" height="1.69768" fill="#0272B2"/>
<rect width="1.06944" height="2.84436" rx="0.53472" transform="matrix(0.714508 -0.699628 0.709133 0.705074 37.8909 32.2946)" fill="#0272B2" stroke="#0272B2" stroke-width="0.236897"/>
<rect width="1.00383" height="4.89716" rx="0.501917" transform="matrix(-0.714508 -0.699628 -0.709133 0.705074 43.4221 30.8086)" fill="#0272B2" stroke="#0272B2" stroke-width="0.236897"/>
<rect x="22.1866" y="38.4092" width="4.95618" height="4.88983" rx="1.27804" stroke="#0272B2" stroke-width="1.47064"/>
<rect x="22.1866" y="30.1107" width="4.95618" height="4.88983" rx="1.27804" stroke="#0272B2" stroke-width="1.47064"/>
<rect x="30.3741" y="38.4092" width="4.95618" height="4.88983" rx="1.27804" stroke="#0272B2" stroke-width="1.47064"/>
<rect x="30.3741" y="30.1107" width="4.95618" height="4.88983" rx="1.27804" stroke="#0272B2" stroke-width="1.47064"/>
<rect x="38.5459" y="38.4092" width="4.95618" height="4.88983" rx="1.27804" stroke="#0272B2" stroke-width="1.47064"/>
<rect x="29.4531" y="17.4756" width="1.69768" height="5.09304" rx="0.848839" fill="#0272B2"/>
<rect x="24.3594" y="17.4756" width="1.69768" height="5.09304" rx="0.848839" fill="#0272B2"/>
<rect x="34.5469" y="17.4756" width="1.69768" height="5.09304" rx="0.848839" fill="#0272B2"/>
<rect x="39.6406" y="17.4756" width="1.69768" height="5.09304" rx="0.848839" fill="#0272B2"/>
</svg>
