<svg width="65" height="65" viewBox="0 0 65 65" fill="none" xmlns="http://www.w3.org/2000/svg">
<rect width="65" height="65" rx="19.6877" fill="#0272B2" fill-opacity="0.05"/>
<path d="M31.0137 51.2509V47.1533C29.5177 47.1273 28.0868 46.9972 26.721 46.7631C25.3681 46.5289 24.2624 46.2232 23.4038 45.846V42.685C24.3014 43.1012 25.4526 43.4655 26.8575 43.7777C28.2624 44.0899 29.6478 44.259 31.0137 44.285V35.6995C29.2966 35.2182 27.8722 34.6719 26.7405 34.0605C25.6218 33.4361 24.7827 32.6751 24.2234 31.7775C23.664 30.88 23.3843 29.7938 23.3843 28.519C23.3843 27.1921 23.6965 26.0604 24.3209 25.1238C24.9583 24.1742 25.8494 23.4327 26.9941 22.8994C28.1389 22.366 29.4787 22.0603 31.0137 21.9823V18.6066H33.3942V21.9433C34.7861 21.9823 36.0544 22.1384 37.1991 22.4116C38.3439 22.6717 39.404 23.0099 40.3797 23.4262L39.365 26.1384C38.4804 25.7872 37.5243 25.488 36.4967 25.2409C35.469 24.9937 34.4349 24.8246 33.3942 24.7335V33.2605C35.1373 33.7678 36.5942 34.3076 37.765 34.88C38.9487 35.4524 39.8398 36.1613 40.4382 37.0069C41.0366 37.8524 41.3358 38.9451 41.3358 40.2849C41.3358 42.1842 40.6398 43.7191 39.2479 44.8899C37.856 46.0476 35.9048 46.7501 33.3942 46.9972V51.2509H31.0137ZM33.3942 44.1094C34.9942 43.9533 36.1845 43.5695 36.965 42.9582C37.7585 42.3338 38.1552 41.5142 38.1552 40.4996C38.1552 39.7711 37.9991 39.1727 37.6869 38.7044C37.3877 38.2361 36.8934 37.8329 36.204 37.4947C35.5146 37.1434 34.578 36.8117 33.3942 36.4995V44.1094ZM31.0137 32.441V24.8116C30.0381 24.8766 29.2185 25.0587 28.5551 25.3579C27.8917 25.6571 27.3909 26.0474 27.0527 26.5287C26.7275 27.01 26.5649 27.5824 26.5649 28.2458C26.5649 29.0133 26.7079 29.6572 26.9941 30.1775C27.2933 30.6848 27.7681 31.1206 28.4185 31.4848C29.082 31.8361 29.947 32.1548 31.0137 32.441Z" fill="#0272B2"/>
</svg>
